<svg width="165" height="240" viewBox="0 0 165 240" fill="none" xmlns="http://www.w3.org/2000/svg">
<g clip-path="url(#clip0)">
<path d="M145.786 224.396H95.9062V236.948H145.786V224.396Z" fill="white"/>
<path d="M145.6 224.586V236.762H96.1001V224.586H145.6ZM145.975 224.21H95.7206V237.137H145.975V224.21Z" fill="#D4463D"/>
<path d="M145.786 229.338H95.9062V232.005H145.786V229.338Z" fill="white"/>
<path d="M145.6 229.528V231.82H96.1001V229.528H145.6ZM145.975 229.153H95.7206V232.191H145.975V229.153Z" fill="#D4463D"/>
<path d="M64.5316 194.47L49.6568 177.467" stroke="#585852" stroke-width="1.27943" stroke-miterlimit="10" stroke-linecap="round"/>
<path d="M102.878 82.1538L86.592 101.412" stroke="#585852" stroke-width="1.27943" stroke-miterlimit="10" stroke-linecap="round"/>
<path d="M71.1315 44.322L83.787 60.9213" stroke="#585852" stroke-width="1.27943" stroke-miterlimit="10" stroke-linecap="round"/>
<path d="M105.291 21.1646L83.787 0.748291" stroke="#585852" stroke-width="1.27943" stroke-miterlimit="10" stroke-linecap="round"/>
<path d="M83.4776 232.22V198.382H72.9506V232.22H83.4776Z" fill="#D4463D"/>
<path d="M72.9466 237.137H95.9846V224.211H72.9466V237.137Z" fill="#D4463D"/>
<path d="M145.971 237.137H164.385V224.211H145.971V237.137Z" fill="#D4463D"/>
<path d="M64.5357 200.435H83.4776V187.508H64.5357V200.435Z" fill="#D4463D"/>
<path d="M-1.90735e-05 200.435H42.834V187.508H-1.90735e-05V200.435Z" fill="#D4463D"/>
<path d="M72.1916 64.5488H69.3536V117.067H72.1916V64.5488Z" fill="#D4463D"/>
<path d="M72.1916 22.6113H69.3536V44.3178H72.1916V22.6113Z" fill="#D4463D"/>
<path d="M113.891 22.6113H108.174V42.6402H113.891V22.6113Z" fill="#D4463D"/>
<path d="M78.3791 83.576V80.74H70.7726V83.576H78.3791Z" fill="#D4463D"/>
<path d="M161.3 83.5717V80.7358H102.878V83.5717H161.3Z" fill="#D4463D"/>
<path d="M70.7891 97.937V95.1011H3.79497V97.937H70.7891Z" fill="#D4463D"/>
<path d="M41.1799 96.519V90.8059H3.79503V96.519H41.1799Z" fill="#D4463D"/>
<path d="M41.1799 82.1703V79.7178H3.79503V82.1703H41.1799Z" fill="#D4463D"/>
<path d="M75.9949 23.7656V18.5637L1.87688 18.5637V23.7656L75.9949 23.7656Z" fill="#D4463D"/>
<path d="M113.895 23.7655V18.5635H105.295V23.7655H113.895Z" fill="#D4463D"/>
<path d="M165 42.6403V37.4382H108.657V42.6403H165Z" fill="#D4463D"/>
<path d="M0.569251 239.384H4.93353L4.93353 198.18H0.569251L0.569251 239.384Z" fill="#D4463D"/>
<path d="M0.00408649 197.71H5.87808L5.87808 18.5637H0.00408649L0.00408649 197.71Z" fill="#D4463D"/>
<path d="M159.126 237.137H165L165 40.8019H159.126L159.126 237.137Z" fill="#D4463D"/>
<path d="M76.572 237.137H0.568848V239.998H76.572V237.137Z" fill="#D4463D"/>
<path d="M68.6111 80.468V94.3591H41.7656V80.468H68.6111ZM69.3577 79.7219H41.0148V95.1093H69.3577V79.7178V79.7219Z" fill="#D4463D"/>
<path d="M62.7495 81.6755H47.6149V93.143H62.7495V81.6755Z" stroke="#D4463D" stroke-width="0.639717" stroke-linecap="round" stroke-linejoin="round"/>
<path d="M45.7051 81.6755H42.7763V93.143H45.7051V81.6755Z" stroke="#D4463D" stroke-width="0.639717" stroke-linecap="round" stroke-linejoin="round"/>
<path d="M67.5922 81.6755H64.6635V93.143H67.5922V81.6755Z" stroke="#D4463D" stroke-width="0.639717" stroke-linecap="round" stroke-linejoin="round"/>
<path d="M24.8366 98.1226H6.06372V187.323H24.8366V98.1226Z" fill="white"/>
<path d="M24.651 98.3121V187.137H6.25345V98.3121H24.651ZM25.0263 97.937H5.87811V187.508H25.0263V97.9287V97.937Z" fill="#626366"/>
<path d="M58.7606 98.1226H6.06372V116.882H58.7606V98.1226Z" fill="white"/>
<path d="M58.5626 98.3121V116.696H6.24932V98.3121H58.5626ZM58.9379 97.937H5.87811V117.071H58.9503V97.9287L58.9379 97.937Z" fill="#626366"/>
<path d="M24.8366 141.045H6.06372V159.804H24.8366V141.045Z" fill="white"/>
<path d="M24.651 141.23V159.614H6.25345V141.23H24.651ZM25.0263 140.855H5.87811V159.99H25.0263V140.859V140.855Z" fill="#626366"/>
<path d="M19.8783 149.652C19.1954 149.652 18.5279 149.449 17.9601 149.07C17.3923 148.691 16.9498 148.152 16.6885 147.522C16.4272 146.891 16.3588 146.198 16.492 145.528C16.6252 144.859 16.9541 144.244 17.4369 143.762C17.9198 143.279 18.535 142.951 19.2048 142.818C19.8745 142.685 20.5687 142.753 21.1996 143.014C21.8305 143.275 22.3697 143.717 22.7491 144.285C23.1285 144.852 23.331 145.519 23.331 146.202C23.3299 147.116 22.9657 147.993 22.3185 148.64C21.6712 149.287 20.7937 149.651 19.8783 149.652Z" fill="white"/>
<path d="M19.8783 149.652C19.1954 149.652 18.5279 149.449 17.9601 149.07C17.3923 148.691 16.9498 148.152 16.6885 147.522C16.4272 146.891 16.3588 146.198 16.492 145.528C16.6252 144.859 16.9541 144.244 17.4369 143.762C17.9198 143.279 18.535 142.951 19.2048 142.818C19.8745 142.685 20.5687 142.753 21.1996 143.014C21.8305 143.275 22.3697 143.717 22.7491 144.285C23.1285 144.852 23.331 145.519 23.331 146.202C23.3299 147.116 22.9657 147.993 22.3185 148.64C21.6712 149.287 20.7937 149.651 19.8783 149.652" stroke="#626366" stroke-width="0.319858" stroke-linecap="round"/>
<path d="M23.1618 142.92L16.5948 149.479" stroke="#626366" stroke-width="0.319858" stroke-linecap="round"/>
<path d="M16.5948 142.92L23.1618 149.479" stroke="#626366" stroke-width="0.319858" stroke-linecap="round"/>
<path d="M11.0219 149.652C10.3391 149.652 9.67152 149.449 9.10374 149.07C8.53596 148.691 8.09342 148.152 7.8321 147.522C7.57078 146.891 7.5024 146.198 7.63562 145.528C7.76884 144.859 8.0977 144.244 8.58056 143.762C9.06342 143.279 9.67864 142.951 10.3484 142.818C11.0181 142.685 11.7123 142.753 12.3432 143.014C12.9741 143.275 13.5133 143.717 13.8927 144.285C14.2721 144.852 14.4746 145.519 14.4746 146.202C14.4735 147.116 14.1093 147.993 13.4621 148.64C12.8148 149.287 11.9373 149.651 11.0219 149.652Z" fill="white"/>
<path d="M11.0219 149.652C10.3391 149.652 9.67152 149.449 9.10374 149.07C8.53596 148.691 8.09342 148.152 7.8321 147.522C7.57078 146.891 7.5024 146.198 7.63562 145.528C7.76884 144.859 8.0977 144.244 8.58056 143.762C9.06342 143.279 9.67864 142.951 10.3484 142.818C11.0181 142.685 11.7123 142.753 12.3432 143.014C12.9741 143.275 13.5133 143.717 13.8927 144.285C14.2721 144.852 14.4746 145.519 14.4746 146.202C14.4735 147.116 14.1093 147.993 13.4621 148.64C12.8148 149.287 11.9373 149.651 11.0219 149.652" stroke="#626366" stroke-width="0.319858" stroke-linecap="round"/>
<path d="M14.3014 142.92L7.73853 149.479" stroke="#626366" stroke-width="0.319858" stroke-linecap="round"/>
<path d="M7.73853 142.92L14.3014 149.479" stroke="#626366" stroke-width="0.319858" stroke-linecap="round"/>
<path d="M19.8783 158.11C19.1954 158.11 18.5279 157.908 17.9601 157.529C17.3923 157.149 16.9498 156.611 16.6885 155.98C16.4272 155.35 16.3588 154.656 16.492 153.987C16.6252 153.317 16.9541 152.703 17.4369 152.22C17.9198 151.738 18.535 151.409 19.2048 151.276C19.8745 151.143 20.5687 151.211 21.1996 151.472C21.8305 151.733 22.3697 152.176 22.7491 152.743C23.1285 153.31 23.331 153.977 23.331 154.66C23.3299 155.575 22.9657 156.451 22.3185 157.098C21.6712 157.745 20.7937 158.109 19.8783 158.11Z" fill="white"/>
<path d="M19.8783 158.11C19.1954 158.11 18.5279 157.908 17.9601 157.529C17.3923 157.149 16.9498 156.611 16.6885 155.98C16.4272 155.35 16.3588 154.656 16.492 153.987C16.6252 153.317 16.9541 152.703 17.4369 152.22C17.9198 151.738 18.535 151.409 19.2048 151.276C19.8745 151.143 20.5687 151.211 21.1996 151.472C21.8305 151.733 22.3697 152.176 22.7491 152.743C23.1285 153.31 23.331 153.977 23.331 154.66C23.3299 155.575 22.9657 156.451 22.3185 157.098C21.6712 157.745 20.7937 158.109 19.8783 158.11" stroke="#626366" stroke-width="0.319858" stroke-linecap="round"/>
<path d="M23.1618 151.366L16.5948 157.925" stroke="#626366" stroke-width="0.319858" stroke-linecap="round"/>
<path d="M16.5948 151.366L23.1618 157.925" stroke="#626366" stroke-width="0.319858" stroke-linecap="round"/>
<path d="M11.0219 158.11C10.3391 158.11 9.67152 157.908 9.10374 157.529C8.53596 157.149 8.09342 156.611 7.8321 155.98C7.57078 155.35 7.5024 154.656 7.63562 153.987C7.76884 153.317 8.0977 152.703 8.58056 152.22C9.06342 151.738 9.67864 151.409 10.3484 151.276C11.0181 151.143 11.7123 151.211 12.3432 151.472C12.9741 151.733 13.5133 152.176 13.8927 152.743C14.2721 153.31 14.4746 153.977 14.4746 154.66C14.4735 155.575 14.1093 156.451 13.4621 157.098C12.8148 157.745 11.9373 158.109 11.0219 158.11Z" fill="white"/>
<path d="M11.0219 158.11C10.3391 158.11 9.67152 157.908 9.10374 157.529C8.53596 157.149 8.09342 156.611 7.8321 155.98C7.57078 155.35 7.5024 154.656 7.63562 153.987C7.76884 153.317 8.0977 152.703 8.58056 152.22C9.06342 151.738 9.67864 151.409 10.3484 151.276C11.0181 151.143 11.7123 151.211 12.3432 151.472C12.9741 151.733 13.5133 152.176 13.8927 152.743C14.2721 153.31 14.4746 153.977 14.4746 154.66C14.4735 155.575 14.1093 156.451 13.4621 157.098C12.8148 157.745 11.9373 158.109 11.0219 158.11" stroke="#626366" stroke-width="0.319858" stroke-linecap="round"/>
<path d="M14.3014 151.366L7.73853 157.925" stroke="#626366" stroke-width="0.319858" stroke-linecap="round"/>
<path d="M7.73853 151.366L14.3014 157.925" stroke="#626366" stroke-width="0.319858" stroke-linecap="round"/>
<path d="M69.168 98.1226H50.3951V116.882H69.168V98.1226Z" fill="white"/>
<path d="M68.9824 98.3121V116.696H50.5849V98.3121H68.9824ZM69.3577 97.937H50.2095V117.071H69.3577V97.9287V97.937Z" fill="#626366"/>
<path d="M63.0672 104.223L56.5002 110.781" stroke="#626366" stroke-width="0.319858" stroke-linecap="round"/>
<path d="M56.5002 104.223L63.0631 110.781" stroke="#626366" stroke-width="0.319858" stroke-linecap="round"/>
<path d="M59.7836 112.129V102.879" stroke="#626366" stroke-width="0.319858" stroke-linecap="round"/>
<path d="M55.1554 107.504H64.4119" stroke="#626366" stroke-width="0.319858" stroke-linecap="round"/>
<path d="M24.8366 98.1226H6.06372V116.882H24.8366V98.1226Z" fill="white"/>
<path d="M24.651 98.3121V116.696H6.25345V98.3121H24.651ZM25.0263 97.937H5.87811V117.071H25.0263V97.9287V97.937Z" fill="#626366"/>
<path d="M12.6184 114.99C12.5318 114.99 10.4775 114.957 10.4775 112.85V106.869C10.4775 106.783 10.5106 104.73 12.6184 104.73H21.2355C21.3221 104.73 23.3764 104.763 23.3764 106.869V112.85C23.3764 112.937 23.3434 114.99 21.2355 114.99H12.6184Z" fill="white"/>
<path d="M21.2355 104.916C21.3139 104.916 23.1908 104.936 23.1908 106.869V112.85C23.1908 112.929 23.1701 114.804 21.2355 114.804H12.6184C12.5401 114.804 10.6631 114.784 10.6631 112.85V106.869C10.6631 106.791 10.6838 104.916 12.6184 104.916H21.2355ZM21.2355 104.541H12.6184C10.2878 104.541 10.2878 106.869 10.2878 106.869V112.85C10.2878 115.179 12.6184 115.179 12.6184 115.179H21.2355C23.5661 115.179 23.5661 112.85 23.5661 112.85V106.869C23.5661 104.541 21.2355 104.541 21.2355 104.541Z" fill="#626366"/>
<path d="M14.0786 106.948C14.0802 107.087 14.0405 107.223 13.9645 107.339C13.8884 107.455 13.7795 107.547 13.6515 107.601C13.5235 107.655 13.3823 107.67 13.2457 107.644C13.1092 107.618 12.9834 107.552 12.8845 107.454C12.7856 107.357 12.7179 107.232 12.6902 107.096C12.6625 106.96 12.676 106.818 12.7288 106.69C12.7816 106.561 12.8714 106.451 12.9869 106.374C13.1024 106.296 13.2383 106.255 13.3773 106.255C13.4689 106.255 13.5596 106.272 13.6444 106.307C13.7292 106.341 13.8064 106.392 13.8715 106.456C13.9366 106.521 13.9885 106.597 14.024 106.681C14.0595 106.766 14.078 106.856 14.0786 106.948Z" fill="white" stroke="#626366" stroke-width="0.319858"/>
<path d="M159.126 83.5718H153.421V158.089H159.126V83.5718Z" fill="white" stroke="#626366" stroke-width="0.319858" stroke-linejoin="round"/>
<path d="M153.421 89.2684V83.5718H116.634V89.2684H153.421Z" fill="white" stroke="#626366" stroke-width="0.319858" stroke-linejoin="round"/>
<path d="M121.201 89.2683H116.634V105.204H121.201V89.2683Z" fill="white" stroke="#626366" stroke-width="0.319858" stroke-linejoin="round"/>
<path d="M153.409 153.662H137.461V158.089H153.409V153.662Z" fill="white" stroke="#626366" stroke-width="0.319858" stroke-linejoin="round"/>
<path d="M137.313 152.026C137.313 152.026 137.313 153.675 138.963 153.675H151.788C151.788 153.675 153.438 153.675 153.438 152.026V139.202C153.438 139.202 153.438 137.553 151.788 137.553H138.955C138.955 137.553 137.305 137.553 137.305 139.202V152.026H137.313Z" fill="white" stroke="#626366" stroke-width="0.319858" stroke-linejoin="round"/>
<path d="M137.313 135.929C137.313 135.929 137.313 137.578 138.963 137.578H151.788C151.788 137.578 153.438 137.578 153.438 135.929V123.106C153.438 123.106 153.438 121.457 151.788 121.457H138.955C138.955 121.457 137.305 121.457 137.305 123.106V135.929H137.313Z" fill="white" stroke="#626366" stroke-width="0.319858" stroke-linejoin="round"/>
<path d="M137.313 119.829C137.313 119.829 137.313 121.478 138.963 121.478H151.788C151.788 121.478 153.438 121.478 153.438 119.829V106.997C153.438 106.997 153.438 105.348 151.788 105.348H138.955C138.955 105.348 137.305 105.348 137.305 106.997V119.821L137.313 119.829Z" fill="white" stroke="#626366" stroke-width="0.319858" stroke-linejoin="round"/>
<path d="M151.788 105.369C151.788 105.369 153.438 105.369 153.438 103.72V90.9213C153.438 90.9213 153.438 89.2725 151.788 89.2725H138.955C138.955 89.2725 137.305 89.2725 137.305 90.9213V103.745C137.305 103.745 137.305 105.394 138.955 105.394H151.788V105.369Z" fill="white" stroke="#626366" stroke-width="0.319858" stroke-linejoin="round"/>
<path d="M135.675 105.369C135.675 105.369 137.325 105.369 137.325 103.72V90.9213C137.325 90.9213 137.325 89.2725 135.675 89.2725H122.843C122.843 89.2725 121.193 89.2725 121.193 90.9213V103.745C121.193 103.745 121.193 105.394 122.843 105.394H135.675V105.369Z" fill="white" stroke="#626366" stroke-width="0.319858" stroke-linejoin="round"/>
<path d="M158.936 64.3179H103.063V80.5503H158.936V64.3179Z" fill="white"/>
<path d="M158.751 64.5074V80.3647H103.253V64.5074H158.755H158.751ZM159.13 64.1323H102.877V80.7398H159.126V64.1282L159.13 64.1323Z" fill="#626366"/>
<path d="M140.753 74.4868C140.753 74.4868 140.799 75.6286 139.446 75.7234C138.093 75.8182 138.121 74.3961 138.229 74.0292C138.513 73.0812 139.491 73.2873 139.491 72.8421C139.491 72.3969 139.52 71.7126 139.52 71.7126" stroke="#626366" stroke-width="0.319858" stroke-linecap="round" stroke-linejoin="round"/>
<path d="M132.833 69.1653C133.11 70.7399 135.956 71.9806 139.466 71.9806C142.977 71.9806 145.819 70.744 146.099 69.1653H132.837H132.833Z" stroke="#626366" stroke-width="0.319858" stroke-linecap="round" stroke-linejoin="round"/>
<path d="M123.824 74.4868C123.824 74.4868 123.87 75.6286 122.517 75.7234C121.164 75.8182 121.192 74.3961 121.3 74.0292C121.584 73.0812 122.562 73.2873 122.562 72.8421C122.562 72.3969 122.591 71.7126 122.591 71.7126" stroke="#626366" stroke-width="0.319858" stroke-linecap="round" stroke-linejoin="round"/>
<path d="M115.9 69.1653C116.176 70.7399 119.023 71.9806 122.533 71.9806C126.044 71.9806 128.886 70.744 129.166 69.1653H115.9Z" stroke="#626366" stroke-width="0.319858" stroke-linecap="round" stroke-linejoin="round"/>
<path d="M123.7 202.38C123.7 202.38 121.296 202.38 121.296 204.784V213.254C121.296 213.254 121.296 215.657 123.7 215.657H132.437C132.437 215.657 134.842 215.657 134.842 213.254V204.784C134.842 204.784 134.842 202.38 132.437 202.38H123.7Z" fill="white" stroke="#626366" stroke-width="0.319858"/>
<path d="M120.351 201.391C119.949 203.896 119.701 206.424 119.608 208.959C119.622 211.499 119.871 214.033 120.351 216.527H122.554C121.983 214.045 121.706 211.505 121.729 208.959C121.79 206.418 122.066 203.886 122.554 201.391H120.351Z" fill="white" stroke="#626366" stroke-width="0.319858"/>
<path d="M151.148 186.42C151.148 186.42 151.148 184.017 148.743 184.017H140.267C140.267 184.017 137.862 184.017 137.862 186.42V195.15C137.862 195.15 137.862 197.554 140.267 197.554H148.743C148.743 197.554 151.148 197.554 151.148 195.15V186.42Z" fill="white" stroke="#626366" stroke-width="0.319858"/>
<path d="M152.134 183.073C149.627 182.671 147.098 182.424 144.561 182.331C142.019 182.344 139.483 182.593 136.987 183.073V185.274C139.471 184.704 142.013 184.427 144.561 184.45C147.104 184.511 149.637 184.787 152.134 185.274V183.073Z" fill="white" stroke="#626366" stroke-width="0.319858"/>
<path d="M130.202 221.807C130.202 221.807 130.202 224.21 132.606 224.21H156.738C156.738 224.21 159.143 224.21 159.143 221.807V196.119C159.143 196.119 159.143 193.716 156.738 193.716H132.606C132.606 193.716 130.202 193.716 130.202 196.119V221.807Z" fill="white" stroke="#626366" stroke-width="0.319858"/>
<path d="M27.7076 67.0137C27.7076 62.9865 23.1082 59.7178 17.4363 59.7178C11.7645 59.7178 7.16504 62.9824 7.16504 67.0137C7.16504 71.045 11.7645 74.3097 17.4363 74.3097C23.1082 74.3097 27.7076 71.045 27.7076 67.0137Z" fill="white" stroke="#626366" stroke-width="0.319858"/>
<path d="M11.4221 60.6658H9.79276V73.3863H11.4221V60.6658Z" fill="white" stroke="#626366" stroke-width="0.319858" stroke-linecap="round" stroke-linejoin="round"/>
<path d="M10.2671 59.73H5.98126V74.3219H10.2671V59.73Z" fill="white" stroke="#626366" stroke-width="0.319858" stroke-linecap="round" stroke-linejoin="round"/>
<path d="M8.90594 67.0136C8.90839 66.8598 8.86497 66.7088 8.78126 66.5798C8.69755 66.4507 8.5773 66.3495 8.43583 66.2889C8.29436 66.2284 8.13801 66.2112 7.98677 66.2397C7.83553 66.2682 7.69626 66.341 7.58656 66.4489C7.47686 66.5568 7.40178 66.6948 7.37084 66.8455C7.3399 66.9961 7.35452 67.1526 7.41284 67.2949C7.47115 67.4372 7.57046 67.559 7.69824 67.6447C7.82603 67.7304 7.97648 67.7762 8.13038 67.7762C8.33426 67.7773 8.5303 67.6977 8.67562 67.5548C8.82093 67.4119 8.90376 67.2173 8.90594 67.0136Z" fill="white" stroke="#626366" stroke-width="0.319858" stroke-linecap="round" stroke-linejoin="round"/>
<path d="M6.06372 54.9487V23.9553H37.0796V38.403L20.5177 54.9487H6.06372Z" fill="white"/>
<path d="M36.894 24.1449V38.3246L20.4435 54.7631H6.24933V24.1449H36.8898H36.894ZM37.2653 23.7698H5.87399V55.1382H20.6126L37.2817 38.4812V23.7698H37.2653Z" fill="#626366"/>
<path d="M35.6235 25.4102H7.51578V53.4934H19.7052L35.6235 37.5907V25.4102Z" fill="white"/>
<path d="M35.6235 25.4102H7.51578V53.4934H19.7052L35.6235 37.5907V25.4102Z" stroke="#626366" stroke-width="0.319858" stroke-linecap="round" stroke-linejoin="round"/>
<path d="M12.7751 31.927C13.0411 31.927 13.3011 31.8482 13.5223 31.7006C13.7434 31.5529 13.9158 31.3431 14.0175 31.0975C14.1193 30.852 14.1459 30.5818 14.094 30.3211C14.0421 30.0605 13.9141 29.821 13.726 29.6331C13.5379 29.4452 13.2983 29.3172 13.0375 29.2653C12.7766 29.2135 12.5062 29.2401 12.2605 29.3418C12.0148 29.4435 11.8047 29.6157 11.657 29.8367C11.5092 30.0577 11.4304 30.3175 11.4304 30.5833C11.4304 30.9397 11.572 31.2815 11.8242 31.5335C12.0764 31.7855 12.4185 31.927 12.7751 31.927Z" fill="white"/>
<path d="M12.7751 31.927C13.0411 31.927 13.3011 31.8482 13.5223 31.7006C13.7434 31.5529 13.9158 31.3431 14.0175 31.0975C14.1193 30.852 14.1459 30.5818 14.094 30.3211C14.0421 30.0605 13.9141 29.821 13.726 29.6331C13.5379 29.4452 13.2983 29.3172 13.0375 29.2653C12.7766 29.2135 12.5062 29.2401 12.2605 29.3418C12.0148 29.4435 11.8047 29.6157 11.657 29.8367C11.5092 30.0577 11.4304 30.3175 11.4304 30.5833C11.4304 30.9397 11.572 31.2815 11.8242 31.5335C12.0764 31.7855 12.4185 31.927 12.7751 31.927" stroke="#626366" stroke-width="0.319858"/>
<path d="M69.168 67.9617H44.2365V79.627H69.168V67.9617Z" fill="white"/>
<path d="M68.9824 68.1515V79.4416H44.4262V68.1515H68.9824ZM69.3577 67.7764H44.0509V79.8167H69.3577V67.7764Z" fill="#626366"/>
<path d="M64.6635 78.0729H48.7451V73.4316C49.7126 72.2588 50.9278 71.3145 52.3034 70.6661C53.6791 70.0178 55.1813 69.6816 56.7023 69.6816C58.2232 69.6816 59.7254 70.0178 61.1011 70.6661C62.4768 71.3145 63.6919 72.2588 64.6594 73.4316V78.0729H64.6635Z" fill="white" stroke="#626366" stroke-width="0.319858" stroke-linecap="round" stroke-linejoin="round"/>
<path d="M56.7022 76.1893C57.413 76.1893 57.9892 75.6135 57.9892 74.9033C57.9892 74.193 57.413 73.6172 56.7022 73.6172C55.9914 73.6172 55.4152 74.193 55.4152 74.9033C55.4152 75.6135 55.9914 76.1893 56.7022 76.1893Z" fill="white" stroke="#626366" stroke-width="0.319858" stroke-linecap="round" stroke-linejoin="round"/>
<path d="M65.6081 42.3105H54.3758V43.712H65.6081V42.3105Z" fill="white" stroke="#626366" stroke-width="0.319858" stroke-linejoin="round"/>
<path d="M69.168 23.9553H50.82V42.29H69.168V23.9553Z" fill="white"/>
<path d="M68.9824 24.1449V42.1045H51.0097V24.1449H68.9824ZM69.3577 23.7698H50.6344V42.4754H69.3577V23.7698Z" fill="#626366"/>
<path d="M29.9228 215.851V215.126L30.8509 214.223C33.0867 212.096 34.0973 210.966 34.1096 209.647C34.1096 208.761 33.6971 207.937 32.373 207.937C31.6878 207.962 31.0322 208.223 30.5168 208.675L30.1414 207.85C30.8364 207.273 31.7128 206.959 32.6164 206.964C34.5016 206.964 35.2977 208.254 35.2977 209.507C35.2977 211.123 34.1262 212.426 32.2823 214.202L31.581 214.849V214.878H35.5122V215.859H29.9269L29.9228 215.851Z" fill="#231F20"/>
<path d="M36.9271 215.15C36.9195 215.039 36.9354 214.927 36.9738 214.822C37.0122 214.718 37.0723 214.622 37.1502 214.542C37.228 214.462 37.3218 214.399 37.4255 214.358C37.5292 214.316 37.6405 214.297 37.7521 214.301C37.9211 214.296 38.0878 214.342 38.2307 214.432C38.3737 214.522 38.4864 214.653 38.5545 214.808C38.6226 214.962 38.6431 215.134 38.6131 215.3C38.5832 215.467 38.5042 215.62 38.3864 215.741C38.2686 215.863 38.1174 215.946 37.9519 215.981C37.7864 216.016 37.6143 216 37.4576 215.937C37.3009 215.873 37.1667 215.765 37.0722 215.624C36.9777 215.484 36.9272 215.319 36.9271 215.15Z" fill="#231F20"/>
<path d="M43.3001 215.851V213.469H39.2328V212.69L43.1393 207.108H44.4179V212.545H45.6554V213.473H44.4179V215.855H43.3001V215.851ZM43.3001 212.554V209.635C43.3001 209.176 43.3139 208.719 43.3414 208.263H43.3001C43.032 208.774 42.8175 209.149 42.5741 209.553L40.4126 212.521V212.549H43.3001V212.554Z" fill="#231F20"/>
<path d="M52.2061 207.108V207.887L48.3946 215.851H47.1571L50.9521 208.114V208.089H46.6703V207.108H52.1896H52.2061Z" fill="#231F20"/>
<path d="M32.4967 224.355H32.4678L30.9457 225.179L30.7188 224.276L32.6287 223.254H33.6394V231.997H32.4967V224.355Z" fill="#231F20"/>
<path d="M36.9271 231.296C36.9195 231.185 36.9354 231.073 36.9738 230.968C37.0122 230.864 37.0723 230.768 37.1502 230.688C37.228 230.608 37.3218 230.545 37.4255 230.504C37.5292 230.462 37.6405 230.443 37.7521 230.447C37.9211 230.442 38.0878 230.488 38.2307 230.578C38.3737 230.668 38.4864 230.799 38.5545 230.954C38.6226 231.108 38.6431 231.28 38.6131 231.446C38.5832 231.613 38.5042 231.766 38.3864 231.887C38.2686 232.009 38.1174 232.092 37.9519 232.127C37.7864 232.162 37.6143 232.146 37.4576 232.083C37.3009 232.019 37.1667 231.911 37.0722 231.77C36.9777 231.63 36.9272 231.465 36.9271 231.296Z" fill="#231F20"/>
<path d="M39.6207 231.997V231.271L40.5488 230.369C42.7846 228.242 43.7952 227.112 43.8075 225.793C43.8075 224.907 43.395 224.083 42.0709 224.083C41.3857 224.108 40.7301 224.369 40.2147 224.821L39.8393 223.996C40.5343 223.419 41.4107 223.105 42.3143 223.11C44.1995 223.11 44.9956 224.4 44.9956 225.653C44.9956 227.269 43.8241 228.572 41.9802 230.348L41.279 230.995V231.024H45.21V232.005H39.6248L39.6207 231.997Z" fill="#231F20"/>
<path d="M50.1889 231.997V229.614H46.1217V228.835L50.028 223.254H51.3067V228.691H52.5442V229.619H51.3067V232.001H50.1889V231.997ZM50.1889 228.699V225.781C50.1889 225.322 50.2027 224.865 50.2302 224.408H50.1889C49.9207 224.919 49.7062 225.295 49.4629 225.698L47.322 228.67V228.699H50.2095H50.1889Z" fill="#231F20"/>
<path d="M27.6458 219.305H54.4995" stroke="#231F20" stroke-width="0.528802" stroke-linecap="round" stroke-linejoin="round"/>
<path d="M121.122 59.182V56.7995H117.055V56.0204L120.961 50.4392H122.24V55.8844H123.478V56.8118H122.24V59.182H121.122ZM121.122 55.8844V52.966C121.122 52.5071 121.136 52.0495 121.164 51.5934H121.122C120.854 52.1045 120.64 52.4796 120.396 52.8836L118.255 55.8555V55.8844H121.143H121.122Z" fill="#231F20"/>
<path d="M124.459 58.4769C124.452 58.3656 124.468 58.2538 124.506 58.149C124.545 58.0442 124.605 57.9487 124.683 57.8686C124.76 57.7885 124.854 57.7257 124.958 57.6842C125.062 57.6427 125.173 57.6235 125.284 57.6278C125.454 57.6229 125.62 57.6685 125.763 57.7587C125.906 57.849 126.019 57.9798 126.087 58.1345C126.155 58.2891 126.175 58.4606 126.146 58.6269C126.116 58.7932 126.037 58.9468 125.919 59.0681C125.801 59.1893 125.65 59.2727 125.484 59.3075C125.319 59.3423 125.147 59.327 124.99 59.2635C124.833 59.2 124.699 59.0913 124.605 58.9511C124.51 58.811 124.46 58.6459 124.459 58.4769Z" fill="#231F20"/>
<path d="M127.45 57.8174C128.038 58.1656 128.706 58.3559 129.389 58.3698C130.911 58.3698 131.381 57.4011 131.369 56.6756C131.369 55.439 130.251 54.9279 129.108 54.9279H128.448V54.0417H129.108C129.971 54.0417 131.06 53.5965 131.06 52.5619C131.06 51.8611 130.614 51.2428 129.525 51.2428C128.898 51.2608 128.29 51.4614 127.776 51.8199L127.45 50.9378C128.131 50.4954 128.927 50.2618 129.74 50.2659C131.464 50.2659 132.243 51.2882 132.243 52.3517C132.243 53.2544 131.707 54.0005 130.626 54.4127V54.4415C131.167 54.5205 131.661 54.7907 132.019 55.2029C132.377 55.6152 132.575 56.1421 132.577 56.688C132.577 58.0854 131.488 59.3137 129.385 59.3137C128.586 59.3238 127.8 59.1187 127.108 58.7202L127.45 57.8174Z" fill="#231F20"/>
<path d="M134.05 59.1818V58.4563L134.978 57.5536C137.214 55.4266 138.225 54.2972 138.237 52.9782C138.237 52.0919 137.824 51.2675 136.5 51.2675C135.815 51.2929 135.16 51.5535 134.644 52.0054L134.269 51.181C134.964 50.6038 135.84 50.29 136.744 50.2947C138.629 50.2947 139.425 51.5849 139.425 52.838C139.425 54.4538 138.253 55.7564 136.41 57.533L135.708 58.1801V58.209H139.639V59.1818H134.05Z" fill="#231F20"/>
<path d="M41.778 59.3673V56.9848H37.7107V56.2057L41.6171 50.6245H42.8958V56.0614H44.1333V56.9889H42.8958V59.3714H41.778V59.3673ZM41.778 56.0697V53.1513C41.778 52.6924 41.7917 52.2348 41.8192 51.7787H41.778C41.5099 52.2898 41.2954 52.6649 41.052 53.0689L38.9111 56.0408V56.0697H41.7986H41.778Z" fill="#231F20"/>
<path d="M45.1151 58.6666C45.1075 58.5553 45.1235 58.4435 45.162 58.3387C45.2004 58.2339 45.2604 58.1384 45.3382 58.0583C45.416 57.9782 45.5098 57.9154 45.6135 57.8739C45.7172 57.8324 45.8285 57.8132 45.9401 57.8175C46.1092 57.8126 46.2758 57.8582 46.4188 57.9484C46.5617 58.0387 46.6745 58.1695 46.7427 58.3242C46.8108 58.4788 46.8312 58.6503 46.8013 58.8166C46.7713 58.9829 46.6924 59.1365 46.5746 59.2577C46.4568 59.379 46.3055 59.4624 46.14 59.4972C45.9746 59.532 45.8025 59.5167 45.6458 59.4532C45.489 59.3897 45.3548 59.281 45.2602 59.1408C45.1657 59.0007 45.1152 58.8356 45.1151 58.6666Z" fill="#231F20"/>
<path d="M47.8087 59.3673V58.6418L48.7369 57.7391C50.9726 55.6122 51.9833 54.4827 51.9957 53.1637C51.9957 52.2775 51.5832 51.4531 50.2591 51.4531C49.5738 51.4785 48.9183 51.739 48.4028 52.1909L48.0274 51.3665C48.7223 50.7893 49.5987 50.4755 50.5024 50.4803C52.3875 50.4803 53.1836 51.7705 53.1836 53.0236C53.1836 54.6394 52.0121 55.9419 50.1682 57.7185L49.467 58.3657V58.3945H53.3981V59.3756H47.8129L47.8087 59.3673Z" fill="#231F20"/>
<path d="M54.6067 57.1457C54.6067 56.041 55.2668 55.2619 56.3434 54.8044V54.7631C55.944 54.6087 55.5992 54.3396 55.3525 53.9897C55.1059 53.6398 54.9684 53.2248 54.9574 52.797C54.9574 51.412 56.1289 50.468 57.6634 50.468C59.3588 50.468 60.2085 51.5315 60.2085 52.6197C60.2085 53.3575 59.8455 54.1531 58.7689 54.6807V54.7219C59.8579 55.1341 60.5344 55.9214 60.5344 56.9808C60.5344 58.5018 59.2268 59.5241 57.5603 59.5241C55.7123 59.5158 54.6067 58.4235 54.6067 57.1457ZM59.3175 57.0921C59.3175 56.0286 58.5791 55.5175 57.3911 55.1836C56.3681 55.4804 55.8154 56.1523 55.8154 56.9849C55.81 57.2114 55.8523 57.4365 55.9397 57.6457C56.027 57.8548 56.1573 58.0432 56.3223 58.1987C56.4872 58.3541 56.683 58.4732 56.897 58.5482C57.111 58.6231 57.3384 58.6523 57.5644 58.6337C58.6328 58.6543 59.3216 57.9948 59.3216 57.0921H59.3175ZM56.0587 52.7186C56.0587 53.5925 56.7187 54.0624 57.7087 54.3345C58.4636 54.0789 59.0411 53.5389 59.0411 52.7475C59.0513 52.5529 59.0196 52.3583 58.948 52.177C58.8765 51.9957 58.7668 51.8319 58.6263 51.6967C58.4859 51.5614 58.318 51.4579 58.1341 51.3932C57.9501 51.3284 57.7545 51.3039 57.5603 51.3213C57.3682 51.3064 57.1751 51.3316 56.9933 51.3953C56.8115 51.4589 56.6449 51.5596 56.5041 51.691C56.3633 51.8224 56.2514 51.9816 56.1754 52.1585C56.0995 52.3354 56.0611 52.5261 56.0628 52.7186H56.0587Z" fill="#231F20"/>
<path d="M44.1251 148.72H44.0962L42.5741 149.545L42.3472 148.642L44.2572 147.62H45.2678V156.362H44.1251V148.72Z" fill="#231F20"/>
<path d="M49.137 155.526C49.4566 155.543 49.7771 155.529 50.094 155.484C50.7783 155.399 51.4188 155.102 51.9255 154.635C52.5714 154.017 52.9814 153.194 53.0847 152.306H53.0435C52.7951 152.611 52.4798 152.855 52.1222 153.018C51.7646 153.182 51.3742 153.261 50.981 153.25C50.6312 153.258 50.2835 153.193 49.9601 153.059C49.6366 152.926 49.3444 152.727 49.1015 152.476C48.8586 152.224 48.6703 151.925 48.5487 151.597C48.427 151.269 48.3746 150.92 48.3946 150.571C48.3796 150.169 48.4459 149.768 48.5894 149.392C48.7328 149.016 48.9506 148.673 49.2297 148.383C49.5088 148.092 49.8434 147.862 50.2138 147.704C50.5841 147.546 50.9825 147.464 51.3852 147.463C53.1755 147.463 54.2727 148.918 54.2727 151.148C54.2727 153.073 53.625 154.417 52.7629 155.27C52.066 155.929 51.1717 156.34 50.2178 156.441C49.8579 156.499 49.493 156.521 49.1288 156.507V155.538L49.137 155.526ZM49.5495 150.493C49.5495 151.581 50.2095 152.347 51.2325 152.347C51.5749 152.359 51.9143 152.28 52.2169 152.12C52.5194 151.959 52.7745 151.722 52.9568 151.432C53.0299 151.308 53.0671 151.165 53.064 151.02C53.064 149.528 52.5113 148.382 51.2738 148.382C50.2797 148.37 49.566 149.256 49.566 150.497L49.5495 150.493Z" fill="#231F20"/>
<path d="M55.4524 155.661C55.4448 155.55 55.4607 155.438 55.4991 155.334C55.5375 155.229 55.5976 155.133 55.6754 155.053C55.7533 154.973 55.8471 154.91 55.9508 154.869C56.0545 154.827 56.1658 154.808 56.2774 154.812C56.4464 154.807 56.6131 154.853 56.756 154.943C56.899 155.034 57.0118 155.164 57.0799 155.319C57.148 155.474 57.1684 155.645 57.1384 155.811C57.1085 155.978 57.0296 156.131 56.9118 156.253C56.794 156.374 56.6428 156.457 56.4773 156.492C56.3118 156.527 56.1396 156.512 55.9829 156.448C55.8262 156.385 55.692 156.276 55.5975 156.136C55.503 155.996 55.4525 155.83 55.4524 155.661Z" fill="#231F20"/>
<path d="M60.7158 148.72H60.6869L59.1648 149.545L58.9379 148.642L60.8479 147.62H61.8626V156.362H60.72V148.72H60.7158Z" fill="#231F20"/>
<path d="M65.0513 156.362V155.637L65.9794 154.734C68.2151 152.607 69.2257 151.478 69.2381 150.159C69.2381 149.272 68.8256 148.448 67.5015 148.448C66.8163 148.473 66.1607 148.734 65.6452 149.186L65.2699 148.361C65.9649 147.784 66.8413 147.47 67.7449 147.475C69.63 147.475 70.4262 148.765 70.4262 150.018C70.4262 151.634 69.2546 152.937 67.4108 154.713L66.7095 155.361V155.389H70.6407V156.37H65.0554L65.0513 156.362Z" fill="#231F20"/>
<path d="M105.294 172.846C109.338 172.846 113.292 171.648 116.654 169.403C120.017 167.158 122.638 163.966 124.185 160.233C125.733 156.499 126.138 152.391 125.349 148.427C124.56 144.464 122.612 140.823 119.753 137.965C116.893 135.108 113.25 133.162 109.283 132.373C105.317 131.585 101.205 131.99 97.4691 133.536C93.7328 135.083 90.5393 137.702 88.2925 141.062C86.0457 144.422 84.8465 148.372 84.8465 152.413C84.8476 157.832 87.0022 163.029 90.8367 166.86C94.6711 170.692 99.8714 172.845 105.294 172.846Z" fill="white"/>
<path d="M105.291 172.846C116.584 172.846 125.738 163.698 125.738 152.413C125.738 141.129 116.584 131.981 105.291 131.981C93.9977 131.981 84.843 141.129 84.843 152.413C84.843 163.698 93.9977 172.846 105.291 172.846Z" stroke="#231F20" stroke-width="1.27943" stroke-miterlimit="10"/>
<path d="M89.0876 156.651V155.826L90.1189 154.825C92.5939 152.463 93.7242 151.206 93.7407 149.742C93.7407 148.757 93.2622 147.842 91.8102 147.842C91.048 147.871 90.3192 148.162 89.7477 148.667L89.3352 147.739C90.1076 147.097 91.0819 146.748 92.0865 146.754C94.182 146.754 95.0648 148.188 95.0648 149.582C95.0648 151.375 93.7613 152.826 91.7153 154.8L90.9356 155.517V155.546H95.2752V156.639H89.0876V156.651Z" fill="#231F20"/>
<path d="M96.624 154.182C96.624 152.945 97.3582 152.088 98.5544 151.581V151.536C98.11 151.365 97.7262 151.066 97.4516 150.677C97.177 150.288 97.0239 149.827 97.0117 149.351C97.0117 147.809 98.3152 146.766 100.019 146.766C101.904 146.766 102.849 147.949 102.849 149.157C102.849 149.982 102.436 150.86 101.248 151.428V151.474C102.461 151.952 103.207 152.805 103.207 153.984C103.207 155.674 101.755 156.812 99.9074 156.812C97.8532 156.816 96.624 155.604 96.624 154.182ZM101.859 154.12C101.859 152.937 101.034 152.372 99.7177 151.997C98.5792 152.327 97.9687 153.073 97.9687 154C97.9687 154.928 98.6699 155.855 99.9116 155.855C101.153 155.855 101.875 155.126 101.875 154.124L101.859 154.12ZM98.2368 149.26C98.2368 150.233 98.971 150.756 100.093 151.053C100.918 150.769 101.574 150.171 101.574 149.289C101.585 149.073 101.549 148.856 101.469 148.655C101.389 148.453 101.267 148.271 101.11 148.121C100.954 147.971 100.767 147.857 100.562 147.785C100.358 147.713 100.14 147.686 99.924 147.706C99.7086 147.687 99.4917 147.713 99.2872 147.783C99.0826 147.853 98.895 147.965 98.7364 148.112C98.5778 148.259 98.4519 148.437 98.3665 148.636C98.2812 148.834 98.2384 149.048 98.2409 149.264L98.2368 149.26Z" fill="#231F20"/>
<path d="M104.523 155.872C104.515 155.749 104.532 155.627 104.573 155.511C104.615 155.396 104.68 155.29 104.764 155.202C104.849 155.113 104.951 155.042 105.065 154.995C105.178 154.948 105.3 154.925 105.423 154.928C105.611 154.919 105.798 154.966 105.959 155.064C106.12 155.162 106.248 155.307 106.327 155.478C106.405 155.65 106.431 155.841 106.4 156.027C106.368 156.213 106.282 156.385 106.152 156.522C106.022 156.658 105.854 156.753 105.67 156.793C105.485 156.833 105.293 156.817 105.118 156.747C104.943 156.677 104.792 156.557 104.686 156.401C104.58 156.245 104.524 156.06 104.523 155.872Z" fill="#231F20"/>
<path d="M108.281 155.723C108.635 155.743 108.99 155.727 109.341 155.678C110.101 155.583 110.812 155.253 111.375 154.734C112.091 154.048 112.547 153.134 112.662 152.15H112.6C112.324 152.488 111.974 152.758 111.577 152.939C111.18 153.121 110.747 153.209 110.311 153.197C108.562 153.197 107.423 151.882 107.423 150.221C107.407 149.774 107.48 149.329 107.639 148.911C107.799 148.493 108.04 148.112 108.35 147.79C108.66 147.467 109.032 147.211 109.443 147.035C109.854 146.859 110.297 146.768 110.744 146.766C112.732 146.766 113.961 148.382 113.961 150.864C113.961 153.003 113.244 154.495 112.287 155.423C111.513 156.155 110.52 156.612 109.461 156.725C109.06 156.79 108.654 156.815 108.248 156.799V155.723H108.281ZM108.76 150.134C108.76 151.346 109.494 152.195 110.628 152.195C111.009 152.207 111.385 152.12 111.721 151.941C112.057 151.762 112.34 151.499 112.542 151.177C112.627 151.032 112.669 150.866 112.662 150.699C112.662 149.05 112.047 147.768 110.674 147.768C109.552 147.768 108.76 148.757 108.76 150.13V150.134Z" fill="#231F20"/>
<path d="M120.743 147.858C120.413 147.845 120.083 147.866 119.757 147.92C118.89 148.04 118.087 148.445 117.475 149.07C116.863 149.695 116.476 150.506 116.374 151.375H116.42C116.696 151.017 117.052 150.73 117.46 150.535C117.868 150.34 118.315 150.244 118.767 150.253C120.487 150.253 121.7 151.49 121.7 153.394C121.7 155.175 120.487 156.82 118.47 156.82C116.453 156.82 115.03 155.204 115.03 152.698C115.003 151.895 115.135 151.095 115.418 150.343C115.701 149.591 116.13 148.902 116.68 148.316C117.529 147.507 118.623 147.002 119.79 146.882C120.107 146.833 120.427 146.808 120.747 146.807V147.883L120.743 147.858ZM120.368 153.464C120.368 152.075 119.575 151.239 118.363 151.239C117.97 151.248 117.587 151.365 117.255 151.575C116.923 151.786 116.654 152.083 116.478 152.434C116.376 152.612 116.324 152.814 116.329 153.019C116.358 154.619 117.092 155.802 118.47 155.802C119.613 155.797 120.368 154.854 120.368 153.464Z" fill="#231F20"/>
</g>
<defs>
<clipPath id="clip0">
<rect width="165" height="240" fill="white"/>
</clipPath>
</defs>
</svg>
