<svg width="181" height="453" viewBox="0 0 181 453" fill="none" xmlns="http://www.w3.org/2000/svg">
<g clip-path="url(#clip0)">
<path d="M154.882 441.206H109.057V452.826H154.882V441.206Z" fill="white"/>
<path d="M154.71 441.378V452.654H109.234V441.378H154.71ZM155.054 441.034H108.899V452.998H155.054V441.034Z" fill="#D4463D"/>
<path d="M154.882 445.781H109.057V448.247H154.882V445.781Z" fill="white"/>
<path d="M154.71 445.953V448.093H109.234V445.971H154.71V445.953ZM155.054 445.627H108.899V448.441H155.054V445.627Z" fill="#D4463D"/>
<path d="M154.882 37.8352H109.057V49.4552H154.882V37.8352Z" fill="white"/>
<path d="M154.71 38.0116V49.2878H109.234V38.0116H154.71ZM155.054 37.6677H108.899V49.6316H155.054V37.6813V37.6677Z" fill="#D4463D"/>
<path d="M154.882 42.4143H109.057V44.8804H154.882V42.4143Z" fill="white"/>
<path d="M154.71 42.5863V44.7085H109.234V42.5863H154.71ZM155.054 42.2424H108.899V45.0569H155.054V42.2424Z" fill="#D4463D"/>
<path d="M79.2644 37.8352H42.7703V49.4552H79.2644V37.8352Z" fill="white"/>
<path d="M79.0924 38.0116V49.2878H42.9422V38.0116H79.0924ZM79.4363 37.6677H42.5938V49.6316H79.4363V37.6813V37.6677Z" fill="#D4463D"/>
<path d="M79.2644 42.4143H42.7703V44.8804H79.2644V42.4143Z" fill="white"/>
<path d="M79.0924 42.5863V44.7085H42.9422V42.5863H79.0924ZM79.4363 42.2424H42.5938V45.0569H79.4363V42.2424Z" fill="#D4463D"/>
<path d="M36.5348 210.09L17.3081 229.425" stroke="#585852" stroke-width="1.07902" stroke-miterlimit="10" stroke-linecap="round"/>
<path d="M95.5364 305.747L111.365 321.978" stroke="#585852" stroke-width="1.07902" stroke-miterlimit="10" stroke-linecap="round"/>
<path d="M122.265 282.679L108.166 268.118" stroke="#585852" stroke-width="1.07902" stroke-miterlimit="10" stroke-linecap="round"/>
<path d="M122.265 220.887L108.681 235.995" stroke="#585852" stroke-width="1.07902" stroke-miterlimit="10" stroke-linecap="round"/>
<path d="M93.8938 202.321L109.55 184.529" stroke="#585852" stroke-width="1.07902" stroke-miterlimit="10" stroke-linecap="round"/>
<path d="M76.6353 202.321L61.282 184.529" stroke="#585852" stroke-width="1.07902" stroke-miterlimit="10" stroke-linecap="round"/>
<path d="M79.0109 43.6453L64.5942 57.6318" stroke="#585852" stroke-width="1.07902" stroke-miterlimit="10" stroke-linecap="round"/>
<path d="M85.1605 452.998H108.885V441.034H85.1605V452.998Z" fill="#D4463D"/>
<path d="M155.058 452.998H178.783V441.034H155.058V452.998Z" fill="#D4463D"/>
<path d="M155.054 49.6316H181V37.6677H155.054V49.6316Z" fill="#D4463D"/>
<path d="M79.0156 49.6316L109.464 49.6316V37.6677H79.0156V49.6316Z" fill="#D4463D"/>
<path d="M1.94128 49.6316L42.5984 49.6316V37.6677L1.94128 37.6677V49.6316Z" fill="#D4463D"/>
<path d="M0.280547 43.6453H4.38928L4.38928 1.74891H0.280547L0.280547 43.6453Z" fill="#D4463D"/>
<path d="M170.018 40.8488L170.018 452.998H181L181 40.8488H170.018Z" fill="#D4463D"/>
<path d="M88.3415 46.6995H85.717V202.316H88.3415V46.6995Z" fill="#D4463D"/>
<path d="M123.578 282.679H120.953V305.747H123.578V282.679Z" fill="#D4463D"/>
<path d="M123.578 240.294H120.953V263.362H123.578V240.294Z" fill="#D4463D"/>
<path d="M172.09 251.15V248.525H122.035V251.15H172.09Z" fill="#D4463D"/>
<path d="M172.09 217.584V214.959H149.714V217.584H172.09Z" fill="#D4463D"/>
<path d="M172.09 305.34V300.657H122.035V305.34H172.09Z" fill="#D4463D"/>
<path d="M123.578 201.484H120.953V220.891H123.578V201.484Z" fill="#D4463D"/>
<path d="M172.149 203.633V201.009H117.451V203.633H172.149Z" fill="#D4463D"/>
<path d="M93.8938 203.629V201.004H76.6355V203.629H93.8938Z" fill="#D4463D"/>
<path d="M54.1008 203.633V201.009H36.8425V203.633H54.1008Z" fill="#D4463D"/>
<path d="M95.5364 307.06V304.435H88.3416V307.06H95.5364Z" fill="#D4463D"/>
<path d="M171.511 307.06V304.435H118.27V307.06H171.511Z" fill="#D4463D"/>
<path d="M90.3416 255.466V250.647H33.8198V255.466H90.3416Z" fill="#D4463D"/>
<path d="M4.1008e-05 204.507H5.43457L5.43457 37.6678H4.1008e-05L4.1008e-05 204.507Z" fill="#D4463D"/>
<path d="M84.907 452.998H90.3416L90.3416 250.878H84.907L84.907 452.998Z" fill="#D4463D"/>
<path d="M33.8199 252.303H39.2544V235.177H33.8199V252.303Z" fill="#D4463D"/>
<path d="M33.8199 210.09H39.2544V201.529H33.8199V210.09Z" fill="#D4463D"/>
<path d="M0 201.009L0 205.81H36.8426V201.009H0Z" fill="#D4463D"/>
<path d="M95.3418 36.3239V37.6814H92.6901V36.3239C92.6805 27.3929 89.1288 18.8305 82.814 12.5149C76.4992 6.1994 67.9371 2.64652 59.006 2.63574H57.6802V-0.0158691H59.006C68.6403 -0.00508804 77.8769 3.82716 84.689 10.64C91.5011 17.4528 95.3322 26.6897 95.3418 36.3239Z" fill="#D4463D"/>
<path d="M57.6801 0.00219727H0.280518V2.65381H57.6801V0.00219727Z" fill="#D4463D"/>
<path d="M149.022 204.326V216.896H124.27V204.326H149.022ZM149.714 203.633H123.578V217.588H149.732V203.633H149.714Z" fill="#D4463D"/>
<path d="M143.628 205.407H129.668V215.81H143.628V205.407Z" stroke="#D4463D" stroke-width="0.53951" stroke-linecap="round" stroke-linejoin="round"/>
<path d="M127.908 205.407H125.207V215.81H127.908V205.407Z" stroke="#D4463D" stroke-width="0.53951" stroke-linecap="round" stroke-linejoin="round"/>
<path d="M148.09 205.407H145.388V215.81H148.09V205.407Z" stroke="#D4463D" stroke-width="0.53951" stroke-linecap="round" stroke-linejoin="round"/>
<path d="M99.1067 73.2292C99.1067 73.2292 96.8804 73.2292 96.8804 75.4555V83.2972C96.8804 83.2972 96.8804 85.5235 99.1067 85.5235H107.197C107.197 85.5235 109.424 85.5235 109.424 83.2972V75.4555C109.424 75.4555 109.424 73.2292 107.197 73.2292H99.1157H99.1067Z" fill="white" stroke="#626366" stroke-width="0.269755"/>
<path d="M96.0069 72.3197C95.6355 74.6339 95.4058 76.9686 95.3191 79.3108C95.3318 81.6633 95.5621 84.0097 96.0069 86.3199H98.0477C97.5206 84.0213 97.2654 81.6688 97.2875 79.3108C97.3436 76.9587 97.5979 74.6155 98.0477 72.3062H96.0069V72.3197Z" fill="white" stroke="#626366" stroke-width="0.269755"/>
<path d="M159.882 85.4192C159.882 85.4192 162.108 85.4192 162.108 83.193V75.3513C162.108 75.3513 162.108 73.125 159.882 73.125H151.8C151.8 73.125 149.574 73.125 149.574 75.3513V83.193C149.574 83.193 149.574 85.4192 151.8 85.4192H159.882Z" fill="white" stroke="#626366" stroke-width="0.269755"/>
<path d="M162.986 86.3288C163.357 84.0056 163.585 81.6618 163.669 79.3106C163.657 76.9581 163.426 74.6117 162.981 72.3015H160.941C161.469 74.5999 161.726 76.9524 161.705 79.3106C161.649 81.6627 161.395 84.0059 160.945 86.3152H162.986V86.3288Z" fill="white" stroke="#626366" stroke-width="0.269755"/>
<path d="M134.492 100.193C134.492 100.193 134.492 102.42 136.718 102.42H144.56C144.56 102.42 146.786 102.42 146.786 100.193V92.1118C146.786 92.1118 146.786 89.8855 144.56 89.8855H136.718C136.718 89.8855 134.492 89.8855 134.492 92.1118V100.193Z" fill="white" stroke="#626366" stroke-width="0.269755"/>
<path d="M133.583 103.293C135.901 103.665 138.24 103.894 140.587 103.981C142.94 103.968 145.286 103.738 147.596 103.293V101.257C145.298 101.784 142.945 102.039 140.587 102.017C138.235 101.961 135.892 101.706 133.583 101.257V103.293Z" fill="white" stroke="#626366" stroke-width="0.269755"/>
<path d="M113.387 100.193C113.387 100.193 113.387 102.42 115.614 102.42H123.456C123.456 102.42 125.682 102.42 125.682 100.193V92.1118C125.682 92.1118 125.682 89.8855 123.456 89.8855H115.614C115.614 89.8855 113.387 89.8855 113.387 92.1118V100.193Z" fill="white" stroke="#626366" stroke-width="0.269755"/>
<path d="M112.473 103.293C114.792 103.665 117.131 103.894 119.478 103.981C121.831 103.968 124.177 103.738 126.487 103.293V101.257C124.189 101.784 121.836 102.039 119.478 102.017C117.126 101.961 114.783 101.706 112.473 101.257V103.293Z" fill="white" stroke="#626366" stroke-width="0.269755"/>
<path d="M125.578 59.0932C125.578 59.0932 125.578 56.8669 123.352 56.8669H115.51C115.51 56.8669 113.283 56.8669 113.283 59.0932V67.1747C113.283 67.1747 113.283 69.401 115.51 69.401H123.352C123.352 69.401 125.578 69.401 125.578 67.1747V59.0932Z" fill="white" stroke="#626366" stroke-width="0.269755"/>
<path d="M126.487 55.9938C124.168 55.6295 121.829 55.4073 119.483 55.3286C117.13 55.3414 114.784 55.5716 112.473 56.0164V58.0436C114.772 57.5165 117.124 57.2613 119.483 57.2834C121.835 57.3395 124.178 57.5938 126.487 58.0436V55.9938Z" fill="white" stroke="#626366" stroke-width="0.269755"/>
<path d="M146.682 59.0932C146.682 59.0932 146.682 56.8669 144.456 56.8669H136.61C136.61 56.8669 134.383 56.8669 134.383 59.0932V67.1747C134.383 67.1747 134.383 69.401 136.61 69.401H144.451C144.451 69.401 146.678 69.401 146.678 67.1747V59.0932H146.682Z" fill="white" stroke="#626366" stroke-width="0.269755"/>
<path d="M147.597 55.9938C145.276 55.6293 142.935 55.4071 140.587 55.3286C138.235 55.3414 135.888 55.5716 133.578 56.0164V58.0436C135.877 57.5165 138.229 57.2613 140.587 57.2834C142.941 57.3393 145.286 57.5936 147.597 58.0436V55.9938Z" fill="white" stroke="#626366" stroke-width="0.269755"/>
<path d="M153.873 67.4328C153.873 67.4328 153.873 65.2065 151.646 65.2065H106.971C106.971 65.2065 104.745 65.2065 104.745 67.4328V91.2159C104.745 91.2159 104.745 93.4421 106.971 93.4421H151.646C151.646 93.4421 153.873 93.4421 153.873 91.2159V67.4328Z" fill="white" stroke="#626366" stroke-width="0.269755"/>
<path d="M169.846 126.176H152.479V200.832H169.846V126.176Z" fill="white"/>
<path d="M169.669 126.37V200.665H152.646V126.37H169.669ZM170.013 126.026H152.302V201.031H170.013V126.003V126.026Z" fill="#626366"/>
<path d="M169.846 183.466H121.094V200.832H169.846V183.466Z" fill="white"/>
<path d="M169.669 183.642V200.665H121.252V183.642H169.669ZM170.013 183.298H120.917V201.031H170.013V183.298Z" fill="#626366"/>
<path d="M169.846 135.967H152.479V153.334H169.846V135.967Z" fill="white"/>
<path d="M169.669 136.144V153.167H152.646V136.144H169.669ZM170.013 135.8H152.302V153.52H170.013V135.795V135.8Z" fill="#626366"/>
<path d="M157.063 145.375C157.695 145.375 158.312 145.562 158.838 145.913C159.363 146.264 159.772 146.763 160.014 147.347C160.256 147.931 160.319 148.573 160.196 149.193C160.073 149.812 159.769 150.382 159.322 150.828C158.875 151.275 158.306 151.579 157.686 151.703C157.066 151.826 156.424 151.763 155.84 151.521C155.257 151.279 154.758 150.87 154.407 150.344C154.056 149.819 153.868 149.201 153.868 148.569C153.868 147.722 154.205 146.91 154.804 146.31C155.403 145.711 156.216 145.375 157.063 145.375Z" fill="white"/>
<path d="M157.063 145.375C157.695 145.375 158.312 145.562 158.838 145.913C159.363 146.264 159.772 146.763 160.014 147.347C160.256 147.931 160.319 148.573 160.196 149.193C160.073 149.812 159.769 150.382 159.322 150.828C158.875 151.275 158.306 151.579 157.686 151.703C157.066 151.826 156.424 151.763 155.84 151.521C155.257 151.279 154.758 150.87 154.407 150.344C154.056 149.819 153.868 149.201 153.868 148.569C153.868 147.722 154.205 146.91 154.804 146.31C155.403 145.711 156.216 145.375 157.063 145.375" stroke="#626366" stroke-width="0.269755" stroke-linecap="round"/>
<path d="M154.026 151.596L160.099 145.524" stroke="#626366" stroke-width="0.269755" stroke-linecap="round"/>
<path d="M160.099 151.596L154.026 145.524" stroke="#626366" stroke-width="0.269755" stroke-linecap="round"/>
<path d="M165.257 145.375C165.889 145.375 166.507 145.562 167.032 145.913C167.558 146.264 167.967 146.763 168.209 147.347C168.451 147.931 168.514 148.573 168.391 149.193C168.267 149.812 167.963 150.382 167.516 150.828C167.07 151.275 166.5 151.579 165.881 151.703C165.261 151.826 164.619 151.763 164.035 151.521C163.451 151.279 162.952 150.87 162.601 150.344C162.25 149.819 162.063 149.201 162.063 148.569C162.063 147.722 162.399 146.91 162.998 146.31C163.598 145.711 164.41 145.375 165.257 145.375Z" fill="white"/>
<path d="M165.257 145.375C165.889 145.375 166.507 145.562 167.032 145.913C167.558 146.264 167.967 146.763 168.209 147.347C168.451 147.931 168.514 148.573 168.391 149.193C168.267 149.812 167.963 150.382 167.516 150.828C167.07 151.275 166.5 151.579 165.881 151.703C165.261 151.826 164.619 151.763 164.035 151.521C163.451 151.279 162.952 150.87 162.601 150.344C162.25 149.819 162.063 149.201 162.063 148.569C162.063 147.722 162.399 146.91 162.998 146.31C163.598 145.711 164.41 145.375 165.257 145.375" stroke="#626366" stroke-width="0.269755" stroke-linecap="round"/>
<path d="M162.221 151.596L168.294 145.524" stroke="#626366" stroke-width="0.269755" stroke-linecap="round"/>
<path d="M168.294 151.596L162.221 145.524" stroke="#626366" stroke-width="0.269755" stroke-linecap="round"/>
<path d="M157.063 137.547C157.695 137.547 158.312 137.734 158.838 138.085C159.363 138.436 159.772 138.935 160.014 139.519C160.256 140.102 160.319 140.745 160.196 141.364C160.073 141.984 159.769 142.553 159.322 143C158.875 143.447 158.306 143.751 157.686 143.874C157.066 143.998 156.424 143.934 155.84 143.693C155.257 143.451 154.758 143.041 154.407 142.516C154.056 141.991 153.868 141.373 153.868 140.741C153.868 139.894 154.205 139.081 154.804 138.482C155.403 137.883 156.216 137.547 157.063 137.547Z" fill="white"/>
<path d="M157.063 137.547C157.695 137.547 158.312 137.734 158.838 138.085C159.363 138.436 159.772 138.935 160.014 139.519C160.256 140.102 160.319 140.745 160.196 141.364C160.073 141.984 159.769 142.553 159.322 143C158.875 143.447 158.306 143.751 157.686 143.874C157.066 143.998 156.424 143.934 155.84 143.693C155.257 143.451 154.758 143.041 154.407 142.516C154.056 141.991 153.868 141.373 153.868 140.741C153.868 139.894 154.205 139.081 154.804 138.482C155.403 137.883 156.216 137.547 157.063 137.547" stroke="#626366" stroke-width="0.269755" stroke-linecap="round"/>
<path d="M154.026 143.778L160.099 137.705" stroke="#626366" stroke-width="0.269755" stroke-linecap="round"/>
<path d="M160.099 143.778L154.026 137.705" stroke="#626366" stroke-width="0.269755" stroke-linecap="round"/>
<path d="M165.257 137.547C165.889 137.547 166.507 137.734 167.032 138.085C167.558 138.436 167.967 138.935 168.209 139.519C168.451 140.102 168.514 140.745 168.391 141.364C168.267 141.984 167.963 142.553 167.516 143C167.07 143.447 166.5 143.751 165.881 143.874C165.261 143.998 164.619 143.934 164.035 143.693C163.451 143.451 162.952 143.041 162.601 142.516C162.25 141.991 162.063 141.373 162.063 140.741C162.063 139.894 162.399 139.081 162.998 138.482C163.598 137.883 164.41 137.547 165.257 137.547Z" fill="white"/>
<path d="M165.257 137.547C165.889 137.547 166.507 137.734 167.032 138.085C167.558 138.436 167.967 138.935 168.209 139.519C168.451 140.102 168.514 140.745 168.391 141.364C168.267 141.984 167.963 142.553 167.516 143C167.07 143.447 166.5 143.751 165.881 143.874C165.261 143.998 164.619 143.934 164.035 143.693C163.451 143.451 162.952 143.041 162.601 142.516C162.25 141.991 162.063 141.373 162.063 140.741C162.063 139.894 162.399 139.081 162.998 138.482C163.598 137.883 164.41 137.547 165.257 137.547" stroke="#626366" stroke-width="0.269755" stroke-linecap="round"/>
<path d="M162.221 143.778L168.294 137.705" stroke="#626366" stroke-width="0.269755" stroke-linecap="round"/>
<path d="M168.294 143.778L162.221 137.705" stroke="#626366" stroke-width="0.269755" stroke-linecap="round"/>
<path d="M135.144 183.466H117.777V200.832H135.144V183.466Z" fill="white"/>
<path d="M134.972 183.642V200.665H117.949V183.642H134.972ZM135.316 183.298H117.605V201.031H135.316V183.298Z" fill="#626366"/>
<path d="M123.424 195.19L129.497 189.117" stroke="#626366" stroke-width="0.269755" stroke-linecap="round"/>
<path d="M129.497 195.19L123.424 189.117" stroke="#626366" stroke-width="0.269755" stroke-linecap="round"/>
<path d="M126.46 187.868V196.434" stroke="#626366" stroke-width="0.269755" stroke-linecap="round"/>
<path d="M130.741 192.154H122.18" stroke="#626366" stroke-width="0.269755" stroke-linecap="round"/>
<path d="M169.846 183.466H152.479V200.832H169.846V183.466Z" fill="white"/>
<path d="M169.669 183.642V200.665H152.646V183.642H169.669ZM170.013 183.298H152.302V201.031H170.013V183.298Z" fill="#626366"/>
<path d="M155.809 194.724C155.728 194.724 153.827 194.696 153.827 192.742V187.203C153.827 187.122 153.855 185.221 155.809 185.221H163.76C163.841 185.221 165.742 185.248 165.742 187.203V192.742C165.742 192.823 165.715 194.724 163.76 194.724H155.787H155.809Z" fill="white"/>
<path d="M163.76 185.393C164 185.383 164.24 185.423 164.464 185.51C164.689 185.597 164.892 185.73 165.063 185.901C165.233 186.071 165.366 186.274 165.453 186.499C165.54 186.723 165.58 186.963 165.57 187.203V192.742C165.57 192.814 165.57 194.552 163.76 194.552H155.791C155.719 194.552 153.981 194.552 153.981 192.742V187.203C153.981 187.131 153.981 185.393 155.791 185.393H163.76ZM163.76 185.049H155.791C153.637 185.049 153.637 187.203 153.637 187.203V192.742C153.637 194.896 155.791 194.896 155.791 194.896H163.76C165.914 194.896 165.914 192.742 165.914 192.742V187.203C165.914 185.049 163.76 185.049 163.76 185.049Z" fill="#626366"/>
<path d="M162.429 192.669C162.427 192.54 162.463 192.413 162.532 192.304C162.602 192.195 162.703 192.109 162.822 192.058C162.941 192.006 163.072 191.991 163.2 192.015C163.327 192.039 163.444 192.1 163.537 192.19C163.629 192.281 163.693 192.397 163.719 192.524C163.745 192.65 163.733 192.782 163.684 192.902C163.635 193.022 163.552 193.124 163.444 193.197C163.337 193.269 163.21 193.307 163.081 193.307C162.91 193.309 162.746 193.242 162.624 193.123C162.502 193.003 162.432 192.84 162.429 192.669Z" fill="white"/>
<path d="M162.429 192.669C162.427 192.54 162.463 192.413 162.532 192.304C162.602 192.195 162.703 192.109 162.822 192.058C162.941 192.006 163.072 191.991 163.2 192.015C163.327 192.039 163.444 192.1 163.537 192.19C163.629 192.281 163.693 192.397 163.719 192.524C163.745 192.65 163.733 192.782 163.684 192.902C163.635 193.022 163.552 193.124 163.444 193.197C163.337 193.269 163.21 193.307 163.081 193.307C162.91 193.309 162.746 193.242 162.624 193.123C162.502 193.003 162.432 192.84 162.429 192.669" stroke="#626366" stroke-width="0.269755"/>
<path d="M102.541 431.844C103.387 431.844 104.075 430.903 104.075 429.744C104.075 428.586 103.387 427.645 102.541 427.645C101.695 427.645 101.007 428.586 101.007 429.744C101.007 430.903 101.695 431.844 102.541 431.844Z" fill="white"/>
<path d="M102.505 432.011C102.451 432.334 102.503 432.665 102.652 432.956C102.801 433.246 103.04 433.482 103.333 433.627C104.451 434.265 105.184 432.989 106.6 433.292C108.179 433.627 108.998 435.274 108.998 435.274" fill="white"/>
<path d="M98.1516 419.712H90.5134V440.857H98.1516V419.712Z" fill="white"/>
<path d="M97.9799 419.889V440.704H90.6856V419.889H97.9799ZM98.3238 419.545H90.3372V441.034H98.3238V419.541V419.545Z" fill="#626366"/>
<path d="M90.509 424.355V426.002H97.2965C97.4231 425.909 97.5222 425.783 97.5835 425.638C97.6448 425.493 97.666 425.334 97.645 425.179C97.6632 425.023 97.6406 424.865 97.5796 424.721C97.5185 424.576 97.421 424.45 97.2965 424.355H90.509Z" fill="white"/>
<path d="M90.509 424.355V426.002H97.2965C97.4231 425.909 97.5222 425.783 97.5835 425.638C97.6448 425.493 97.666 425.334 97.645 425.179C97.6632 425.023 97.6406 424.865 97.5796 424.721C97.5185 424.576 97.421 424.45 97.2965 424.355H90.509V424.355Z" stroke="#626366" stroke-width="0.269755" stroke-linecap="round" stroke-linejoin="round"/>
<path d="M90.509 426.568V427.78H96.4322C96.5358 427.719 96.6195 427.629 96.6733 427.522C96.7271 427.414 96.7487 427.293 96.7354 427.174C96.7459 427.055 96.7231 426.935 96.6696 426.828C96.6161 426.721 96.5339 426.631 96.4322 426.568H90.509Z" fill="white"/>
<path d="M90.509 426.568V427.78H96.4322C96.5358 427.719 96.6195 427.629 96.6733 427.522C96.7271 427.414 96.7487 427.293 96.7354 427.174C96.7459 427.055 96.7231 426.935 96.6696 426.828C96.6161 426.721 96.5339 426.631 96.4322 426.568H90.509V426.568Z" stroke="#626366" stroke-width="0.269755" stroke-linecap="round" stroke-linejoin="round"/>
<path d="M90.509 428.427V429.64H96.74C96.8469 429.582 96.9343 429.493 96.9913 429.385C97.0484 429.277 97.0727 429.155 97.0612 429.034C97.071 428.913 97.0459 428.791 96.989 428.684C96.9321 428.576 96.8457 428.487 96.74 428.427H90.509Z" fill="white"/>
<path d="M90.509 428.427V429.64H96.74C96.8469 429.582 96.9343 429.493 96.9913 429.385C97.0484 429.277 97.0727 429.155 97.0612 429.034C97.071 428.913 97.0459 428.791 96.989 428.684C96.9321 428.576 96.8457 428.487 96.74 428.427H90.509V428.427Z" stroke="#626366" stroke-width="0.269755" stroke-linecap="round" stroke-linejoin="round"/>
<path d="M90.509 431.55V433.328H97.0205C97.1492 433.218 97.2475 433.078 97.3061 432.919C97.3648 432.761 97.3817 432.59 97.3554 432.423C97.3792 432.256 97.361 432.086 97.3025 431.928C97.2441 431.77 97.1471 431.629 97.0205 431.518H90.509V431.55Z" fill="white"/>
<path d="M90.509 431.55V433.328H97.0205C97.1492 433.218 97.2475 433.078 97.3061 432.919C97.3648 432.761 97.3817 432.59 97.3554 432.423C97.3792 432.256 97.361 432.086 97.3025 431.928C97.2441 431.77 97.1471 431.629 97.0205 431.518H90.509V431.55Z" stroke="#626366" stroke-width="0.269755" stroke-linecap="round" stroke-linejoin="round"/>
<path d="M90.509 435.423V436.636H96.74C96.8469 436.577 96.9343 436.488 96.9913 436.38C97.0484 436.273 97.0727 436.151 97.0612 436.029C97.071 435.908 97.0459 435.787 96.989 435.679C96.9321 435.572 96.8457 435.483 96.74 435.423H90.509Z" fill="white"/>
<path d="M90.509 435.423V436.636H96.74C96.8469 436.577 96.9343 436.488 96.9913 436.38C97.0484 436.273 97.0727 436.151 97.0612 436.029C97.071 435.908 97.0459 435.787 96.989 435.679C96.9321 435.572 96.8457 435.483 96.74 435.423H90.509V435.423Z" stroke="#626366" stroke-width="0.269755" stroke-linecap="round" stroke-linejoin="round"/>
<path d="M116.157 427.645C117.227 427.211 118.145 426.472 118.798 425.52C119.451 424.568 119.809 423.445 119.828 422.29C119.847 421.136 119.526 420.002 118.905 419.029C118.284 418.056 117.39 417.287 116.336 416.818C115.281 416.349 114.111 416.201 112.973 416.392C111.834 416.583 110.777 417.105 109.933 417.893C109.089 418.68 108.495 419.699 108.226 420.821C107.957 421.944 108.024 423.121 108.419 424.206C108.99 425.687 110.125 426.881 111.576 427.526C113.027 428.171 114.675 428.214 116.157 427.645Z" fill="white"/>
<path d="M116.157 427.645C117.227 427.211 118.145 426.472 118.798 425.52C119.451 424.568 119.809 423.445 119.828 422.29C119.847 421.136 119.526 420.002 118.905 419.029C118.284 418.056 117.39 417.287 116.336 416.818C115.281 416.349 114.111 416.201 112.973 416.392C111.834 416.583 110.777 417.105 109.933 417.893C109.089 418.68 108.495 419.699 108.226 420.821C107.957 421.944 108.024 423.121 108.419 424.206C108.99 425.687 110.125 426.881 111.576 427.526C113.027 428.171 114.675 428.214 116.157 427.645" stroke="#626366" stroke-width="0.269755" stroke-linejoin="round"/>
<path d="M106.256 421.237L108.686 427.857L110.206 427.31L107.776 420.69L106.256 421.237Z" fill="white" stroke="#626366" stroke-width="0.269755" stroke-linejoin="round"/>
<path d="M118.089 416.93L120.519 423.55L122.039 423.002L119.609 416.382L118.089 416.93Z" fill="white" stroke="#626366" stroke-width="0.269755" stroke-linejoin="round"/>
<path d="M116.51 413.604L117.261 415.676L107.627 419.206L106.876 417.129L116.51 413.604Z" fill="white" stroke="#626366" stroke-width="0.269755" stroke-linejoin="round"/>
<path d="M125.628 425.36H98.4595V440.858H125.628V425.36Z" fill="white"/>
<path d="M125.451 425.536V440.69H98.6313V425.536H125.451ZM125.795 425.192H98.283V441.029H125.795V425.192Z" fill="#626366"/>
<path d="M102.545 431.844C103.393 431.844 104.079 430.904 104.079 429.744C104.079 428.585 103.393 427.645 102.545 427.645C101.698 427.645 101.011 428.585 101.011 429.744C101.011 430.904 101.698 431.844 102.545 431.844Z" stroke="#626366" stroke-width="0.269755" stroke-linecap="round" stroke-linejoin="round"/>
<path d="M101.251 430.495H103.781" stroke="#626366" stroke-width="0.269755" stroke-linecap="round" stroke-linejoin="round"/>
<path d="M102.514 427.712V430.242" stroke="#626366" stroke-width="0.269755" stroke-linecap="round" stroke-linejoin="round"/>
<path d="M102.505 432.011C102.451 432.334 102.503 432.665 102.652 432.956C102.801 433.246 103.04 433.482 103.333 433.627C104.451 434.265 105.184 432.989 106.6 433.292C108.179 433.627 108.998 435.274 108.998 435.274" stroke="#626366" stroke-width="0.269755" stroke-linecap="round" stroke-linejoin="round"/>
<path d="M119.433 430.369H108.912V437.111H119.433V430.369Z" fill="white" stroke="#626366" stroke-width="0.269755" stroke-linejoin="round"/>
<path d="M110.247 431.215H109.473V431.943H110.247V431.215Z" fill="white"/>
<path d="M110.247 431.215H109.473V431.948H110.247V431.215Z" stroke="#626366" stroke-width="0.269755" stroke-linecap="round" stroke-linejoin="round"/>
<path d="M111.328 431.215H110.555V431.943H111.328V431.215Z" fill="white"/>
<path d="M111.328 431.215H110.555V431.948H111.328V431.215Z" stroke="#626366" stroke-width="0.269755" stroke-linecap="round" stroke-linejoin="round"/>
<path d="M112.406 431.215H111.632V431.943H112.406V431.215Z" fill="white"/>
<path d="M112.406 431.215H111.632V431.948H112.406V431.215Z" stroke="#626366" stroke-width="0.269755" stroke-linecap="round" stroke-linejoin="round"/>
<path d="M115.283 431.215H111.641V431.943H115.283V431.215Z" fill="white"/>
<path d="M115.283 431.215H111.641V431.948H115.283V431.215Z" stroke="#626366" stroke-width="0.269755" stroke-linecap="round" stroke-linejoin="round"/>
<path d="M114.559 431.215H113.786V431.943H114.559V431.215Z" fill="white"/>
<path d="M114.559 431.215H113.786V431.948H114.559V431.215Z" stroke="#626366" stroke-width="0.269755" stroke-linecap="round" stroke-linejoin="round"/>
<path d="M115.636 431.215H114.863V431.943H115.636V431.215Z" fill="white"/>
<path d="M115.636 431.215H114.863V431.948H115.636V431.215Z" stroke="#626366" stroke-width="0.269755" stroke-linecap="round" stroke-linejoin="round"/>
<path d="M116.713 431.215H115.94V431.943H116.713V431.215Z" fill="white"/>
<path d="M116.718 431.215H115.944V431.948H116.718V431.215Z" stroke="#626366" stroke-width="0.269755" stroke-linecap="round" stroke-linejoin="round"/>
<path d="M117.795 431.215H117.021V431.943H117.795V431.215Z" fill="white"/>
<path d="M117.795 431.215H117.021V431.948H117.795V431.215Z" stroke="#626366" stroke-width="0.269755" stroke-linecap="round" stroke-linejoin="round"/>
<path d="M118.872 431.215H118.098V431.943H118.872V431.215Z" fill="white"/>
<path d="M118.872 431.215H118.098V431.948H118.872V431.215Z" stroke="#626366" stroke-width="0.269755" stroke-linecap="round" stroke-linejoin="round"/>
<path d="M110.243 432.219H109.469V432.952H110.243V432.219Z" fill="white"/>
<path d="M110.243 432.219H109.469V432.952H110.243V432.219Z" stroke="#626366" stroke-width="0.269755" stroke-linecap="round" stroke-linejoin="round"/>
<path d="M111.32 432.219H110.546V432.952H111.32V432.219Z" fill="white"/>
<path d="M111.324 432.219H110.55V432.952H111.324V432.219Z" stroke="#626366" stroke-width="0.269755" stroke-linecap="round" stroke-linejoin="round"/>
<path d="M112.401 432.219H111.627V432.952H112.401V432.219Z" fill="white"/>
<path d="M112.401 432.219H111.627V432.952H112.401V432.219Z" stroke="#626366" stroke-width="0.269755" stroke-linecap="round" stroke-linejoin="round"/>
<path d="M113.478 432.219H112.704V432.952H113.478V432.219Z" fill="white"/>
<path d="M113.478 432.219H112.704V432.952H113.478V432.219Z" stroke="#626366" stroke-width="0.269755" stroke-linecap="round" stroke-linejoin="round"/>
<path d="M114.555 432.219H113.781V432.952H114.555V432.219Z" fill="white"/>
<path d="M114.555 432.219H113.781V432.952H114.555V432.219Z" stroke="#626366" stroke-width="0.269755" stroke-linecap="round" stroke-linejoin="round"/>
<path d="M115.632 432.219H114.858V432.952H115.632V432.219Z" fill="white"/>
<path d="M115.632 432.219H114.858V432.952H115.632V432.219Z" stroke="#626366" stroke-width="0.269755" stroke-linecap="round" stroke-linejoin="round"/>
<path d="M116.709 432.219H115.935V432.952H116.709V432.219Z" fill="white"/>
<path d="M116.713 432.219H115.94V432.952H116.713V432.219Z" stroke="#626366" stroke-width="0.269755" stroke-linecap="round" stroke-linejoin="round"/>
<path d="M117.79 432.219H117.017V432.952H117.79V432.219Z" fill="white"/>
<path d="M117.79 432.219H117.017V432.952H117.79V432.219Z" stroke="#626366" stroke-width="0.269755" stroke-linecap="round" stroke-linejoin="round"/>
<path d="M118.867 432.219H118.094V432.952H118.867V432.219Z" fill="white"/>
<path d="M118.867 432.219H118.094V432.952H118.867V432.219Z" stroke="#626366" stroke-width="0.269755" stroke-linecap="round" stroke-linejoin="round"/>
<path d="M110.247 433.26H109.473V433.989H110.247V433.26Z" fill="white"/>
<path d="M110.247 433.26H109.473V433.993H110.247V433.26Z" stroke="#626366" stroke-width="0.269755" stroke-linecap="round" stroke-linejoin="round"/>
<path d="M111.328 433.26H110.555V433.989H111.328V433.26Z" fill="white"/>
<path d="M111.328 433.26H110.555V433.993H111.328V433.26Z" stroke="#626366" stroke-width="0.269755" stroke-linecap="round" stroke-linejoin="round"/>
<path d="M112.406 433.26H111.632V433.989H112.406V433.26Z" fill="white"/>
<path d="M112.406 433.26H111.632V433.993H112.406V433.26Z" stroke="#626366" stroke-width="0.269755" stroke-linecap="round" stroke-linejoin="round"/>
<path d="M113.483 433.26H112.709V433.989H113.483V433.26Z" fill="white"/>
<path d="M113.483 433.26H112.709V433.993H113.483V433.26Z" stroke="#626366" stroke-width="0.269755" stroke-linecap="round" stroke-linejoin="round"/>
<path d="M114.559 433.26H113.786V433.989H114.559V433.26Z" fill="white"/>
<path d="M114.559 433.26H113.786V433.993H114.559V433.26Z" stroke="#626366" stroke-width="0.269755" stroke-linecap="round" stroke-linejoin="round"/>
<path d="M115.636 433.26H114.863V433.989H115.636V433.26Z" fill="white"/>
<path d="M115.636 433.26H114.863V433.993H115.636V433.26Z" stroke="#626366" stroke-width="0.269755" stroke-linecap="round" stroke-linejoin="round"/>
<path d="M116.713 433.26H115.94V433.989H116.713V433.26Z" fill="white"/>
<path d="M116.718 433.26H115.944V433.993H116.718V433.26Z" stroke="#626366" stroke-width="0.269755" stroke-linecap="round" stroke-linejoin="round"/>
<path d="M117.795 433.26H117.021V433.989H117.795V433.26Z" fill="white"/>
<path d="M117.795 433.26H117.021V433.993H117.795V433.26Z" stroke="#626366" stroke-width="0.269755" stroke-linecap="round" stroke-linejoin="round"/>
<path d="M118.872 433.26H118.098V433.989H118.872V433.26Z" fill="white"/>
<path d="M118.872 433.26H118.098V433.993H118.872V433.26Z" stroke="#626366" stroke-width="0.269755" stroke-linecap="round" stroke-linejoin="round"/>
<path d="M110.247 434.301H109.473V435.034H110.247V434.301Z" fill="white"/>
<path d="M110.247 434.301H109.473V435.034H110.247V434.301Z" stroke="#626366" stroke-width="0.269755" stroke-linecap="round" stroke-linejoin="round"/>
<path d="M111.328 434.301H110.555V435.034H111.328V434.301Z" fill="white"/>
<path d="M111.328 434.301H110.555V435.034H111.328V434.301Z" stroke="#626366" stroke-width="0.269755" stroke-linecap="round" stroke-linejoin="round"/>
<path d="M112.406 434.301H111.632V435.034H112.406V434.301Z" fill="white"/>
<path d="M112.406 434.301H111.632V435.034H112.406V434.301Z" stroke="#626366" stroke-width="0.269755" stroke-linecap="round" stroke-linejoin="round"/>
<path d="M113.483 434.301H112.709V435.034H113.483V434.301Z" fill="white"/>
<path d="M113.483 434.301H112.709V435.034H113.483V434.301Z" stroke="#626366" stroke-width="0.269755" stroke-linecap="round" stroke-linejoin="round"/>
<path d="M114.559 434.301H113.786V435.034H114.559V434.301Z" fill="white"/>
<path d="M114.559 434.301H113.786V435.034H114.559V434.301Z" stroke="#626366" stroke-width="0.269755" stroke-linecap="round" stroke-linejoin="round"/>
<path d="M115.636 434.301H114.863V435.034H115.636V434.301Z" fill="white"/>
<path d="M115.636 434.301H114.863V435.034H115.636V434.301Z" stroke="#626366" stroke-width="0.269755" stroke-linecap="round" stroke-linejoin="round"/>
<path d="M116.713 434.301H115.94V435.034H116.713V434.301Z" fill="white"/>
<path d="M116.718 434.301H115.944V435.034H116.718V434.301Z" stroke="#626366" stroke-width="0.269755" stroke-linecap="round" stroke-linejoin="round"/>
<path d="M117.795 434.301H117.021V435.034H117.795V434.301Z" fill="white"/>
<path d="M117.795 434.301H117.021V435.034H117.795V434.301Z" stroke="#626366" stroke-width="0.269755" stroke-linecap="round" stroke-linejoin="round"/>
<path d="M118.872 434.301H118.098V435.034H118.872V434.301Z" fill="white"/>
<path d="M118.872 434.301H118.098V435.034H118.872V434.301Z" stroke="#626366" stroke-width="0.269755" stroke-linecap="round" stroke-linejoin="round"/>
<path d="M53.9245 184.941H5.60657V200.832H53.9245V184.941Z" fill="white"/>
<path d="M53.7525 185.117V200.665H5.78753V185.117H53.7525ZM54.0964 184.773H5.43457V201.031H54.101V184.769L54.0964 184.773Z" fill="#626366"/>
<path d="M49.2003 188.076H41.9241V196.696H49.2003V188.076Z" stroke="#626366" stroke-width="0.269755" stroke-linecap="round" stroke-linejoin="round"/>
<path d="M45.5623 195.583V188.194" stroke="#626366" stroke-width="0.269755" stroke-linecap="round" stroke-linejoin="round"/>
<path d="M45.5623 198.045C46.7618 198.045 47.7343 197.49 47.7343 196.805C47.7343 196.12 46.7618 195.565 45.5623 195.565C44.3627 195.565 43.3903 196.12 43.3903 196.805C43.3903 197.49 44.3627 198.045 45.5623 198.045Z" fill="white" stroke="#626366" stroke-width="0.269755" stroke-linecap="round" stroke-linejoin="round"/>
<path d="M45.5577 195.787L46.6392 192.954L48.6574 196.715L46.9469 197.76C46.98 197.338 46.8718 196.918 46.6392 196.565C46.329 196.242 45.9625 195.978 45.5577 195.787Z" fill="white" stroke="#626366" stroke-width="0.269755" stroke-linecap="round" stroke-linejoin="round"/>
<path d="M45.5712 195.801L44.4897 192.968L42.4716 196.728L44.182 197.773C44.1489 197.352 44.2572 196.932 44.4897 196.579C44.7999 196.256 45.1664 195.992 45.5712 195.801Z" fill="white" stroke="#626366" stroke-width="0.269755" stroke-linecap="round" stroke-linejoin="round"/>
<path d="M33.3176 195.04C33.318 195.195 33.2864 195.349 33.2247 195.491C33.1631 195.633 33.0727 195.761 32.9593 195.867C32.8459 195.973 32.7119 196.054 32.5657 196.106C32.4194 196.157 32.2641 196.178 32.1095 196.167C30.856 196.235 30.8831 194.936 30.9827 194.601C31.2451 193.724 32.1502 193.914 32.1502 193.502C32.1502 193.09 32.1773 192.457 32.1773 192.457" stroke="#626366" stroke-width="0.269755" stroke-linecap="round" stroke-linejoin="round"/>
<path d="M25.9916 190.113C26.2495 191.57 28.8785 192.719 32.1274 192.719C35.3764 192.719 38.01 191.57 38.2634 190.113H25.9916Z" stroke="#626366" stroke-width="0.269755" stroke-linecap="round" stroke-linejoin="round"/>
<path d="M17.6565 195.04C17.6569 195.195 17.6253 195.349 17.5636 195.491C17.502 195.633 17.4116 195.761 17.2982 195.867C17.1848 195.973 17.0508 196.054 16.9045 196.106C16.7583 196.157 16.603 196.178 16.4483 196.167C15.1949 196.235 15.222 194.936 15.3216 194.601C15.584 193.724 16.489 193.914 16.489 193.502C16.489 193.09 16.5162 192.457 16.5162 192.457" stroke="#626366" stroke-width="0.269755" stroke-linecap="round" stroke-linejoin="round"/>
<path d="M10.3306 190.113C10.5885 191.57 13.2175 192.719 16.4664 192.719C19.7154 192.719 22.349 191.57 22.6024 190.113H10.3306Z" stroke="#626366" stroke-width="0.269755" stroke-linecap="round" stroke-linejoin="round"/>
<path d="M66.1284 89.5596H5.60657V139.433H66.1284V89.5596Z" fill="white"/>
<path d="M65.9565 89.7179V139.266H5.77395V89.7179H65.9565ZM66.3004 89.374H5.43457V139.601H66.3004V89.374Z" fill="#626366"/>
<path d="M21.0593 109.831C21.0593 109.831 21.0593 112.411 18.4801 112.411H10.489C10.489 112.411 7.90967 112.411 7.90967 109.831V97.0665C7.90967 97.0665 7.9097 94.4873 10.489 94.4873H18.4801C18.4801 94.4873 21.0593 94.4873 21.0593 97.0665V109.831Z" fill="white" stroke="#626366" stroke-width="0.269755" stroke-linejoin="round"/>
<path d="M21.0593 131.931C21.0593 131.931 21.0593 134.51 18.4801 134.51H10.489C10.489 134.51 7.90967 134.51 7.90967 131.931V119.171C7.90967 119.171 7.9097 116.592 10.489 116.592H18.4801C18.4801 116.592 21.0593 116.592 21.0593 119.171V131.936V131.931Z" fill="white" stroke="#626366" stroke-width="0.269755" stroke-linejoin="round"/>
<path d="M64.3501 91.5596V137.415L30.1139 137.433L17.9915 125.026L18.0186 91.5867L64.3501 91.5596Z" fill="white" stroke="#626366" stroke-width="0.269755" stroke-linejoin="round"/>
<path d="M30.1638 137.379L18.0232 125.117L29.4714 125.872L30.1638 137.379Z" fill="white" stroke="#626366" stroke-width="0.269755" stroke-linejoin="round"/>
<path d="M17.7155 75.1477H5.60657V87.2564H17.7155V75.1477Z" fill="white"/>
<path d="M17.5435 75.3197V87.0846H5.77847V75.3197H17.5435ZM17.8874 74.9758H5.43457V87.4285H17.8874V74.9758Z" fill="#626366"/>
<path d="M17.7155 141.746H5.60657V153.854H17.7155V141.746Z" fill="white"/>
<path d="M17.5435 141.918V153.682H5.77847V141.918H17.5435ZM17.8874 141.574H5.43457V154.026H17.8874V141.574Z" fill="#626366"/>
<path d="M169.841 384.807H153.949V440.857H169.841V384.807Z" fill="white"/>
<path d="M169.67 384.979V440.685H154.122V384.979H169.67ZM170.013 384.635H153.773V441.034H170.013V384.635Z" fill="#626366"/>
<path d="M165.706 399.002H157.085V406.278H165.706V399.002Z" stroke="#626366" stroke-width="0.269755" stroke-linecap="round" stroke-linejoin="round"/>
<path d="M164.592 402.64H157.203" stroke="#626366" stroke-width="0.269755" stroke-linecap="round" stroke-linejoin="round"/>
<path d="M165.814 404.812C166.499 404.812 167.054 403.839 167.054 402.64C167.054 401.44 166.499 400.468 165.814 400.468C165.129 400.468 164.574 401.44 164.574 402.64C164.574 403.839 165.129 404.812 165.814 404.812Z" fill="white" stroke="#626366" stroke-width="0.269755" stroke-linecap="round" stroke-linejoin="round"/>
<path d="M164.791 402.649L161.959 401.567L165.719 399.549L166.764 401.26C166.343 401.227 165.923 401.335 165.57 401.567C165.247 401.878 164.983 402.244 164.791 402.649Z" fill="white" stroke="#626366" stroke-width="0.269755" stroke-linecap="round" stroke-linejoin="round"/>
<path d="M164.805 402.635L161.972 403.717L165.733 405.735L166.778 404.024C166.357 404.058 165.936 403.949 165.583 403.717C165.26 403.407 164.997 403.04 164.805 402.635Z" fill="white" stroke="#626366" stroke-width="0.269755" stroke-linecap="round" stroke-linejoin="round"/>
<path d="M165.706 388.613H157.085V395.889H165.706V388.613Z" stroke="#626366" stroke-width="0.269755" stroke-linecap="round" stroke-linejoin="round"/>
<path d="M164.592 392.25H157.203" stroke="#626366" stroke-width="0.269755" stroke-linecap="round" stroke-linejoin="round"/>
<path d="M165.814 394.423C166.499 394.423 167.054 393.45 167.054 392.251C167.054 391.051 166.499 390.079 165.814 390.079C165.129 390.079 164.574 391.051 164.574 392.251C164.574 393.45 165.129 394.423 165.814 394.423Z" fill="white" stroke="#626366" stroke-width="0.269755" stroke-linecap="round" stroke-linejoin="round"/>
<path d="M164.791 392.26L161.959 391.178L165.719 389.16L166.764 390.871C166.343 390.837 165.923 390.946 165.57 391.178C165.247 391.488 164.983 391.855 164.791 392.26Z" fill="white" stroke="#626366" stroke-width="0.269755" stroke-linecap="round" stroke-linejoin="round"/>
<path d="M164.805 392.246L161.972 393.328L165.733 395.346L166.778 393.635C166.354 393.675 165.928 393.572 165.57 393.341C165.25 393.026 164.991 392.655 164.805 392.246Z" fill="white" stroke="#626366" stroke-width="0.269755" stroke-linecap="round" stroke-linejoin="round"/>
<path d="M164.049 414.884C164.204 414.884 164.358 414.915 164.5 414.977C164.642 415.039 164.771 415.129 164.876 415.243C164.982 415.356 165.063 415.49 165.115 415.636C165.166 415.782 165.187 415.938 165.176 416.092C165.244 417.346 163.945 417.319 163.61 417.219C162.733 416.957 162.923 416.052 162.511 416.052C162.099 416.052 161.466 416.025 161.466 416.025" stroke="#626366" stroke-width="0.269755" stroke-linecap="round" stroke-linejoin="round"/>
<path d="M159.122 422.21C160.579 421.952 161.728 419.323 161.728 416.074C161.728 412.825 160.579 410.192 159.122 409.938V422.21Z" stroke="#626366" stroke-width="0.269755" stroke-linecap="round" stroke-linejoin="round"/>
<path d="M164.049 430.55C164.204 430.549 164.358 430.581 164.5 430.642C164.642 430.704 164.771 430.794 164.876 430.908C164.982 431.021 165.063 431.155 165.115 431.301C165.166 431.448 165.187 431.603 165.176 431.758C165.244 433.011 163.945 432.984 163.61 432.884C162.733 432.622 162.923 431.717 162.511 431.717C162.099 431.717 161.466 431.69 161.466 431.69" stroke="#626366" stroke-width="0.269755" stroke-linecap="round" stroke-linejoin="round"/>
<path d="M159.122 437.871C160.579 437.613 161.728 434.984 161.728 431.735C161.728 428.486 160.579 425.853 159.122 425.599V437.871V437.871Z" stroke="#626366" stroke-width="0.269755" stroke-linecap="round" stroke-linejoin="round"/>
<path d="M169.841 307.231H145.759V367.952H169.841V307.231Z" fill="white"/>
<path d="M169.669 307.403V367.78H145.931V307.403H169.669ZM170.013 307.06H145.578V368.146H170.013V307.06Z" fill="#626366"/>
<path d="M151.764 322.232C149.501 322.232 149.474 320.037 149.474 319.942V312.345C149.474 310.082 151.669 310.055 151.764 310.055H163.932C166.194 310.055 166.221 312.25 166.221 312.345V319.947C166.221 322.209 164.027 322.232 163.932 322.232H151.764Z" fill="white"/>
<path d="M163.932 310.209C165.972 310.209 166.045 312.11 166.045 312.322V319.947C166.045 321.988 164.144 322.06 163.932 322.06H151.764C149.723 322.06 149.651 320.159 149.651 319.947V312.345C149.651 310.304 151.551 310.232 151.764 310.232H163.932V310.209ZM163.932 309.888H151.764C151.764 309.888 149.302 309.888 149.302 312.349V319.947C149.302 319.947 149.302 322.408 151.764 322.408H163.932C163.932 322.408 166.393 322.408 166.393 319.947V312.345C166.393 312.345 166.393 309.883 163.932 309.883V309.888Z" fill="#626366"/>
<path d="M147.968 366.169H167.846L167.864 331.816L155.511 319.68H147.99L147.968 366.169Z" fill="white" stroke="#626366" stroke-width="0.269755" stroke-linejoin="round"/>
<path d="M167.778 331.865L155.479 319.689L156.235 331.173L167.778 331.865Z" fill="white" stroke="#626366" stroke-width="0.269755" stroke-linejoin="round"/>
<path d="M90.1696 235.444H39.4263V250.471H90.1696V235.444Z" fill="white"/>
<path d="M90.0023 235.62V250.303H39.5983V235.62H90.0023ZM90.3462 235.276H39.2589V250.661H90.3462V235.276Z" fill="#626366"/>
<path d="M81.6445 244.86C81.6449 245.015 81.6133 245.168 81.5517 245.311C81.49 245.453 81.3997 245.581 81.2862 245.687C81.1728 245.793 81.0388 245.874 80.8926 245.925C80.7463 245.977 80.591 245.998 80.4363 245.987C79.1829 246.054 79.2101 244.756 79.3096 244.421C79.5721 243.543 80.477 243.733 80.477 243.321C80.477 242.91 80.5042 242.276 80.5042 242.276" stroke="#626366" stroke-width="0.269755" stroke-linecap="round" stroke-linejoin="round"/>
<path d="M74.3232 239.946C74.5812 241.403 77.2102 242.552 80.4592 242.552C83.7081 242.552 86.3416 241.403 86.595 239.946H74.3232Z" stroke="#626366" stroke-width="0.269755" stroke-linecap="round" stroke-linejoin="round"/>
<path d="M65.9836 244.86C65.984 245.015 65.9524 245.168 65.8908 245.311C65.8291 245.453 65.7388 245.581 65.6254 245.687C65.512 245.793 65.3779 245.874 65.2317 245.925C65.0854 245.977 64.9301 245.998 64.7754 245.987C63.522 246.054 63.5492 244.756 63.6487 244.421C63.9112 243.543 64.8161 243.733 64.8161 243.321C64.8161 242.91 64.8433 242.276 64.8433 242.276" stroke="#626366" stroke-width="0.269755" stroke-linecap="round" stroke-linejoin="round"/>
<path d="M58.6621 239.946C58.92 241.403 61.5491 242.552 64.798 242.552C68.047 242.552 70.6805 241.403 70.9339 239.946H58.6621Z" stroke="#626366" stroke-width="0.269755" stroke-linecap="round" stroke-linejoin="round"/>
<path d="M50.3225 244.86C50.3229 245.015 50.2913 245.168 50.2296 245.311C50.168 245.453 50.0776 245.581 49.9642 245.687C49.8508 245.793 49.7167 245.874 49.5705 245.925C49.4243 245.977 49.269 245.998 49.1143 245.987C47.8609 246.054 47.888 244.756 47.9876 244.421C48.25 243.543 49.155 243.733 49.155 243.321C49.155 242.91 49.1822 242.276 49.1822 242.276" stroke="#626366" stroke-width="0.269755" stroke-linecap="round" stroke-linejoin="round"/>
<path d="M43.0011 239.946C43.259 241.403 45.888 242.552 49.137 242.552C52.3859 242.552 55.0195 241.403 55.2729 239.946H43.0011Z" stroke="#626366" stroke-width="0.269755" stroke-linecap="round" stroke-linejoin="round"/>
<path d="M150.017 231.348C150.017 235.077 154.271 238.104 159.52 238.104C164.769 238.104 169.022 235.082 169.022 231.348C169.022 227.615 164.769 224.593 159.52 224.593C154.271 224.593 150.017 227.615 150.017 231.348Z" fill="white" stroke="#626366" stroke-width="0.269755"/>
<path d="M166.593 225.466H165.086V237.244H166.593V225.466Z" fill="white" stroke="#626366" stroke-width="0.269755" stroke-linecap="round" stroke-linejoin="round"/>
<path d="M170.122 224.602H166.154V238.109H170.122V224.602Z" fill="white" stroke="#626366" stroke-width="0.269755" stroke-linecap="round" stroke-linejoin="round"/>
<path d="M167.416 231.348C167.413 231.491 167.453 231.632 167.531 231.752C167.608 231.872 167.719 231.966 167.851 232.023C167.982 232.079 168.127 232.096 168.267 232.069C168.408 232.043 168.537 231.976 168.639 231.876C168.741 231.776 168.811 231.647 168.84 231.507C168.869 231.368 168.855 231.222 168.801 231.09C168.747 230.958 168.655 230.845 168.536 230.765C168.418 230.685 168.278 230.643 168.135 230.643C167.947 230.641 167.765 230.715 167.63 230.847C167.495 230.979 167.418 231.16 167.416 231.348Z" fill="white" stroke="#626366" stroke-width="0.269755" stroke-linecap="round" stroke-linejoin="round"/>
<path d="M169.846 251.322H150.085V300.553H169.846V251.322Z" fill="white"/>
<path d="M169.67 251.498V300.367H150.253V251.498H169.67ZM170.013 251.154H149.904V300.729H170.013V251.15V251.154Z" fill="#626366"/>
<path d="M168.099 287.548C168.099 287.399 168.126 287.263 168.126 287.096V258.543C168.126 258.543 168.126 253.113 163.09 253.113H156.846C156.846 253.113 151.809 253.113 151.809 258.543V287.105C151.809 287.105 151.809 287.272 151.837 287.557C151.837 287.657 151.809 287.747 151.809 287.847C151.809 292.684 155.461 296.607 159.954 296.607C164.448 296.607 168.099 292.684 168.099 287.847C168.099 287.752 168.077 287.661 168.072 287.566" fill="white"/>
<path d="M168.099 287.548C168.099 287.399 168.126 287.263 168.126 287.096V258.543C168.126 258.543 168.126 253.113 163.09 253.113H156.846C156.846 253.113 151.809 253.113 151.809 258.543V287.105C151.809 287.105 151.809 287.272 151.837 287.557C151.837 287.657 151.809 287.747 151.809 287.847C151.809 292.684 155.461 296.607 159.954 296.607C164.448 296.607 168.099 292.684 168.099 287.847C168.122 287.729 168.099 287.643 168.099 287.548Z" stroke="#626366" stroke-width="0.269755"/>
<path d="M160.909 257.109C160.905 257.338 160.834 257.561 160.704 257.75C160.574 257.939 160.391 258.085 160.179 258.17C159.966 258.256 159.733 258.276 159.508 258.229C159.284 258.182 159.078 258.07 158.918 257.907C158.757 257.743 158.648 257.536 158.604 257.311C158.561 257.086 158.585 256.853 158.673 256.642C158.762 256.43 158.911 256.25 159.102 256.123C159.293 255.996 159.517 255.928 159.746 255.928C159.9 255.929 160.052 255.961 160.194 256.021C160.336 256.081 160.464 256.168 160.572 256.278C160.68 256.387 160.765 256.517 160.823 256.66C160.881 256.802 160.91 256.955 160.909 257.109Z" fill="white"/>
<path d="M160.909 257.109C160.905 257.338 160.834 257.561 160.704 257.75C160.574 257.939 160.391 258.085 160.179 258.17C159.966 258.256 159.733 258.276 159.508 258.229C159.284 258.182 159.078 258.07 158.918 257.907C158.757 257.743 158.648 257.536 158.604 257.311C158.561 257.086 158.585 256.853 158.673 256.642C158.762 256.43 158.911 256.25 159.102 256.123C159.293 255.996 159.517 255.928 159.746 255.928C159.9 255.929 160.052 255.961 160.194 256.021C160.336 256.081 160.464 256.168 160.572 256.278C160.68 256.387 160.765 256.517 160.823 256.66C160.881 256.802 160.91 256.955 160.909 257.109" stroke="#626366" stroke-width="0.269755"/>
<path d="M149.972 251.322H123.442V262.123H149.972V251.322Z" fill="white"/>
<path d="M149.796 251.498V261.951H123.614V251.498H149.796ZM150.14 251.154H123.266V262.299H150.14V251.15V251.154Z" fill="#626366"/>
<path d="M129.343 252.765H144.067V257.064C143.171 258.148 142.046 259.02 140.773 259.62C139.501 260.219 138.111 260.529 136.705 260.529C135.298 260.529 133.909 260.219 132.636 259.62C131.363 259.02 130.239 258.148 129.343 257.064V252.765Z" fill="white" stroke="#626366" stroke-width="0.269755" stroke-linecap="round" stroke-linejoin="round"/>
<path d="M136.705 256.887C137.362 256.887 137.895 256.354 137.895 255.697C137.895 255.04 137.362 254.507 136.705 254.507C136.047 254.507 135.515 255.04 135.515 255.697C135.515 256.354 136.047 256.887 136.705 256.887Z" fill="white" stroke="#626366" stroke-width="0.269755" stroke-linecap="round" stroke-linejoin="round"/>
<path d="M140.248 240.679H123.75V248.353H140.248V240.679Z" fill="white"/>
<path d="M140.076 240.851V248.181H123.94V240.851H140.094H140.076ZM140.438 240.507H123.578V248.543H140.424V240.507H140.438Z" fill="#626366"/>
<path d="M137.297 247.367H126.704V244.272C127.349 243.492 128.158 242.864 129.074 242.433C129.99 242.002 130.989 241.779 132.001 241.779C133.013 241.779 134.012 242.002 134.928 242.433C135.843 242.864 136.652 243.492 137.297 244.272V247.367Z" fill="white" stroke="#626366" stroke-width="0.269755" stroke-linecap="round" stroke-linejoin="round"/>
<path d="M131.999 246.109C132.471 246.109 132.854 245.726 132.854 245.254C132.854 244.781 132.471 244.398 131.999 244.398C131.526 244.398 131.144 244.781 131.144 245.254C131.144 245.726 131.526 246.109 131.999 246.109Z" fill="white" stroke="#626366" stroke-width="0.269755" stroke-linecap="round" stroke-linejoin="round"/>
<path d="M137.438 282.195H127.044V283.494H137.438V282.195Z" fill="white" stroke="#626366" stroke-width="0.269755" stroke-linejoin="round"/>
<path d="M140.723 283.512H123.75V300.485H140.723V283.512Z" fill="white"/>
<path d="M140.551 283.684V300.313H123.94V283.684H140.569H140.551ZM140.913 283.34H123.578V300.661H140.899V283.34H140.913Z" fill="#626366"/>
<path d="M36.6616 14.6042C37.2101 14.9291 37.834 15.1054 38.4716 15.1155C39.8788 15.1155 40.3132 14.2105 40.2816 13.5453C40.2816 12.4141 39.2453 11.9254 38.191 11.9254H37.5801V11.1019H38.191C38.9874 11.1019 40.001 10.6901 40.001 9.74439C40.001 9.09733 39.5892 8.52266 38.5801 8.52266C37.9996 8.53886 37.4366 8.72445 36.9602 9.0566L36.6751 8.26022C37.305 7.84983 38.0411 7.63276 38.7928 7.63577C40.3856 7.63577 41.1096 8.58149 41.1096 9.56792C41.1016 10.0046 40.9515 10.4268 40.6821 10.7705C40.4126 11.1143 40.0385 11.3609 39.6164 11.4729V11.4955C40.1178 11.5673 40.5766 11.8171 40.9089 12.1993C41.2413 12.5815 41.425 13.0705 41.4264 13.577C41.4264 14.8711 40.4173 16.0069 38.4761 16.0069C37.7383 16.0162 37.0116 15.8271 36.3719 15.4594L36.6616 14.6042Z" fill="#231F20"/>
<path d="M42.8789 15.2013C42.8726 15.1 42.8874 14.9984 42.9223 14.903C42.9571 14.8076 43.0112 14.7205 43.0813 14.647C43.1514 14.5735 43.2359 14.5153 43.3296 14.476C43.4232 14.4366 43.524 14.4171 43.6255 14.4185C43.7263 14.4176 43.8262 14.4376 43.9189 14.4773C44.0116 14.517 44.095 14.5755 44.1639 14.6491C44.2328 14.7226 44.2856 14.8097 44.3191 14.9048C44.3527 14.9998 44.3661 15.1008 44.3586 15.2013C44.3662 15.303 44.3524 15.4052 44.3181 15.5012C44.2838 15.5972 44.2297 15.6849 44.1593 15.7587C44.0889 15.8325 44.0038 15.8907 43.9096 15.9295C43.8153 15.9684 43.7139 15.987 43.6119 15.9842C43.5113 15.9844 43.4118 15.9639 43.3194 15.924C43.2271 15.8841 43.144 15.8256 43.0752 15.7522C43.0064 15.6787 42.9535 15.5919 42.9197 15.4972C42.8859 15.4024 42.8721 15.3017 42.8789 15.2013Z" fill="#231F20"/>
<path d="M47.7478 8.77153H47.7252L46.3179 9.53172L46.1052 8.69913L47.8745 7.75342H48.8248V15.8485H47.7659V8.77605L47.7478 8.77153Z" fill="#231F20"/>
<path d="M56.5897 8.67185H53.4991L53.1869 10.7533C53.4056 10.72 53.6264 10.7033 53.8476 10.7035C54.4582 10.6964 55.0597 10.8526 55.5897 11.156C55.9538 11.3648 56.2541 11.669 56.4582 12.0358C56.6623 12.4025 56.7626 12.818 56.7481 13.2375C56.7481 14.8212 55.4901 16.0022 53.7344 16.0022C53.0294 16.0186 52.3329 15.8468 51.7163 15.5045L51.9923 14.6719C52.523 14.9655 53.1189 15.1211 53.7254 15.1244C53.9675 15.1391 54.2102 15.1049 54.4389 15.0239C54.6676 14.9429 54.8777 14.8168 55.0566 14.653C55.2356 14.4892 55.3798 14.2911 55.4808 14.0705C55.5817 13.8499 55.6371 13.6112 55.644 13.3687C55.644 12.3235 54.9336 11.5588 53.3136 11.5588C52.9381 11.5621 52.5631 11.5908 52.1914 11.6447L52.7163 7.75781H56.5897V8.6628V8.67185Z" fill="#231F20"/>
<path d="M41.7793 26.6585C41.7793 29.4097 40.7566 30.9301 38.9647 30.9301C37.381 30.9301 36.3131 29.4459 36.286 26.7717C36.2588 24.0974 37.4579 22.5635 39.1005 22.5635C40.7431 22.5635 41.7793 24.0839 41.7793 26.6585ZM37.381 26.7852C37.381 28.8893 38.0281 30.0839 39.0236 30.0839C40.1458 30.0839 40.6797 28.7762 40.6797 26.7083C40.6797 24.7173 40.1684 23.4096 39.0372 23.4096C38.0824 23.4096 37.3855 24.559 37.3855 26.7852H37.381Z" fill="#231F20"/>
<path d="M42.8789 30.1474C42.8726 30.046 42.8874 29.9445 42.9223 29.8491C42.9571 29.7537 43.0112 29.6665 43.0813 29.593C43.1514 29.5195 43.2359 29.4613 43.3296 29.422C43.4232 29.3827 43.524 29.3631 43.6255 29.3646C43.7263 29.3637 43.8262 29.3837 43.9189 29.4234C44.0116 29.4631 44.095 29.5215 44.1639 29.5951C44.2328 29.6687 44.2856 29.7558 44.3191 29.8508C44.3527 29.9459 44.3661 30.0469 44.3586 30.1474C44.3662 30.2491 44.3524 30.3512 44.3181 30.4472C44.2838 30.5432 44.2297 30.631 44.1593 30.7048C44.0889 30.7786 44.0038 30.8367 43.9096 30.8756C43.8153 30.9144 43.7139 30.933 43.6119 30.9302C43.5113 30.9304 43.4118 30.91 43.3194 30.87C43.2271 30.8301 43.144 30.7716 43.0752 30.6982C43.0064 30.6248 42.9535 30.538 42.9197 30.4432C42.8859 30.3485 42.8721 30.2478 42.8789 30.1474Z" fill="#231F20"/>
<path d="M46.0056 30.0252C46.3077 30.0432 46.6108 30.031 46.9106 29.989C47.5425 29.9108 48.1342 29.6371 48.6029 29.2062C49.2001 28.6349 49.5793 27.8732 49.6753 27.0523H49.6391C49.4095 27.3339 49.1184 27.559 48.7881 27.7104C48.4579 27.8618 48.0973 27.9354 47.7341 27.9256C47.4103 27.9331 47.0886 27.8733 46.7891 27.7502C46.4896 27.6271 46.2189 27.4432 45.994 27.2102C45.7691 26.9773 45.5948 26.7002 45.4824 26.3966C45.3699 26.0929 45.3216 25.7692 45.3404 25.446C45.3264 25.0738 45.3875 24.7027 45.5201 24.3546C45.6526 24.0066 45.8539 23.6888 46.1119 23.4202C46.37 23.1517 46.6794 22.9378 47.0219 22.7914C47.3643 22.645 47.7327 22.5691 48.1052 22.5681C49.7613 22.5681 50.7839 23.9256 50.7839 25.9799C50.7839 27.7627 50.1867 29.0071 49.3903 29.7809C48.7445 30.3878 47.9184 30.7674 47.0373 30.8623C46.7038 30.9167 46.3658 30.938 46.0282 30.9257V30.0207L46.0056 30.0252ZM46.4038 25.369C46.4038 26.3781 47.0146 27.0885 47.9603 27.0885C48.2766 27.099 48.5902 27.0264 48.8696 26.878C49.1491 26.7295 49.3848 26.5103 49.5531 26.2424C49.624 26.122 49.6586 25.9837 49.6527 25.8442C49.6527 24.4641 49.1414 23.4052 47.9966 23.4052C47.0644 23.3962 46.4038 24.2197 46.4038 25.3645V25.369Z" fill="#231F20"/>
<path d="M56.5897 23.6223H53.4991L53.1869 25.7038C53.4056 25.6704 53.6264 25.6538 53.8476 25.654C54.4582 25.6468 55.0597 25.803 55.5897 26.1065C55.9538 26.3153 56.2541 26.6194 56.4582 26.9862C56.6623 27.353 56.7626 27.7685 56.7481 28.1879C56.7481 29.7717 55.4901 30.9527 53.7344 30.9527C53.0294 30.969 52.3329 30.7972 51.7163 30.4549L51.9923 29.6223C52.523 29.916 53.1189 30.0716 53.7254 30.0748C53.9675 30.0895 54.2102 30.0553 54.4389 29.9743C54.6676 29.8934 54.8777 29.7672 55.0566 29.6034C55.2356 29.4397 55.3798 29.2416 55.4808 29.021C55.5817 28.8003 55.6371 28.5617 55.644 28.3192C55.644 27.2739 54.9336 26.5092 53.3136 26.5092C52.9381 26.5125 52.5631 26.5413 52.1914 26.5952L52.7163 22.7083H56.5897V23.6132V23.6223Z" fill="#231F20"/>
<path d="M34.2949 19.0476H59.1372" stroke="#231F20" stroke-width="0.44597" stroke-linecap="round" stroke-linejoin="round"/>
<path d="M108.935 388.816H108.912L107.505 389.576L107.292 388.744L109.062 387.798H109.994V395.893H108.935V388.816Z" fill="#231F20"/>
<path d="M113.206 394.631C113.755 394.956 114.379 395.132 115.016 395.142C116.424 395.142 116.858 394.237 116.826 393.572C116.826 392.441 115.79 391.952 114.736 391.952H114.125V391.128H114.736C115.532 391.128 116.546 390.717 116.546 389.771C116.546 389.124 116.134 388.549 115.125 388.549C114.544 388.565 113.981 388.751 113.505 389.083L113.22 388.287C113.85 387.876 114.586 387.659 115.338 387.662C116.93 387.662 117.654 388.608 117.654 389.595C117.646 390.031 117.496 390.453 117.227 390.797C116.957 391.141 116.583 391.387 116.161 391.5V391.531C116.663 391.603 117.121 391.853 117.454 392.235C117.786 392.617 117.97 393.106 117.971 393.613C117.971 394.907 116.962 396.043 115.021 396.043C114.283 396.052 113.556 395.863 112.917 395.495L113.206 394.631Z" fill="#231F20"/>
<path d="M119.415 395.242C119.408 395.14 119.423 395.039 119.458 394.943C119.493 394.848 119.547 394.761 119.617 394.687C119.687 394.614 119.772 394.556 119.865 394.516C119.959 394.477 120.06 394.457 120.161 394.459C120.319 394.451 120.475 394.49 120.61 394.572C120.745 394.653 120.852 394.773 120.918 394.917C120.983 395.06 121.005 395.22 120.979 395.375C120.953 395.53 120.881 395.674 120.772 395.789C120.663 395.903 120.523 395.981 120.368 396.015C120.214 396.048 120.054 396.034 119.908 395.975C119.762 395.916 119.636 395.815 119.549 395.684C119.461 395.553 119.414 395.399 119.415 395.242Z" fill="#231F20"/>
<path d="M125.297 395.889V393.685H121.537V392.961L125.157 387.793H126.343V392.825H127.474V393.685H126.343V395.889H125.297ZM125.297 392.825V390.11C125.297 389.688 125.309 389.264 125.334 388.839H125.297C125.049 389.291 124.845 389.662 124.623 390.033L122.641 392.784V392.807H125.297V392.825Z" fill="#231F20"/>
<path d="M128.917 395.119C129.219 395.137 129.522 395.125 129.822 395.083C130.454 395.005 131.046 394.731 131.514 394.3C132.112 393.729 132.491 392.967 132.587 392.147H132.537C132.307 392.428 132.016 392.653 131.686 392.805C131.356 392.956 130.995 393.03 130.632 393.02C130.308 393.027 129.987 392.968 129.687 392.844C129.388 392.721 129.117 392.537 128.892 392.304C128.667 392.071 128.493 391.794 128.38 391.491C128.268 391.187 128.22 390.863 128.238 390.54C128.224 390.168 128.285 389.797 128.418 389.449C128.551 389.101 128.752 388.783 129.01 388.514C129.268 388.246 129.577 388.032 129.92 387.886C130.262 387.739 130.631 387.663 131.003 387.662C132.659 387.662 133.682 389.02 133.682 391.074C133.682 392.857 133.085 394.101 132.288 394.875C131.642 395.482 130.816 395.862 129.935 395.957C129.602 396.011 129.264 396.032 128.926 396.02V395.115L128.917 395.119ZM129.315 390.463C129.315 391.472 129.926 392.183 130.872 392.183C131.188 392.193 131.502 392.121 131.781 391.972C132.061 391.824 132.296 391.605 132.465 391.337C132.536 391.216 132.57 391.078 132.564 390.938C132.564 389.558 132.053 388.499 130.908 388.499C129.999 388.49 129.338 389.314 129.338 390.459L129.315 390.463Z" fill="#231F20"/>
<path d="M125.962 277.1V276.426L126.822 275.593C128.89 273.625 129.822 272.58 129.836 271.358C129.858 271.142 129.832 270.925 129.759 270.721C129.686 270.517 129.568 270.332 129.414 270.18C129.259 270.028 129.073 269.912 128.868 269.842C128.663 269.772 128.445 269.749 128.229 269.774C127.595 269.797 126.987 270.038 126.51 270.457L126.161 269.684C126.805 269.147 127.618 268.855 128.456 268.86C130.198 268.86 130.935 270.055 130.935 271.213C130.935 272.706 129.854 273.928 128.143 275.562L127.496 276.159V276.181H131.116V277.086H125.949L125.962 277.1Z" fill="#231F20"/>
<path d="M132.442 276.453C132.436 276.352 132.451 276.25 132.486 276.155C132.521 276.059 132.575 275.972 132.645 275.899C132.715 275.825 132.799 275.767 132.893 275.728C132.987 275.688 133.087 275.669 133.189 275.67C133.346 275.662 133.503 275.701 133.637 275.783C133.772 275.865 133.879 275.985 133.945 276.128C134.011 276.271 134.032 276.431 134.006 276.586C133.98 276.742 133.908 276.886 133.799 277C133.691 277.114 133.55 277.193 133.396 277.226C133.242 277.259 133.082 277.246 132.935 277.187C132.789 277.128 132.664 277.026 132.576 276.896C132.488 276.765 132.442 276.611 132.442 276.453Z" fill="#231F20"/>
<path d="M135.569 276.331C135.871 276.349 136.174 276.337 136.474 276.295C137.106 276.216 137.698 275.943 138.166 275.512C138.764 274.941 139.143 274.179 139.239 273.358H139.203C138.973 273.64 138.682 273.865 138.352 274.016C138.021 274.167 137.661 274.241 137.298 274.231C136.974 274.239 136.652 274.179 136.353 274.056C136.053 273.933 135.782 273.749 135.557 273.516C135.333 273.283 135.158 273.006 135.046 272.702C134.933 272.399 134.885 272.075 134.904 271.752C134.89 271.379 134.951 271.008 135.084 270.66C135.216 270.312 135.417 269.994 135.675 269.726C135.933 269.457 136.243 269.243 136.585 269.097C136.928 268.951 137.296 268.875 137.669 268.874C139.325 268.874 140.347 270.231 140.347 272.286C140.347 274.068 139.75 275.313 138.954 276.087C138.308 276.693 137.482 277.073 136.601 277.168C136.267 277.222 135.929 277.244 135.592 277.231V276.326L135.569 276.331ZM135.967 271.675C135.967 272.684 136.578 273.394 137.524 273.394C137.84 273.405 138.154 273.332 138.433 273.184C138.713 273.035 138.948 272.816 139.117 272.548C139.188 272.428 139.222 272.289 139.216 272.15C139.216 270.77 138.705 269.711 137.56 269.711C136.61 269.702 135.967 270.525 135.967 271.67V271.675Z" fill="#231F20"/>
<path d="M141.32 277.1V276.426L142.18 275.593C144.248 273.625 145.18 272.58 145.194 271.358C145.216 271.142 145.19 270.925 145.117 270.721C145.044 270.517 144.926 270.332 144.771 270.18C144.617 270.028 144.431 269.912 144.226 269.842C144.021 269.772 143.802 269.749 143.587 269.774C142.952 269.797 142.345 270.038 141.868 270.457L141.519 269.684C142.163 269.147 142.976 268.855 143.814 268.86C145.556 268.86 146.293 270.055 146.293 271.213C146.293 272.706 145.212 273.928 143.501 275.562L142.854 276.145V276.168H146.474V277.073H141.307L141.32 277.1Z" fill="#231F20"/>
<path d="M78.8844 218.145C78.6089 218.133 78.3328 218.149 78.0608 218.194C77.3392 218.295 76.6713 218.632 76.162 219.153C75.6526 219.674 75.3305 220.349 75.2462 221.072H75.2824C75.513 220.775 75.8099 220.536 76.1493 220.375C76.4887 220.213 76.8613 220.132 77.2372 220.14C78.6717 220.14 79.6807 221.172 79.6807 222.756C79.6807 224.24 78.6716 225.606 76.9883 225.606C75.3051 225.606 74.124 224.249 74.124 222.158C74.0745 220.809 74.5628 219.496 75.4815 218.507C76.1893 217.832 77.1015 217.412 78.0744 217.312C78.3378 217.271 78.6041 217.25 78.8708 217.249V218.154L78.8844 218.145ZM78.5721 222.814C78.5721 221.656 77.9115 220.959 76.9024 220.959C76.5751 220.968 76.2562 221.065 75.9797 221.24C75.7032 221.415 75.4794 221.662 75.3322 221.955C75.2464 222.101 75.2026 222.269 75.2055 222.439C75.2282 223.774 75.839 224.756 76.9883 224.756C77.9386 224.756 78.5721 223.973 78.5721 222.814Z" fill="#231F20"/>
<path d="M80.7394 224.819C80.7332 224.718 80.748 224.616 80.7828 224.521C80.8176 224.425 80.8718 224.338 80.9419 224.265C81.012 224.191 81.0965 224.133 81.1901 224.094C81.2837 224.054 81.3845 224.035 81.4861 224.036C81.6435 224.028 81.7996 224.067 81.9345 224.149C82.0693 224.231 82.1765 224.351 82.2423 224.494C82.3081 224.637 82.3293 224.797 82.3033 224.952C82.2773 225.108 82.2053 225.252 82.0965 225.366C81.9878 225.48 81.8472 225.559 81.6932 225.592C81.5392 225.625 81.3787 225.612 81.2325 225.553C81.0863 225.494 80.9612 225.392 80.8733 225.262C80.7854 225.131 80.7387 224.977 80.7394 224.819Z" fill="#231F20"/>
<path d="M83.8664 224.697C84.1685 224.715 84.4717 224.703 84.7714 224.661C85.4033 224.582 85.9951 224.309 86.4638 223.878C87.061 223.306 87.4402 222.545 87.5362 221.724H87.5C87.2704 222.006 86.9793 222.231 86.649 222.382C86.3187 222.533 85.9582 222.607 85.595 222.597C85.2712 222.605 84.9495 222.545 84.65 222.422C84.3505 222.299 84.0798 222.115 83.8549 221.882C83.6299 221.649 83.4557 221.372 83.3432 221.068C83.2308 220.765 83.1824 220.441 83.2012 220.118C83.1873 219.745 83.2484 219.374 83.3809 219.026C83.5135 218.678 83.7148 218.36 83.9728 218.092C84.2308 217.823 84.5403 217.609 84.8828 217.463C85.2252 217.317 85.5936 217.241 85.966 217.24C87.6222 217.24 88.6448 218.597 88.6448 220.652C88.6448 222.434 88.0475 223.679 87.2511 224.452C86.6054 225.059 85.7792 225.439 84.8981 225.534C84.5647 225.588 84.2267 225.61 83.889 225.597V224.692L83.8664 224.697ZM84.2646 220.041C84.2646 221.05 84.8755 221.76 85.8212 221.76C86.1375 221.771 86.4511 221.698 86.7305 221.55C87.01 221.401 87.2457 221.182 87.414 220.914C87.4849 220.794 87.5195 220.655 87.5136 220.516C87.5136 219.136 87.0022 218.077 85.8574 218.077C84.9253 218.068 84.2646 218.891 84.2646 220.036V220.041Z" fill="#231F20"/>
<path d="M94.4548 218.294H91.3597L91.0475 220.375C91.2662 220.342 91.487 220.325 91.7082 220.326C92.3188 220.318 92.9203 220.475 93.4503 220.778C93.8144 220.987 94.1147 221.291 94.3188 221.658C94.5229 222.025 94.6232 222.44 94.6087 222.86C94.6087 224.443 93.3507 225.624 91.595 225.624C90.89 225.641 90.1934 225.469 89.5769 225.127L89.8529 224.294C90.3836 224.588 90.9795 224.743 91.586 224.746C91.8281 224.761 92.0708 224.727 92.2995 224.646C92.5282 224.565 92.7383 224.439 92.9172 224.275C93.0962 224.111 93.2404 223.913 93.3414 223.693C93.4423 223.472 93.4977 223.233 93.5046 222.991C93.5046 221.946 92.7941 221.181 91.1742 221.181C90.7986 221.184 90.4237 221.213 90.052 221.267L90.5769 217.38H94.4503V218.285L94.4548 218.294Z" fill="#231F20"/>
<path d="M125.962 235.181V234.516L126.822 233.683C128.89 231.715 129.822 230.67 129.836 229.448C129.858 229.233 129.832 229.015 129.759 228.811C129.686 228.607 129.568 228.422 129.414 228.27C129.259 228.118 129.073 228.002 128.868 227.932C128.663 227.862 128.445 227.839 128.229 227.864C127.595 227.887 126.987 228.128 126.51 228.548L126.161 227.774C126.805 227.237 127.618 226.946 128.456 226.95C130.198 226.95 130.935 228.145 130.935 229.303C130.935 230.796 129.854 232.018 128.143 233.652L127.496 234.249V234.272H131.116V235.177H125.949L125.962 235.181Z" fill="#231F20"/>
<path d="M132.442 234.516C132.436 234.414 132.451 234.313 132.486 234.217C132.521 234.122 132.575 234.035 132.645 233.961C132.715 233.888 132.799 233.83 132.893 233.79C132.987 233.751 133.087 233.732 133.189 233.733C133.346 233.725 133.503 233.764 133.637 233.846C133.772 233.927 133.879 234.048 133.945 234.191C134.011 234.334 134.032 234.494 134.006 234.649C133.98 234.805 133.908 234.949 133.799 235.063C133.691 235.177 133.55 235.256 133.396 235.289C133.242 235.322 133.082 235.308 132.935 235.25C132.789 235.191 132.664 235.089 132.576 234.958C132.488 234.828 132.442 234.673 132.442 234.516Z" fill="#231F20"/>
<path d="M137.311 228.104H137.288L135.881 228.864L135.668 228.032L137.438 227.086H138.37V235.181H137.311V228.104Z" fill="#231F20"/>
<path d="M141.958 234.407C142.26 234.425 142.563 234.413 142.863 234.371C143.495 234.293 144.087 234.019 144.556 233.588C145.153 233.017 145.532 232.255 145.628 231.434H145.592C145.362 231.716 145.071 231.941 144.741 232.092C144.411 232.244 144.05 232.318 143.687 232.308C143.363 232.315 143.041 232.255 142.742 232.132C142.442 232.009 142.172 231.825 141.947 231.592C141.722 231.359 141.548 231.082 141.435 230.779C141.323 230.475 141.274 230.151 141.293 229.828C141.279 229.456 141.34 229.085 141.473 228.737C141.605 228.389 141.807 228.071 142.065 227.802C142.323 227.534 142.632 227.32 142.975 227.173C143.317 227.027 143.685 226.951 144.058 226.95C145.714 226.95 146.737 228.308 146.737 230.362C146.737 232.145 146.139 233.389 145.343 234.163C144.697 234.77 143.871 235.15 142.99 235.244C142.656 235.299 142.318 235.32 141.981 235.308V234.403L141.958 234.407ZM142.356 229.751C142.356 230.76 142.967 231.471 143.913 231.471C144.229 231.481 144.543 231.409 144.822 231.26C145.102 231.112 145.338 230.892 145.506 230.624C145.577 230.504 145.611 230.366 145.605 230.226C145.605 228.846 145.094 227.787 143.949 227.787C143.017 227.783 142.356 228.602 142.356 229.751Z" fill="#231F20"/>
<path d="M108.844 138.452H108.822L107.415 139.212L107.202 138.379L108.971 137.434H109.912V145.529H108.854V138.452H108.844Z" fill="#231F20"/>
<path d="M117.686 138.352H114.596L114.283 140.433C114.502 140.4 114.723 140.384 114.944 140.384C115.555 140.377 116.156 140.533 116.686 140.836C117.05 141.045 117.351 141.349 117.555 141.716C117.759 142.083 117.859 142.498 117.845 142.918C117.845 144.501 116.587 145.682 114.831 145.682C114.126 145.699 113.429 145.527 112.813 145.185L113.089 144.352C113.619 144.646 114.215 144.801 114.822 144.805C115.064 144.819 115.307 144.785 115.535 144.704C115.764 144.623 115.974 144.497 116.153 144.333C116.332 144.169 116.476 143.971 116.577 143.751C116.678 143.53 116.734 143.291 116.74 143.049C116.74 142.004 116.03 141.239 114.41 141.239C114.034 141.242 113.66 141.271 113.288 141.325L113.813 137.438H117.686V138.343V138.352Z" fill="#231F20"/>
<path d="M119.333 144.877C119.327 144.776 119.342 144.674 119.377 144.579C119.411 144.483 119.466 144.396 119.536 144.323C119.606 144.249 119.69 144.191 119.784 144.151C119.878 144.112 119.978 144.093 120.08 144.094C120.237 144.086 120.393 144.125 120.528 144.207C120.663 144.288 120.77 144.409 120.836 144.552C120.902 144.695 120.923 144.855 120.897 145.01C120.871 145.166 120.799 145.31 120.69 145.424C120.582 145.538 120.441 145.617 120.287 145.65C120.133 145.683 119.972 145.67 119.826 145.611C119.68 145.552 119.555 145.45 119.467 145.319C119.379 145.189 119.332 145.034 119.333 144.877Z" fill="#231F20"/>
<path d="M126.655 138.352H123.564L123.252 140.433C123.471 140.4 123.691 140.384 123.913 140.384C124.523 140.377 125.125 140.533 125.655 140.836C126.019 141.045 126.319 141.349 126.523 141.716C126.727 142.083 126.828 142.498 126.813 142.918C126.813 144.501 125.555 145.682 123.799 145.682C123.094 145.699 122.398 145.527 121.781 145.185L122.057 144.352C122.588 144.646 123.184 144.801 123.79 144.805C124.033 144.819 124.275 144.785 124.504 144.704C124.733 144.623 124.943 144.497 125.122 144.333C125.301 144.169 125.445 143.971 125.546 143.751C125.647 143.53 125.702 143.291 125.709 143.049C125.709 142.004 124.999 141.239 123.379 141.239C123.003 141.242 122.628 141.271 122.256 141.325L122.781 137.438H126.655V138.343V138.352Z" fill="#231F20"/>
<path d="M131.601 145.529V143.325H127.84V142.601L131.46 137.434H132.646V142.465H133.777V143.325H132.646V145.529H131.61H131.601ZM131.601 142.465V139.75C131.601 139.328 131.613 138.904 131.637 138.479H131.601C131.352 138.931 131.148 139.302 130.926 139.673L128.944 142.425V142.447H131.596L131.601 142.465Z" fill="#231F20"/>
<path d="M33.761 67.8987H33.7384L32.3311 68.6589L32.1184 67.8263L33.8877 66.8806H34.8199V74.9757H33.761V67.8987Z" fill="#231F20"/>
<path d="M42.6029 67.7993H39.5124L39.2001 69.8808C39.4188 69.8474 39.6396 69.8308 39.8607 69.831C40.4714 69.8238 41.0729 69.98 41.6029 70.2835C41.967 70.4923 42.2673 70.7964 42.4714 71.1632C42.6755 71.53 42.7758 71.9455 42.7613 72.3649C42.7613 73.9487 41.5033 75.1297 39.7476 75.1297C39.0426 75.146 38.346 74.9742 37.7295 74.6319L38.0055 73.7993C38.5362 74.093 39.1321 74.2486 39.7386 74.2518C39.9808 74.2665 40.2234 74.2323 40.4521 74.1513C40.6808 74.0704 40.8909 73.9442 41.0698 73.7804C41.2488 73.6167 41.393 73.4186 41.4939 73.198C41.5948 72.9773 41.6504 72.7387 41.6572 72.4962C41.6572 71.4509 40.9468 70.6862 39.3268 70.6862C38.9513 70.6895 38.5763 70.7183 38.2046 70.7722L38.7295 66.8853H42.6029V67.7902V67.7993Z" fill="#231F20"/>
<path d="M44.2499 74.3332C44.2437 74.2318 44.2585 74.1303 44.2933 74.0349C44.3281 73.9395 44.3823 73.8523 44.4524 73.7788C44.5225 73.7053 44.607 73.6471 44.7006 73.6078C44.7942 73.5685 44.895 73.5489 44.9966 73.5504C45.154 73.5422 45.3101 73.5815 45.445 73.6631C45.5798 73.7447 45.6871 73.8649 45.7528 74.0082C45.8186 74.1514 45.8398 74.311 45.8138 74.4665C45.7879 74.6219 45.7158 74.766 45.607 74.8801C45.4983 74.9941 45.3577 75.0729 45.2037 75.1062C45.0497 75.1395 44.8892 75.1258 44.743 75.0669C44.5968 75.008 44.4717 74.9066 44.3838 74.7758C44.2959 74.645 44.2492 74.4908 44.2499 74.3332Z" fill="#231F20"/>
<path d="M47.0147 73.718C47.5633 74.0429 48.1872 74.2192 48.8247 74.2293C50.232 74.2293 50.6664 73.3243 50.6347 72.6591C50.6347 71.5279 49.5985 71.0392 48.5442 71.0392H47.9197V70.2157H48.5306C49.327 70.2157 50.3406 69.8039 50.3406 68.8582C50.3406 68.2111 49.9288 67.6364 48.9197 67.6364C48.3392 67.6526 47.7762 67.8382 47.2998 68.1704L47.0147 67.365C47.6446 66.9546 48.3807 66.7375 49.1325 66.7405C50.7253 66.7405 51.4493 67.6862 51.4493 68.6727C51.4413 69.1093 51.2912 69.5315 51.0217 69.8753C50.7523 70.219 50.3781 70.4656 49.956 70.5777V70.6003C50.4574 70.672 50.9162 70.9218 51.2485 71.304C51.5809 71.6862 51.7646 72.1753 51.766 72.6817C51.766 73.9759 50.7569 75.1116 48.8157 75.1116C48.0779 75.1209 47.3512 74.9318 46.7115 74.5641L47.0147 73.718Z" fill="#231F20"/>
<path d="M53.3904 73.7179C53.939 74.0429 54.5629 74.2192 55.2004 74.2293C56.6077 74.2293 57.0421 73.3243 57.0104 72.6591C57.0104 71.5279 55.9742 71.0392 54.9199 71.0392H54.309V70.2156H54.9199C55.7163 70.2156 56.7299 69.8039 56.7299 68.8582C56.7299 68.2111 56.3181 67.6364 55.309 67.6364C54.7285 67.6526 54.1655 67.8382 53.6891 68.1704L53.404 67.374C54.0338 66.9636 54.77 66.7465 55.5217 66.7495C57.1145 66.7495 57.8385 67.6953 57.8385 68.6817C57.8305 69.1184 57.6805 69.5406 57.411 69.8843C57.1416 70.228 56.7674 70.4746 56.3453 70.5867V70.6093C56.8467 70.681 57.3055 70.9308 57.6378 71.313C57.9702 71.6952 58.1539 72.1843 58.1553 72.6908C58.1553 73.9849 57.1462 75.1207 55.205 75.1207C54.4672 75.13 53.7405 74.9409 53.1008 74.5732L53.3904 73.7179Z" fill="#231F20"/>
<path d="M120.062 374.404C123.804 374.404 127.462 373.294 130.573 371.216C133.684 369.137 136.109 366.182 137.541 362.725C138.973 359.268 139.347 355.464 138.617 351.794C137.887 348.124 136.086 344.753 133.44 342.108C130.794 339.462 127.423 337.66 123.753 336.93C120.083 336.2 116.279 336.575 112.822 338.007C109.365 339.438 106.41 341.863 104.331 344.974C102.252 348.086 101.143 351.743 101.143 355.485C101.143 360.503 103.136 365.315 106.684 368.863C110.232 372.411 115.044 374.404 120.062 374.404Z" fill="white"/>
<path d="M120.062 374.4C130.511 374.4 138.981 365.93 138.981 355.481C138.981 345.032 130.511 336.562 120.062 336.562C109.613 336.562 101.143 345.032 101.143 355.481C101.143 365.93 109.613 374.4 120.062 374.4Z" stroke="#231F20" stroke-width="1.07902" stroke-miterlimit="10"/>
<path d="M110.423 351.436H106.989L106.641 353.748C106.883 353.711 107.128 353.693 107.374 353.694C108.051 353.679 108.719 353.847 109.31 354.178C109.714 354.41 110.047 354.748 110.274 355.155C110.5 355.563 110.611 356.024 110.595 356.49C110.595 358.246 109.197 359.562 107.247 359.562C106.457 359.585 105.675 359.394 104.984 359.01L105.288 358.105C105.877 358.429 106.538 358.6 107.211 358.603C108.36 358.603 109.342 357.856 109.342 356.653C109.342 355.449 108.555 354.657 106.754 354.657C106.337 354.661 105.921 354.693 105.509 354.752L106.093 350.436H110.396V351.458L110.423 351.436Z" fill="#231F20"/>
<path d="M117.998 350.408V351.209L114.08 359.404H112.822L116.727 351.445V351.417H112.324V350.408H117.998Z" fill="#231F20"/>
<path d="M119.351 358.689C119.344 358.576 119.36 358.463 119.399 358.356C119.437 358.249 119.498 358.152 119.576 358.07C119.654 357.988 119.749 357.923 119.853 357.879C119.958 357.835 120.071 357.814 120.184 357.816C120.358 357.808 120.531 357.852 120.68 357.943C120.829 358.034 120.947 358.167 121.019 358.326C121.092 358.485 121.115 358.661 121.086 358.833C121.057 359.005 120.977 359.165 120.857 359.291C120.736 359.417 120.581 359.504 120.411 359.542C120.24 359.579 120.063 359.564 119.901 359.499C119.739 359.434 119.6 359.323 119.502 359.178C119.404 359.034 119.352 358.864 119.351 358.689Z" fill="#231F20"/>
<path d="M122.41 358.01C123.015 358.368 123.703 358.563 124.406 358.576C125.971 358.576 126.456 357.581 126.442 356.834C126.442 355.576 125.293 355.024 124.116 355.024H123.437V354.119H124.116C125.021 354.119 126.125 353.667 126.125 352.594C126.125 351.875 125.673 351.237 124.546 351.237C123.897 351.254 123.268 351.461 122.736 351.834L122.419 350.929C123.119 350.473 123.937 350.233 124.772 350.237C126.546 350.237 127.347 351.291 127.347 352.381C127.347 353.286 126.795 354.096 125.686 354.499V354.526C126.243 354.607 126.752 354.884 127.121 355.309C127.49 355.733 127.694 356.276 127.696 356.839C127.696 358.277 126.573 359.553 124.415 359.553C123.594 359.564 122.786 359.353 122.075 358.943L122.41 358.01Z" fill="#231F20"/>
<path d="M135.062 350.408V351.209L131.143 359.404H129.885L133.791 351.445V351.417H129.37V350.408H135.044H135.062Z" fill="#231F20"/>
</g>
<defs>
<clipPath id="clip0">
<rect width="181" height="453" fill="white"/>
</clipPath>
</defs>
</svg>
