<svg width="190" height="240" viewBox="0 0 190 240" fill="none" xmlns="http://www.w3.org/2000/svg">
<g clip-path="url(#clip0)">
<path d="M65.778 193.935H22.61V204.756H65.778V193.935Z" fill="white"/>
<path d="M65.6116 194.101V204.604H22.7666V194.101H65.6116ZM65.9347 193.778H22.4389V204.917H65.9252V193.769L65.9347 193.778Z" fill="#D4463D"/>
<path d="M65.778 198.195H22.61V200.496H65.778V198.195Z" fill="white"/>
<path d="M65.6116 198.37V200.349H22.7666V198.37H65.6116ZM65.9347 198.048H22.4389V200.671H65.9252V198.048H65.9347Z" fill="#D4463D"/>
<path d="M173.499 193.935H124.74V204.756H173.499V193.935Z" fill="white"/>
<path d="M173.337 194.101V204.604H124.887V194.101H173.337ZM173.66 193.778H124.564V204.917H173.646V193.769L173.66 193.778Z" fill="#D4463D"/>
<path d="M173.499 198.195H124.74V200.496H173.499V198.195Z" fill="white"/>
<path d="M173.337 198.37V200.349H124.887V198.37H173.337ZM173.66 198.048H124.564V200.671H173.646V198.048H173.66Z" fill="#D4463D"/>
<path d="M124.578 199.348L138.13 186.012" stroke="#585852" stroke-width="2.71738" stroke-miterlimit="10" stroke-linecap="round"/>
<path d="M96.8383 80.3701L81.8235 96.6187" stroke="#585852" stroke-width="2.71738" stroke-miterlimit="10" stroke-linecap="round"/>
<path d="M103.55 80.3701L118.408 96.6187" stroke="#585852" stroke-width="2.71738" stroke-miterlimit="10" stroke-linecap="round"/>
<path d="M128.668 32.7107L117.159 47.2277" stroke="#585852" stroke-width="2.71738" stroke-miterlimit="10" stroke-linecap="round"/>
<path d="M113.767 18.6824L96.292 0.645264" stroke="#585852" stroke-width="2.71738" stroke-miterlimit="10" stroke-linecap="round"/>
<path d="M0.270824 204.922H22.4485V193.778H0.270824V204.922Z" fill="#D4463D"/>
<path d="M173.66 204.922H189.762V193.778H173.66V204.922Z" fill="#D4463D"/>
<path d="M65.9346 204.922H124.578V193.778H65.9346V204.922Z" fill="#D4463D"/>
<path d="M129.889 49.927H127.442V81.1101H129.889V49.927Z" fill="#D4463D"/>
<path d="M101.417 80.7876H98.971V197.777H101.417V80.7876Z" fill="#D4463D"/>
<path d="M129.889 18.6824H127.442V32.4877H129.889V18.6824Z" fill="#D4463D"/>
<path d="M61.9922 36.2307H59.546V81.5939H61.9922V36.2307Z" fill="#D4463D"/>
<path d="M72.8794 36.2307H70.4331V58.2292H72.8794V36.2307Z" fill="#D4463D"/>
<path d="M72.8839 19.9299H68.4332V37.2033H72.8839V19.9299Z" fill="#D4463D"/>
<path d="M75.449 81.594V79.1509H59.7313V81.594H75.449Z" fill="#D4463D"/>
<path d="M72.8841 58.2293V55.7861H59.7313V58.2293H72.8841Z" fill="#D4463D"/>
<path d="M186.965 81.594V79.1509H125.666V81.594H186.965Z" fill="#D4463D"/>
<path d="M186.965 80.3748V75.8489H128.668V80.3748H186.965Z" fill="#D4463D"/>
<path d="M103.55 81.5892V79.146H96.8383V81.5892H103.55Z" fill="#D4463D"/>
<path d="M188.138 69.8285V67.3853H147.426V69.8285H188.138Z" fill="#D4463D"/>
<path d="M147.421 77.96H149.867V68.6046H147.421V77.96Z" fill="#D4463D"/>
<path d="M89.6468 20.9261V16.4382H68.4286V20.9261H89.6468Z" fill="#D4463D"/>
<path d="M190 20.9264V16.4385L113.767 16.4385V20.9264L190 20.9264Z" fill="#D4463D"/>
<path d="M72.4659 37.1986V32.7107L0.831207 32.7107V37.1986L72.4659 37.1986Z" fill="#D4463D"/>
<path d="M2.43187e-05 204.917H5.06824L5.06824 32.7106H2.43187e-05L2.43187e-05 204.917Z" fill="#D4463D"/>
<path d="M184.932 204.922H190L190 16.6567H184.932L184.932 204.922Z" fill="#D4463D"/>
<path d="M154.788 239.995H153.539V237.528H154.774C163.104 237.519 171.089 234.211 176.979 228.328C182.869 222.446 186.182 214.47 186.191 206.151V204.917H188.661V206.151C188.651 215.121 185.079 223.722 178.729 230.066C172.38 236.411 163.77 239.981 154.788 239.995Z" fill="#D4463D"/>
<path d="M86.9203 206.151V204.917H89.3903V206.151C89.3991 214.47 92.7119 222.446 98.6017 228.328C104.492 234.211 112.477 237.519 120.807 237.528H122.042V239.995H120.807C111.823 239.985 103.209 236.416 96.8566 230.071C90.5038 223.726 86.9303 215.124 86.9203 206.151Z" fill="#D4463D"/>
<path d="M153.553 237.528H122.042V239.995H153.553V237.528Z" fill="#D4463D"/>
<path d="M23.9211 122.735C23.9211 122.735 23.921 120.662 21.8453 120.662H14.5303C14.5303 120.662 12.4545 120.662 12.4545 122.735V130.264C12.4545 130.264 12.4546 132.337 14.5303 132.337H21.8453C21.8453 132.337 23.9211 132.337 23.9211 130.264V122.735Z" fill="white" stroke="#626366" stroke-width="0.679344"/>
<path d="M24.7712 119.846C22.6076 119.499 20.4249 119.285 18.2352 119.205C16.0414 119.217 13.8534 119.432 11.6992 119.846V121.743C13.8426 121.253 16.0363 121.016 18.2352 121.037C20.4298 121.088 22.6163 121.325 24.7712 121.743V119.846Z" fill="white" stroke="#626366" stroke-width="0.679344"/>
<path d="M12.5494 179.342C12.5494 179.342 12.5494 181.415 14.6252 181.415H21.9639C21.9639 181.415 24.0397 181.415 24.0397 179.342V171.803C24.0397 171.803 24.0397 169.73 21.9639 169.73H14.649C14.649 169.73 12.5732 169.73 12.5732 171.803V179.332L12.5494 179.342Z" fill="white" stroke="#626366" stroke-width="0.679344"/>
<path d="M11.6992 182.24C13.8627 182.587 16.0454 182.801 18.2352 182.881C20.4289 182.869 22.6169 182.655 24.7712 182.24V180.343C22.6277 180.833 20.434 181.071 18.2352 181.05C16.0405 180.998 13.8541 180.761 11.6992 180.343V182.24Z" fill="white" stroke="#626366" stroke-width="0.679344"/>
<path d="M37.1023 147.39C37.1023 147.39 39.178 147.39 39.178 145.317V138.011C39.178 138.011 39.1781 135.938 37.1023 135.938H29.564C29.564 135.938 27.4882 135.938 27.4882 138.011V145.317C27.4882 145.317 27.4883 147.39 29.564 147.39H37.1023Z" fill="white" stroke="#626366" stroke-width="0.679344"/>
<path d="M40.0141 148.239C40.361 146.079 40.5752 143.899 40.6554 141.712C40.6435 139.52 40.4288 137.335 40.0141 135.184H38.1141C38.6052 137.324 38.8427 139.515 38.8218 141.712C38.77 143.903 38.5333 146.087 38.1141 148.239H40.0141Z" fill="white" stroke="#626366" stroke-width="0.679344"/>
<path d="M37.1023 167.059C37.1023 167.059 39.178 167.059 39.178 164.986V157.68C39.178 157.68 39.1781 155.607 37.1023 155.607H29.564C29.564 155.607 27.4882 155.607 27.4882 157.68V164.986C27.4882 164.986 27.4883 167.059 29.564 167.059H37.1023Z" fill="white" stroke="#626366" stroke-width="0.679344"/>
<path d="M40.0139 167.899C40.3531 165.736 40.5594 163.554 40.6314 161.366C40.6196 159.175 40.4048 156.99 39.9901 154.838H38.0901C38.5812 156.979 38.8188 159.17 38.7979 161.366C38.7461 163.558 38.5093 165.742 38.0901 167.894H39.9901L40.0139 167.899Z" fill="white" stroke="#626366" stroke-width="0.679344"/>
<path d="M29.3265 173.744C29.3265 173.744 31.4023 173.744 31.4023 171.67V130.055C31.4023 130.055 31.4022 127.982 29.3265 127.982H7.14398C7.14398 127.982 5.06818 127.982 5.06818 130.055V171.666C5.06818 171.666 5.06823 173.739 7.14398 173.739H29.3265V173.744Z" fill="white" stroke="#626366" stroke-width="0.679344"/>
<path d="M21.4273 37.3599H5.2298V101.035H21.4273V37.3599Z" fill="white"/>
<path d="M21.2657 37.5211V100.874H5.39126V37.5211H21.2657ZM21.5887 37.1985H5.06818V101.197H21.5887V37.1985Z" fill="#626366"/>
<path d="M50.6968 37.3599H5.2298V53.5373H50.6968V37.3599Z" fill="white"/>
<path d="M50.5352 37.5211V53.3759H5.41016V37.5211H50.5352ZM50.8582 37.1985H5.06818V53.6748H50.8582V37.1985Z" fill="#626366"/>
<path d="M21.4273 74.3687H5.2298V90.5461H21.4273V74.3687Z" fill="white"/>
<path d="M21.2657 74.5491V90.4039H5.39126V74.5491H21.2657ZM21.5887 74.2265H5.06818V90.7265H21.5887V74.2075V74.2265Z" fill="#626366"/>
<path d="M17.1523 81.7934C16.5633 81.7934 15.9874 81.6189 15.4976 81.2921C15.0078 80.9652 14.6262 80.5006 14.4008 79.9571C14.1753 79.4136 14.1163 78.8155 14.2312 78.2385C14.3461 77.6615 14.6298 77.1315 15.0464 76.7155C15.4629 76.2995 15.9935 76.0162 16.5712 75.9014C17.1489 75.7866 17.7478 75.8455 18.292 76.0707C18.8362 76.2958 19.3013 76.6771 19.6286 77.1662C19.9558 77.6554 20.1305 78.2305 20.1305 78.8188C20.1292 79.6073 19.815 80.3632 19.2568 80.9207C18.6985 81.4783 17.9418 81.7921 17.1523 81.7934Z" fill="white"/>
<path d="M17.1523 81.7934C16.5633 81.7934 15.9874 81.6189 15.4976 81.2921C15.0078 80.9652 14.6262 80.5006 14.4008 79.9571C14.1753 79.4136 14.1163 78.8155 14.2312 78.2385C14.3461 77.6615 14.6298 77.1315 15.0464 76.7155C15.4629 76.2995 15.9935 76.0162 16.5712 75.9014C17.1489 75.7866 17.7478 75.8455 18.292 76.0707C18.8362 76.2958 19.3013 76.6771 19.6286 77.1662C19.9558 77.6554 20.1305 78.2305 20.1305 78.8188C20.1292 79.6073 19.815 80.3632 19.2568 80.9207C18.6985 81.4783 17.9418 81.7921 17.1523 81.7934" stroke="#626366" stroke-width="0.679344" stroke-linecap="round"/>
<path d="M19.9833 75.9912L14.3165 81.6462" stroke="#626366" stroke-width="0.679344" stroke-linecap="round"/>
<path d="M14.3165 75.9912L19.9833 81.6462" stroke="#626366" stroke-width="0.679344" stroke-linecap="round"/>
<path d="M9.50961 81.7934C8.92057 81.7934 8.34477 81.6189 7.855 81.2921C7.36522 80.9652 6.98348 80.5006 6.75807 79.9571C6.53265 79.4136 6.47361 78.8155 6.58852 78.2385C6.70344 77.6615 6.98714 77.1315 7.40365 76.7155C7.82017 76.2995 8.35089 76.0162 8.92862 75.9014C9.50634 75.7866 10.1051 75.8455 10.6493 76.0707C11.1935 76.2958 11.6587 76.6771 11.986 77.1662C12.3132 77.6554 12.4879 78.2305 12.4879 78.8188C12.4866 79.6073 12.1724 80.3632 11.6142 80.9207C11.0559 81.4783 10.2991 81.7921 9.50961 81.7934Z" fill="white"/>
<path d="M9.50961 81.7934C8.92057 81.7934 8.34477 81.6189 7.855 81.2921C7.36522 80.9652 6.98348 80.5006 6.75807 79.9571C6.53265 79.4136 6.47361 78.8155 6.58852 78.2385C6.70344 77.6615 6.98714 77.1315 7.40365 76.7155C7.82017 76.2995 8.35089 76.0162 8.92862 75.9014C9.50634 75.7866 10.1051 75.8455 10.6493 76.0707C11.1935 76.2958 11.6587 76.6771 11.986 77.1662C12.3132 77.6554 12.4879 78.2305 12.4879 78.8188C12.4866 79.6073 12.1724 80.3632 11.6142 80.9207C11.0559 81.4783 10.2991 81.7921 9.50961 81.7934" stroke="#626366" stroke-width="0.679344" stroke-linecap="round"/>
<path d="M12.3404 75.9912L6.67365 81.6462" stroke="#626366" stroke-width="0.679344" stroke-linecap="round"/>
<path d="M6.67365 75.9912L12.3404 81.6462" stroke="#626366" stroke-width="0.679344" stroke-linecap="round"/>
<path d="M17.1523 89.0756C16.5633 89.0756 15.9874 88.9011 15.4976 88.5743C15.0078 88.2474 14.6262 87.7829 14.4008 87.2393C14.1753 86.6958 14.1163 86.0977 14.2312 85.5207C14.3461 84.9437 14.6298 84.4137 15.0464 83.9977C15.4629 83.5817 15.9935 83.2984 16.5712 83.1836C17.1489 83.0688 17.7478 83.1278 18.292 83.3529C18.8362 83.578 19.3013 83.9593 19.6286 84.4485C19.9558 84.9376 20.1305 85.5127 20.1305 86.101C20.1292 86.8895 19.815 87.6454 19.2568 88.203C18.6985 88.7605 17.9418 89.0743 17.1523 89.0756Z" fill="white"/>
<path d="M17.1523 89.0756C16.5633 89.0756 15.9874 88.9011 15.4976 88.5743C15.0078 88.2474 14.6262 87.7829 14.4008 87.2393C14.1753 86.6958 14.1163 86.0977 14.2312 85.5207C14.3461 84.9437 14.6298 84.4137 15.0464 83.9977C15.4629 83.5817 15.9935 83.2984 16.5712 83.1836C17.1489 83.0688 17.7478 83.1278 18.292 83.3529C18.8362 83.578 19.3013 83.9593 19.6286 84.4485C19.9558 84.9376 20.1305 85.5127 20.1305 86.101C20.1292 86.8895 19.815 87.6454 19.2568 88.203C18.6985 88.7605 17.9418 89.0743 17.1523 89.0756" stroke="#626366" stroke-width="0.679344" stroke-linecap="round"/>
<path d="M19.9833 83.2734L14.3165 88.9284" stroke="#626366" stroke-width="0.679344" stroke-linecap="round"/>
<path d="M14.3165 83.2734L19.9833 88.9284" stroke="#626366" stroke-width="0.679344" stroke-linecap="round"/>
<path d="M9.50961 89.0756C8.92057 89.0756 8.34477 88.9011 7.855 88.5743C7.36522 88.2474 6.98348 87.7829 6.75807 87.2393C6.53265 86.6958 6.47361 86.0977 6.58852 85.5207C6.70344 84.9437 6.98714 84.4137 7.40365 83.9977C7.82017 83.5817 8.35089 83.2984 8.92862 83.1836C9.50634 83.0688 10.1051 83.1278 10.6493 83.3529C11.1935 83.578 11.6587 83.9593 11.986 84.4485C12.3132 84.9376 12.4879 85.5127 12.4879 86.101C12.4866 86.8895 12.1724 87.6454 11.6142 88.203C11.0559 88.7605 10.2991 89.0743 9.50961 89.0756Z" fill="white"/>
<path d="M9.50961 89.0756C8.92057 89.0756 8.34477 88.9011 7.855 88.5743C7.36522 88.2474 6.98348 87.7829 6.75807 87.2393C6.53265 86.6958 6.47361 86.0977 6.58852 85.5207C6.70344 84.9437 6.98714 84.4137 7.40365 83.9977C7.82017 83.5817 8.35089 83.2984 8.92862 83.1836C9.50634 83.0688 10.1051 83.1278 10.6493 83.3529C11.1935 83.578 11.6587 83.9593 11.986 84.4485C12.3132 84.9376 12.4879 85.5127 12.4879 86.101C12.4866 86.8895 12.1724 87.6454 11.6142 88.203C11.0559 88.7605 10.2991 89.0743 9.50961 89.0756" stroke="#626366" stroke-width="0.679344" stroke-linecap="round"/>
<path d="M12.3404 83.2734L6.67365 88.9284" stroke="#626366" stroke-width="0.679344" stroke-linecap="round"/>
<path d="M6.67365 83.2734L12.3404 88.9284" stroke="#626366" stroke-width="0.679344" stroke-linecap="round"/>
<path d="M59.3844 37.3599H43.1869V53.5373H59.3844V37.3599Z" fill="white"/>
<path d="M59.2231 37.5211V53.3759H43.3391V37.5211H59.2136H59.2231ZM59.5366 37.1985H43.0161V53.6748H59.5366V37.1985Z" fill="#626366"/>
<path d="M54.1167 42.6211L48.4547 48.2761" stroke="#626366" stroke-width="0.679344" stroke-linecap="round"/>
<path d="M48.4547 42.6211L54.1167 48.2761" stroke="#626366" stroke-width="0.679344" stroke-linecap="round"/>
<path d="M51.2856 49.4383V41.4587" stroke="#626366" stroke-width="0.679344" stroke-linecap="round"/>
<path d="M47.291 45.4487H55.2805" stroke="#626366" stroke-width="0.679344" stroke-linecap="round"/>
<path d="M21.4273 37.3599H5.2298V53.5373H21.4273V37.3599Z" fill="white"/>
<path d="M21.2657 37.5211V53.3759H5.39126V37.5211H21.2657ZM21.5887 37.1985H5.06818V53.6748H21.5887V37.1985Z" fill="#626366"/>
<path d="M10.887 51.9005C10.811 51.9005 9.03931 51.872 9.03931 50.055V44.8982C9.03931 44.8223 9.06776 43.0527 10.887 43.0527H18.3208C18.3968 43.0527 20.1685 43.0812 20.1685 44.8982V50.0598C20.1685 50.1357 20.1401 51.9053 18.3208 51.9053H10.887V51.9005Z" fill="white"/>
<path d="M18.3209 43.2142C18.5443 43.2069 18.7667 43.2455 18.9746 43.3276C19.1824 43.4097 19.3713 43.5335 19.5294 43.6913C19.6874 43.8492 19.8113 44.0378 19.8935 44.2454C19.9757 44.453 20.0143 44.6752 20.007 44.8984V50.0552C20.0164 50.2789 19.9793 50.5021 19.8979 50.7107C19.8165 50.9192 19.6926 51.1087 19.5341 51.267C19.3756 51.4253 19.186 51.549 18.9771 51.6303C18.7683 51.7116 18.5448 51.7488 18.3209 51.7394H10.887C10.6631 51.7488 10.4396 51.7116 10.2308 51.6303C10.022 51.549 9.8323 51.4253 9.6738 51.267C9.51531 51.1087 9.39143 50.9192 9.31002 50.7107C9.2286 50.5021 9.19138 50.2789 9.20078 50.0552V44.8984C9.19351 44.6752 9.23225 44.453 9.31442 44.2454C9.39659 44.0378 9.5205 43.8492 9.67856 43.6913C9.83661 43.5335 10.0254 43.4097 10.2332 43.3276C10.4411 43.2455 10.6636 43.2069 10.887 43.2142H18.3209ZM18.3209 42.8916H10.887C8.8778 42.8916 8.87781 44.8984 8.87781 44.8984V50.0552C8.87781 52.062 10.887 52.062 10.887 52.062H18.3209C20.3301 52.062 20.3301 50.0552 20.3301 50.0552V44.8984C20.3301 42.8916 18.3209 42.8916 18.3209 42.8916Z" fill="#626366"/>
<path d="M12.1464 44.9646C12.1483 45.085 12.1142 45.2033 12.0485 45.3044C11.9828 45.4055 11.8885 45.4848 11.7775 45.5322C11.6665 45.5796 11.5439 45.593 11.4252 45.5707C11.3066 45.5483 11.1973 45.4912 11.1112 45.4067C11.0252 45.3222 10.9663 45.2141 10.9421 45.096C10.9178 44.978 10.9294 44.8555 10.9751 44.744C11.0209 44.6325 11.0988 44.5371 11.1991 44.47C11.2993 44.4028 11.4173 44.367 11.538 44.367C11.6173 44.3663 11.6959 44.3813 11.7694 44.411C11.8429 44.4407 11.9097 44.4845 11.9662 44.54C12.0227 44.5955 12.0677 44.6616 12.0986 44.7344C12.1295 44.8073 12.1458 44.8855 12.1464 44.9646Z" fill="white"/>
<path d="M12.1464 44.9646C12.1483 45.085 12.1142 45.2033 12.0485 45.3044C11.9828 45.4055 11.8885 45.4848 11.7775 45.5322C11.6665 45.5796 11.5439 45.593 11.4252 45.5707C11.3066 45.5483 11.1973 45.4912 11.1112 45.4067C11.0252 45.3222 10.9663 45.2141 10.9421 45.096C10.9178 44.978 10.9294 44.8555 10.9751 44.744C11.0209 44.6325 11.0988 44.5371 11.1991 44.47C11.2993 44.4028 11.4173 44.367 11.538 44.367C11.6173 44.3663 11.6959 44.3813 11.7694 44.411C11.8429 44.4407 11.9097 44.4845 11.9662 44.54C12.0227 44.5955 12.0677 44.6616 12.0986 44.7344C12.1295 44.8073 12.1458 44.8855 12.1464 44.9646" stroke="#626366" stroke-width="0.679344"/>
<path d="M98.971 129.514H94.05V193.773H98.971V129.514Z" fill="white" stroke="#626366" stroke-width="0.679344" stroke-linejoin="round"/>
<path d="M94.05 188.858V193.773H62.3105V188.858H94.05Z" fill="white" stroke="#626366" stroke-width="0.679344" stroke-linejoin="round"/>
<path d="M66.2483 175.119H62.3105V188.863H66.2483V175.119Z" fill="white" stroke="#626366" stroke-width="0.679344" stroke-linejoin="round"/>
<path d="M94.0405 129.514H80.2797V133.329H94.0405V129.514Z" fill="white" stroke="#626366" stroke-width="0.679344" stroke-linejoin="round"/>
<path d="M80.1514 134.738C80.1455 134.549 80.1783 134.361 80.2478 134.186C80.3173 134.011 80.4221 133.851 80.5556 133.718C80.6891 133.585 80.8486 133.48 81.0242 133.411C81.1998 133.341 81.3877 133.308 81.5764 133.314H92.6487C92.8375 133.308 93.0254 133.341 93.2009 133.411C93.3765 133.48 93.536 133.585 93.6696 133.718C93.8031 133.851 93.9078 134.011 93.9773 134.186C94.0469 134.361 94.0796 134.549 94.0737 134.738V145.796C94.0796 145.985 94.0469 146.172 93.9773 146.348C93.9078 146.523 93.8031 146.682 93.6696 146.816C93.536 146.949 93.3765 147.054 93.2009 147.123C93.0254 147.193 92.8375 147.225 92.6487 147.219H81.5764C81.3877 147.225 81.1998 147.193 81.0242 147.123C80.8486 147.054 80.6891 146.949 80.5556 146.816C80.4221 146.682 80.3173 146.523 80.2478 146.348C80.1783 146.172 80.1455 145.985 80.1514 145.796V134.738Z" fill="white" stroke="#626366" stroke-width="0.679344" stroke-linejoin="round"/>
<path d="M80.1514 148.624C80.1455 148.435 80.1783 148.247 80.2478 148.072C80.3173 147.897 80.4221 147.737 80.5556 147.604C80.6891 147.471 80.8486 147.366 81.0242 147.297C81.1998 147.227 81.3877 147.194 81.5764 147.2H92.6487C92.8375 147.194 93.0254 147.227 93.2009 147.297C93.3765 147.366 93.536 147.471 93.6696 147.604C93.8031 147.737 93.9078 147.897 93.9773 148.072C94.0469 148.247 94.0796 148.435 94.0737 148.624V159.682C94.0796 159.871 94.0469 160.058 93.9773 160.234C93.9078 160.409 93.8031 160.568 93.6696 160.702C93.536 160.835 93.3765 160.94 93.2009 161.009C93.0254 161.079 92.8375 161.111 92.6487 161.105H81.5764C81.3877 161.111 81.1998 161.079 81.0242 161.009C80.8486 160.94 80.6891 160.835 80.5556 160.702C80.4221 160.568 80.3173 160.409 80.2478 160.234C80.1783 160.058 80.1455 159.871 80.1514 159.682V148.624Z" fill="white" stroke="#626366" stroke-width="0.679344" stroke-linejoin="round"/>
<path d="M80.1514 162.505C80.1455 162.316 80.1783 162.129 80.2478 161.953C80.3173 161.778 80.4221 161.619 80.5556 161.485C80.6891 161.352 80.8486 161.247 81.0242 161.178C81.1998 161.109 81.3877 161.076 81.5764 161.082H92.6487C92.8375 161.076 93.0254 161.109 93.2009 161.178C93.3765 161.247 93.536 161.352 93.6696 161.485C93.8031 161.619 93.9078 161.778 93.9773 161.953C94.0469 162.129 94.0796 162.316 94.0737 162.505V173.564C94.0796 173.752 94.0469 173.94 93.9773 174.115C93.9078 174.29 93.8031 174.45 93.6696 174.583C93.536 174.716 93.3765 174.821 93.2009 174.89C93.0254 174.96 92.8375 174.993 92.6487 174.987H81.5764C81.3877 174.993 81.1998 174.96 81.0242 174.89C80.8486 174.821 80.6891 174.716 80.5556 174.583C80.4221 174.45 80.3173 174.29 80.2478 174.115C80.1783 173.94 80.1455 173.752 80.1514 173.564V162.505Z" fill="white" stroke="#626366" stroke-width="0.679344" stroke-linejoin="round"/>
<path d="M92.6392 174.977C92.8279 174.971 93.0158 175.004 93.1914 175.073C93.367 175.143 93.5265 175.247 93.66 175.381C93.7936 175.514 93.8983 175.673 93.9678 175.849C94.0373 176.024 94.0701 176.212 94.0642 176.4V187.459C94.0701 187.647 94.0373 187.835 93.9678 188.01C93.8983 188.186 93.7936 188.345 93.66 188.478C93.5265 188.612 93.367 188.716 93.1914 188.786C93.0158 188.855 92.8279 188.888 92.6392 188.882H81.5669C81.3782 188.888 81.1903 188.855 81.0147 188.786C80.8391 188.716 80.6796 188.612 80.5461 188.478C80.4125 188.345 80.3078 188.186 80.2383 188.01C80.1688 187.835 80.136 187.647 80.1419 187.459V176.386C80.136 176.198 80.1688 176.01 80.2383 175.834C80.3078 175.659 80.4125 175.5 80.5461 175.367C80.6796 175.233 80.8391 175.129 81.0147 175.059C81.1903 174.99 81.3782 174.957 81.5669 174.963H92.6392V174.977Z" fill="white" stroke="#626366" stroke-width="0.679344" stroke-linejoin="round"/>
<path d="M78.7359 174.977C78.9246 174.971 79.1125 175.004 79.2881 175.073C79.4637 175.143 79.6232 175.247 79.7567 175.381C79.8903 175.514 79.995 175.673 80.0645 175.849C80.134 176.024 80.1668 176.212 80.1609 176.4V187.459C80.1668 187.647 80.134 187.835 80.0645 188.01C79.995 188.186 79.8903 188.345 79.7567 188.478C79.6232 188.612 79.4637 188.716 79.2881 188.786C79.1125 188.855 78.9246 188.888 78.7359 188.882H67.6636C67.4749 188.888 67.2869 188.855 67.1114 188.786C66.9358 188.716 66.7763 188.612 66.6427 188.478C66.5092 188.345 66.4045 188.186 66.335 188.01C66.2655 187.835 66.2327 187.647 66.2386 187.459V176.386C66.2327 176.198 66.2655 176.01 66.335 175.834C66.4045 175.659 66.5092 175.5 66.6427 175.367C66.7763 175.233 66.9358 175.129 67.1114 175.059C67.2869 174.99 67.4749 174.957 67.6636 174.963H78.7359V174.977Z" fill="white" stroke="#626366" stroke-width="0.679344" stroke-linejoin="round"/>
<path d="M184.77 97.1975H128.326V143.657H184.77V97.1975Z" fill="white"/>
<path d="M184.609 97.3587V143.495H128.488V97.3587H184.609ZM184.932 97.0361H128.169V143.813H184.932V97.0361Z" fill="#626366"/>
<path d="M170.359 124.775C170.359 124.775 170.359 122.37 172.767 122.37H180.22C180.22 122.37 182.628 122.37 182.628 124.775V136.664C182.628 136.664 182.628 139.069 180.22 139.069H172.767C172.767 139.069 170.359 139.069 170.359 136.664V124.775Z" fill="white" stroke="#626366" stroke-width="0.679344" stroke-linejoin="round"/>
<path d="M170.359 104.186C170.359 104.186 170.359 101.78 172.767 101.78H180.22C180.22 101.78 182.628 101.78 182.628 104.186V116.074C182.628 116.074 182.628 118.48 180.22 118.48H172.767C172.767 118.48 170.359 118.48 170.359 116.074V104.186Z" fill="white" stroke="#626366" stroke-width="0.679344" stroke-linejoin="round"/>
<path d="M129.984 141.792V99.0807L161.918 99.0618L173.223 110.623L173.195 141.768L129.984 141.792Z" fill="white" stroke="#626366" stroke-width="0.679344" stroke-linejoin="round"/>
<path d="M161.871 99.114L173.19 110.538L162.517 109.836L161.871 99.114Z" fill="white" stroke="#626366" stroke-width="0.679344" stroke-linejoin="round"/>
<path d="M184.77 145.806H173.48V157.082H184.77V145.806Z" fill="white"/>
<path d="M184.609 145.962V156.916H173.641V145.962H184.609ZM184.932 145.64H173.318V157.239H184.932V145.64Z" fill="#626366"/>
<path d="M184.77 83.7715H173.48V95.0482H184.77V83.7715Z" fill="white"/>
<path d="M184.609 83.9281V94.8822H173.641V83.9281H184.609ZM184.932 83.6055H173.318V95.2048H184.932V83.6055Z" fill="#626366"/>
<path d="M116.399 141.403H101.579V193.612H116.399V141.403Z" fill="white"/>
<path d="M116.242 141.56V193.446H101.764V141.56H116.261H116.242ZM116.584 141.237H101.441V193.769H116.584V141.237Z" fill="#626366"/>
<path d="M113.477 173.611H105.44V180.39H113.477V173.611Z" stroke="#626366" stroke-width="0.679344" stroke-linecap="round" stroke-linejoin="round"/>
<path d="M106.481 177.003H113.368" stroke="#626366" stroke-width="0.679344" stroke-linecap="round" stroke-linejoin="round"/>
<path d="M105.336 179.029C105.976 179.029 106.495 178.122 106.495 177.003C106.495 175.884 105.976 174.977 105.336 174.977C104.696 174.977 104.177 175.884 104.177 177.003C104.177 178.122 104.696 179.029 105.336 179.029Z" fill="white" stroke="#626366" stroke-width="0.679344" stroke-linecap="round" stroke-linejoin="round"/>
<path d="M106.291 176.993L108.932 177.999L105.426 179.897L104.476 178.303C104.87 178.333 105.263 178.231 105.592 178.013C105.885 177.718 106.122 177.373 106.291 176.993Z" fill="white" stroke="#626366" stroke-width="0.679344" stroke-linecap="round" stroke-linejoin="round"/>
<path d="M106.277 177.022L108.918 176.016L105.412 174.118L104.462 175.712C104.856 175.682 105.249 175.784 105.578 176.002C105.871 176.297 106.107 176.642 106.277 177.022Z" fill="white" stroke="#626366" stroke-width="0.679344" stroke-linecap="round" stroke-linejoin="round"/>
<path d="M113.477 183.289H105.44V190.068H113.477V183.289Z" stroke="#626366" stroke-width="0.679344" stroke-linecap="round" stroke-linejoin="round"/>
<path d="M106.481 186.676H113.368" stroke="#626366" stroke-width="0.679344" stroke-linecap="round" stroke-linejoin="round"/>
<path d="M105.336 188.702C105.976 188.702 106.495 187.795 106.495 186.676C106.495 185.557 105.976 184.65 105.336 184.65C104.696 184.65 104.177 185.557 104.177 186.676C104.177 187.795 104.696 188.702 105.336 188.702Z" fill="white" stroke="#626366" stroke-width="0.679344" stroke-linecap="round" stroke-linejoin="round"/>
<path d="M106.291 186.667L108.932 187.673L105.426 189.57L104.476 187.976C104.87 188.007 105.263 187.905 105.592 187.687C105.885 187.392 106.122 187.046 106.291 186.667Z" fill="white" stroke="#626366" stroke-width="0.679344" stroke-linecap="round" stroke-linejoin="round"/>
<path d="M106.277 186.681L108.918 185.675L105.412 183.778L104.462 185.372C104.856 185.341 105.249 185.443 105.578 185.661C105.871 185.956 106.107 186.302 106.277 186.681Z" fill="white" stroke="#626366" stroke-width="0.679344" stroke-linecap="round" stroke-linejoin="round"/>
<path d="M106.989 165.593C106.844 165.594 106.702 165.564 106.569 165.507C106.436 165.449 106.317 165.365 106.218 165.26C106.12 165.154 106.044 165.03 105.996 164.893C105.948 164.757 105.929 164.613 105.939 164.469C105.873 163.302 107.089 163.326 107.402 163.42C108.224 163.667 108.043 164.507 108.428 164.507C108.813 164.507 109.402 164.531 109.402 164.531" stroke="#626366" stroke-width="0.679344" stroke-linecap="round" stroke-linejoin="round"/>
<path d="M111.582 158.771C110.224 159.008 109.15 161.461 109.15 164.464C109.15 167.467 110.224 169.939 111.582 170.157V158.771Z" stroke="#626366" stroke-width="0.679344" stroke-linecap="round" stroke-linejoin="round"/>
<path d="M106.989 151.005C106.844 151.006 106.702 150.976 106.569 150.919C106.436 150.861 106.317 150.777 106.218 150.672C106.12 150.566 106.044 150.441 105.996 150.305C105.948 150.169 105.929 150.025 105.939 149.881C105.873 148.714 107.089 148.737 107.402 148.832C108.224 149.079 108.043 149.919 108.428 149.919C108.813 149.919 109.402 149.942 109.402 149.942" stroke="#626366" stroke-width="0.679344" stroke-linecap="round" stroke-linejoin="round"/>
<path d="M111.582 144.183C110.224 144.42 109.15 146.873 109.15 149.876C109.15 152.879 110.224 155.351 111.582 155.569V144.183Z" stroke="#626366" stroke-width="0.679344" stroke-linecap="round" stroke-linejoin="round"/>
<path d="M87.0533 21.0828H73.0408V58.0631H87.0533V21.0828Z" fill="white"/>
<path d="M86.8965 21.2442V57.902H73.2024V21.2442H86.8965ZM87.2195 20.9216H72.884V58.2246H87.2195V20.9406V20.9216Z" fill="#626366"/>
<path d="M78.28 47.9819C78.1355 47.9823 77.9924 47.9529 77.8598 47.8955C77.7272 47.8381 77.608 47.7541 77.5095 47.6485C77.4109 47.543 77.3352 47.4182 77.2872 47.2821C77.2391 47.146 77.2198 47.0015 77.2302 46.8576C77.1637 45.6905 78.3797 45.7142 78.6932 45.8091C79.5149 46.0558 79.3345 46.8955 79.7192 46.8955C80.104 46.8955 80.6929 46.9192 80.6929 46.9192" stroke="#626366" stroke-width="0.679344" stroke-linecap="round" stroke-linejoin="round"/>
<path d="M82.8733 41.1504C81.5148 41.3876 80.4414 43.8403 80.4414 46.8433C80.4414 49.8464 81.5148 52.318 82.8733 52.5363V41.1504Z" stroke="#626366" stroke-width="0.679344" stroke-linecap="round" stroke-linejoin="round"/>
<path d="M78.28 33.3843C78.1355 33.3847 77.9924 33.3552 77.8598 33.2979C77.7272 33.2405 77.608 33.1564 77.5095 33.0509C77.4109 32.9453 77.3352 32.8206 77.2872 32.6845C77.2391 32.5484 77.2198 32.4039 77.2302 32.2599C77.1637 31.0929 78.3797 31.1166 78.6932 31.2115C79.5149 31.4582 79.3345 32.2979 79.7192 32.2979C80.104 32.2979 80.6929 32.3216 80.6929 32.3216" stroke="#626366" stroke-width="0.679344" stroke-linecap="round" stroke-linejoin="round"/>
<path d="M82.8733 26.5623C81.5148 26.7995 80.4414 29.2522 80.4414 32.2552C80.4414 35.2582 81.5148 37.7299 82.8733 37.9481V26.5623Z" stroke="#626366" stroke-width="0.679344" stroke-linecap="round" stroke-linejoin="round"/>
<path d="M156.166 48.7173C152.689 48.7173 149.867 52.6786 149.867 57.5698C149.867 62.461 152.689 66.4223 156.166 66.4223C159.643 66.4223 162.464 62.461 162.464 57.5698C162.464 52.6786 159.643 48.7173 156.166 48.7173Z" fill="white" stroke="#626366" stroke-width="0.679344"/>
<path d="M161.657 62.7505H150.675V64.1547H161.657V62.7505Z" fill="white" stroke="#626366" stroke-width="0.679344" stroke-linecap="round" stroke-linejoin="round"/>
<path d="M162.464 63.7466H149.867V67.4423H162.464V63.7466Z" fill="white" stroke="#626366" stroke-width="0.679344" stroke-linecap="round" stroke-linejoin="round"/>
<path d="M156.166 64.9232C156.033 64.9213 155.902 64.9589 155.791 65.0312C155.68 65.1036 155.592 65.2073 155.54 65.3294C155.488 65.4514 155.474 65.5861 155.498 65.7165C155.523 65.8468 155.586 65.9669 155.679 66.0614C155.773 66.1559 155.892 66.2205 156.022 66.2471C156.152 66.2737 156.287 66.261 156.41 66.2107C156.533 66.1603 156.638 66.0746 156.712 65.9645C156.786 65.8543 156.826 65.7246 156.826 65.5919C156.826 65.5047 156.81 65.4183 156.777 65.3375C156.744 65.2567 156.696 65.1831 156.634 65.121C156.573 65.0589 156.5 65.0095 156.42 64.9755C156.339 64.9416 156.253 64.9238 156.166 64.9232Z" fill="white"/>
<path d="M156.166 64.9232C156.033 64.9213 155.902 64.9589 155.791 65.0312C155.68 65.1036 155.592 65.2073 155.54 65.3294C155.488 65.4514 155.474 65.5861 155.498 65.7165C155.523 65.8468 155.586 65.9669 155.679 66.0614C155.773 66.1559 155.892 66.2205 156.022 66.2471C156.152 66.2737 156.287 66.261 156.41 66.2107C156.533 66.1603 156.638 66.0746 156.712 65.9645C156.786 65.8543 156.826 65.7246 156.826 65.5919C156.826 65.5047 156.81 65.4183 156.777 65.3375C156.744 65.2567 156.696 65.1831 156.634 65.121C156.573 65.0589 156.5 65.0095 156.42 64.9755C156.339 64.9416 156.253 64.9238 156.166 64.9232" stroke="#626366" stroke-width="0.679344" stroke-linecap="round" stroke-linejoin="round"/>
<path d="M184.799 21.0828H166.369V67.224H184.799V21.0828Z" fill="white"/>
<path d="M184.637 21.2442V67.0629H166.53V21.2442H184.637ZM184.96 20.9216H166.207V67.3855H184.96V20.9406V20.9216Z" fill="#626366"/>
<path d="M183.17 54.823C183.17 54.6854 183.193 54.5573 183.193 54.4102V27.81C183.193 27.81 183.193 22.7717 178.496 22.7717H172.672C172.672 22.7717 167.974 22.7717 167.974 27.81V54.415C167.974 54.415 167.974 54.5715 167.998 54.8182C167.998 54.9084 167.974 54.9938 167.974 55.0886C167.974 59.5955 171.38 63.2485 175.574 63.2485C179.769 63.2485 183.174 59.5955 183.174 55.0886C183.174 54.9985 183.174 54.9178 183.151 54.8277" fill="white"/>
<path d="M183.17 54.823C183.17 54.6854 183.193 54.5573 183.193 54.4102V27.81C183.193 27.81 183.193 22.7717 178.496 22.7717H172.672C172.672 22.7717 167.974 22.7717 167.974 27.81V54.415C167.974 54.415 167.974 54.5715 167.998 54.8182C167.998 54.9084 167.974 54.9938 167.974 55.0886C167.974 59.5955 171.38 63.2485 175.574 63.2485C179.769 63.2485 183.174 59.5955 183.174 55.0886C183.193 54.9938 183.17 54.9131 183.17 54.823Z" stroke="#626366" stroke-width="0.679344"/>
<path d="M176.462 26.4671C176.458 26.6801 176.392 26.8873 176.27 27.0626C176.149 27.238 175.979 27.3736 175.781 27.4526C175.582 27.5315 175.365 27.5502 175.157 27.5064C174.948 27.4626 174.757 27.3581 174.607 27.2061C174.458 27.0542 174.356 26.8615 174.316 26.6522C174.276 26.443 174.298 26.2265 174.381 26.03C174.463 25.8335 174.602 25.6657 174.78 25.5477C174.957 25.4297 175.166 25.3667 175.379 25.3667C175.523 25.3679 175.664 25.3974 175.796 25.4534C175.929 25.5093 176.048 25.5907 176.149 25.6929C176.249 25.7951 176.329 25.9161 176.382 26.0489C176.436 26.1817 176.463 26.3238 176.462 26.4671Z" fill="white"/>
<path d="M176.462 26.4671C176.458 26.6801 176.392 26.8873 176.27 27.0626C176.149 27.238 175.979 27.3736 175.781 27.4526C175.582 27.5315 175.365 27.5502 175.157 27.5064C174.948 27.4626 174.757 27.3581 174.607 27.2061C174.458 27.0542 174.356 26.8615 174.316 26.6522C174.276 26.443 174.298 26.2265 174.381 26.03C174.463 25.8335 174.602 25.6657 174.78 25.5477C174.957 25.4297 175.166 25.3667 175.379 25.3667C175.523 25.3679 175.664 25.3974 175.796 25.4534C175.929 25.5093 176.048 25.5907 176.149 25.6929C176.249 25.7951 176.329 25.9161 176.382 26.0489C176.436 26.1817 176.463 26.3238 176.462 26.4671" stroke="#626366" stroke-width="0.679344"/>
<path d="M166.264 21.0828H144.752V31.1403H166.264V21.0828Z" fill="white"/>
<path d="M166.103 21.2442V30.9791H144.913V21.2442H166.103ZM166.426 20.9216H144.576V31.3017H166.426V20.9406V20.9216Z" fill="#626366"/>
<path d="M148.642 22.4255H162.374V26.4296C161.538 27.439 160.489 28.2517 159.302 28.8095C158.115 29.3673 156.82 29.6566 155.508 29.6566C154.196 29.6566 152.901 29.3673 151.714 28.8095C150.527 28.2517 149.478 27.439 148.642 26.4296V22.4255Z" fill="white" stroke="#626366" stroke-width="0.679344" stroke-linecap="round" stroke-linejoin="round"/>
<path d="M155.506 26.2635C156.117 26.2635 156.612 25.7686 156.612 25.1581C156.612 24.5476 156.117 24.0527 155.506 24.0527C154.894 24.0527 154.399 24.5476 154.399 25.1581C154.399 25.7686 154.894 26.2635 155.506 26.2635Z" fill="white" stroke="#626366" stroke-width="0.679344" stroke-linecap="round" stroke-linejoin="round"/>
<path d="M143.502 58.604H133.812V59.8138H143.502V58.604Z" fill="white" stroke="#626366" stroke-width="0.679344" stroke-linejoin="round"/>
<path d="M146.571 59.8328H130.739V75.6449H146.571V59.8328Z" fill="white"/>
<path d="M146.414 59.9893V75.4979H130.905V59.9893H146.414ZM146.737 59.6667H130.587V75.7967H146.737V59.6667Z" fill="#626366"/>
<path d="M128.392 216.502C128.9 216.802 129.476 216.965 130.064 216.977C131.375 216.977 131.784 216.142 131.774 215.516C131.774 214.458 130.824 214.007 129.822 214.007H129.252V213.243H129.822C130.563 213.243 131.508 212.859 131.508 211.967C131.508 211.365 131.124 210.828 130.183 210.828C129.642 210.844 129.117 211.017 128.673 211.327L128.407 210.582C128.995 210.2 129.682 209.999 130.383 210.003C131.869 210.003 132.544 210.885 132.544 211.801C132.532 212.207 132.39 212.599 132.139 212.918C131.887 213.237 131.54 213.468 131.147 213.575C131.614 213.642 132.041 213.875 132.351 214.23C132.66 214.585 132.832 215.04 132.834 215.511C132.834 216.716 131.884 217.774 130.079 217.774C129.391 217.782 128.713 217.605 128.117 217.261L128.392 216.502Z" fill="#231F20"/>
<path d="M134.192 217.072C134.186 216.977 134.2 216.882 134.233 216.793C134.265 216.704 134.316 216.622 134.381 216.554C134.447 216.485 134.526 216.431 134.614 216.394C134.701 216.358 134.795 216.34 134.89 216.341C135.036 216.334 135.181 216.372 135.305 216.448C135.43 216.524 135.529 216.635 135.589 216.768C135.65 216.901 135.669 217.049 135.645 217.193C135.62 217.336 135.553 217.47 135.453 217.575C135.352 217.681 135.222 217.754 135.079 217.785C134.936 217.816 134.788 217.803 134.652 217.749C134.516 217.695 134.4 217.601 134.318 217.481C134.236 217.36 134.192 217.217 134.192 217.072Z" fill="#231F20"/>
<path d="M141.023 210.994H138.144L137.854 212.93C138.057 212.899 138.262 212.883 138.467 212.883C139.037 212.871 139.6 213.012 140.096 213.291C140.435 213.485 140.715 213.768 140.905 214.109C141.094 214.45 141.188 214.836 141.175 215.226C141.175 216.702 140.002 217.802 138.363 217.802C137.698 217.818 137.042 217.654 136.463 217.328L136.719 216.55C137.214 216.821 137.769 216.965 138.334 216.967C138.561 216.984 138.789 216.955 139.004 216.88C139.218 216.806 139.416 216.688 139.583 216.535C139.751 216.382 139.886 216.196 139.979 215.989C140.072 215.782 140.122 215.558 140.125 215.331C140.125 214.358 139.465 213.661 137.954 213.661C137.604 213.664 137.255 213.691 136.909 213.741L137.384 210.122H140.999V210.98L141.023 210.994Z" fill="#231F20"/>
<path d="M142.381 215.762C142.387 215.312 142.535 214.874 142.804 214.511C143.072 214.149 143.448 213.879 143.877 213.741V213.708C143.533 213.575 143.235 213.344 143.022 213.042C142.809 212.741 142.69 212.383 142.68 212.015C142.68 210.819 143.692 210.008 145.017 210.008C146.48 210.008 147.212 210.923 147.212 211.863C147.209 212.248 147.088 212.624 146.865 212.939C146.643 213.254 146.33 213.495 145.967 213.628V213.661C146.917 214.031 147.487 214.695 147.487 215.611C147.487 216.92 146.362 217.802 144.922 217.802C143.336 217.821 142.381 216.873 142.381 215.762ZM146.447 215.715C146.447 214.799 145.806 214.358 144.785 214.069C143.901 214.325 143.426 214.904 143.426 215.625C143.421 215.82 143.458 216.015 143.534 216.195C143.609 216.376 143.721 216.538 143.864 216.673C144.006 216.807 144.176 216.91 144.36 216.974C144.545 217.039 144.741 217.064 144.937 217.048C145.125 217.068 145.316 217.048 145.496 216.991C145.677 216.933 145.843 216.838 145.985 216.713C146.127 216.588 146.242 216.434 146.321 216.262C146.401 216.091 146.444 215.904 146.447 215.715ZM143.635 211.943C143.635 212.698 144.205 213.106 145.06 213.333C145.375 213.261 145.657 213.087 145.865 212.84C146.072 212.593 146.193 212.285 146.21 211.962C146.219 211.795 146.191 211.627 146.129 211.471C146.068 211.314 145.973 211.173 145.852 211.057C145.731 210.94 145.586 210.851 145.427 210.795C145.268 210.739 145.099 210.718 144.932 210.734C144.765 210.72 144.598 210.742 144.44 210.797C144.283 210.852 144.139 210.939 144.017 211.053C143.895 211.167 143.798 211.305 143.732 211.458C143.666 211.611 143.633 211.777 143.635 211.943Z" fill="#231F20"/>
<path d="M130.369 225.009L129.058 225.715L128.839 224.937L130.487 224.055H131.357V231.579H130.369V225.009Z" fill="#231F20"/>
<path d="M134.192 230.995C134.186 230.901 134.2 230.806 134.233 230.717C134.265 230.628 134.316 230.546 134.381 230.478C134.447 230.409 134.526 230.355 134.614 230.318C134.701 230.282 134.796 230.263 134.89 230.265C135.084 230.265 135.27 230.342 135.408 230.479C135.545 230.616 135.622 230.802 135.622 230.995C135.622 231.189 135.545 231.375 135.408 231.512C135.27 231.649 135.084 231.726 134.89 231.726C134.795 231.728 134.701 231.71 134.613 231.674C134.525 231.638 134.446 231.583 134.38 231.515C134.314 231.446 134.263 231.364 134.231 231.275C134.199 231.185 134.186 231.09 134.192 230.995Z" fill="#231F20"/>
<path d="M141.536 227.746C141.536 230.313 140.586 231.726 138.909 231.726C137.432 231.726 136.434 230.346 136.41 227.85C136.387 225.355 137.503 223.927 139.037 223.927C140.571 223.927 141.536 225.345 141.536 227.746ZM137.437 227.865C137.437 229.824 138.04 230.939 138.971 230.939C140.016 230.939 140.515 229.72 140.515 227.793C140.515 225.867 140.04 224.719 138.98 224.719C138.083 224.719 137.432 225.81 137.432 227.865H137.437Z" fill="#231F20"/>
<path d="M147.364 224.055V224.729L144.091 231.579H143.032L146.31 224.909H142.614V224.06H147.364V224.055Z" fill="#231F20"/>
<path d="M126.184 220.658H149.354" stroke="#231F20" stroke-width="1.12312" stroke-linecap="round" stroke-linejoin="round"/>
<path d="M30.039 73.7805L28.728 74.4873L28.5285 73.7093L30.1767 72.8269H30.989V80.37H30.039V73.7805Z" fill="#231F20"/>
<path d="M34.352 79.6488C34.6279 79.6645 34.9047 79.6534 35.1785 79.6156C35.7692 79.543 36.3222 79.2876 36.7602 78.885C37.3154 78.3517 37.668 77.6424 37.7577 76.8783H37.7244C37.51 77.14 37.2383 77.3491 36.9304 77.4897C36.6225 77.6303 36.2864 77.6987 35.9479 77.6895C35.6459 77.6966 35.3457 77.6411 35.0663 77.5264C34.7868 77.4117 34.5342 77.2404 34.3244 77.0233C34.1146 76.8062 33.9523 76.548 33.8474 76.265C33.7426 75.982 33.6977 75.6804 33.7155 75.3792C33.7027 75.0325 33.76 74.6869 33.8837 74.3628C34.0075 74.0387 34.1953 73.7428 34.436 73.4927C34.6766 73.2426 34.9652 73.0434 35.2845 72.907C35.6038 72.7706 35.9474 72.6998 36.2947 72.6987C37.8384 72.6987 38.7932 73.9512 38.7932 75.8773C38.8299 76.5247 38.7335 77.1728 38.5096 77.7815C38.2858 78.3902 37.9393 78.9466 37.4917 79.4164C36.8898 79.9827 36.1194 80.3375 35.2973 80.4269C34.9833 80.4776 34.665 80.4966 34.3473 80.4838V79.6488H34.352ZM34.7225 75.308C34.7011 75.511 34.7228 75.7162 34.7862 75.9102C34.8496 76.1043 34.9533 76.2828 35.0905 76.4341C35.2276 76.5854 35.3953 76.7062 35.5823 76.7884C35.7693 76.8707 35.9716 76.9126 36.1759 76.9115C36.471 76.9213 36.7635 76.8537 37.0243 76.7156C37.2852 76.5774 37.5053 76.3735 37.6627 76.124C37.7292 76.0123 37.7622 75.8838 37.7577 75.7539C37.7577 74.4635 37.2827 73.4815 36.214 73.4815C35.34 73.4768 34.7225 74.2406 34.7225 75.308Z" fill="#231F20"/>
<path d="M39.8004 79.7674C39.7945 79.6727 39.8082 79.5779 39.8407 79.4888C39.8733 79.3997 39.9239 79.3183 39.9895 79.2497C40.055 79.1811 40.1341 79.1268 40.2217 79.0902C40.3093 79.0536 40.4035 79.0355 40.4985 79.037C40.6924 79.037 40.8784 79.1139 41.0156 79.2509C41.1527 79.3879 41.2298 79.5737 41.2298 79.7674C41.2298 79.9611 41.1527 80.1469 41.0156 80.2839C40.8784 80.4209 40.6924 80.4978 40.4985 80.4978C40.4033 80.5 40.3088 80.4824 40.2209 80.446C40.133 80.4097 40.0536 80.3554 39.9879 80.2866C39.9221 80.2179 39.8715 80.1362 39.8392 80.0468C39.8069 79.9574 39.7937 79.8622 39.8004 79.7674Z" fill="#231F20"/>
<path d="M47.1391 76.5177C47.1391 79.0843 46.1891 80.4981 44.5124 80.4981C43.0351 80.4981 42.0376 79.1175 42.0139 76.6221C41.9901 74.1267 43.1064 72.6987 44.6406 72.6987C46.1749 72.6987 47.1391 74.1125 47.1391 76.5177ZM43.0399 76.6316C43.0399 78.5909 43.6432 79.7058 44.5742 79.7058C45.6192 79.7058 46.1179 78.4866 46.1179 76.5604C46.1179 74.6343 45.6429 73.4862 44.5837 73.4862C43.6907 73.4862 43.0399 74.5774 43.0399 76.6316Z" fill="#231F20"/>
<path d="M47.9894 78.4533C47.9959 78.0018 48.1442 77.5638 48.4136 77.2012C48.6829 76.8385 49.0596 76.5696 49.4903 76.4323V76.3991C49.1457 76.2663 48.8482 76.0346 48.6352 75.7332C48.4222 75.4319 48.3032 75.0743 48.2933 74.7055C48.2933 73.51 49.3052 72.6987 50.6304 72.6987C52.0934 72.6987 52.8248 73.6143 52.8248 74.5537C52.8215 74.9393 52.7007 75.3147 52.4783 75.63C52.256 75.9453 51.9428 76.1855 51.5804 76.3185V76.3517C52.5304 76.7217 53.1051 77.3859 53.1051 78.3015C53.1051 79.6109 51.9793 80.4933 50.5353 80.4933C48.9393 80.4981 47.9894 79.5587 47.9894 78.4533ZM52.0554 78.4059C52.0554 77.4903 51.4189 77.0491 50.3929 76.7597C49.5094 77.0159 49.0344 77.5947 49.0344 78.3158C49.0297 78.5113 49.0663 78.7056 49.1417 78.8861C49.2172 79.0666 49.3297 79.2293 49.4721 79.3635C49.6146 79.4977 49.7837 79.6005 49.9685 79.6652C50.1533 79.7299 50.3497 79.755 50.5448 79.739C50.7333 79.7588 50.9239 79.7392 51.1044 79.6815C51.2849 79.6238 51.4514 79.5293 51.5934 79.404C51.7354 79.2787 51.8498 79.1252 51.9294 78.9534C52.0089 78.7816 52.0518 78.5952 52.0554 78.4059ZM49.2433 74.6343C49.2433 75.3886 49.8133 75.7966 50.6683 76.0291C50.9831 75.9563 51.2655 75.7832 51.4729 75.5358C51.6803 75.2884 51.8015 74.9803 51.8179 74.658C51.8268 74.4903 51.7994 74.3225 51.7377 74.1662C51.6759 74.0099 51.5812 73.8687 51.46 73.7522C51.3388 73.6356 51.194 73.5465 51.0352 73.4908C50.8765 73.4351 50.7076 73.4141 50.5401 73.4293C50.3736 73.4161 50.2063 73.4377 50.0487 73.4927C49.8911 73.5477 49.7467 73.6349 49.6247 73.7487C49.5027 73.8625 49.4058 74.0005 49.3402 74.1538C49.2745 74.3071 49.2415 74.4723 49.2433 74.6391V74.6343Z" fill="#231F20"/>
<path d="M139.047 163.61L137.736 164.317L137.536 163.539L139.185 162.657H140.054V170.2H139.066V163.61H139.047Z" fill="#231F20"/>
<path d="M143.032 169.028C143.539 169.328 144.115 169.491 144.704 169.502C146.015 169.502 146.423 168.668 146.414 168.041C146.414 166.983 145.464 166.533 144.462 166.533H143.892V165.769H144.462C145.207 165.769 146.148 165.385 146.148 164.493C146.148 163.89 145.763 163.354 144.823 163.354C144.281 163.369 143.756 163.542 143.312 163.852L143.046 163.107C143.634 162.726 144.321 162.525 145.022 162.529C146.509 162.529 147.184 163.411 147.184 164.327C147.172 164.733 147.029 165.124 146.778 165.444C146.527 165.763 146.179 165.993 145.787 166.101C146.254 166.168 146.681 166.4 146.99 166.756C147.3 167.111 147.471 167.566 147.473 168.037C147.473 169.242 146.523 170.299 144.718 170.299C144.03 170.307 143.353 170.13 142.756 169.787L143.032 169.028Z" fill="#231F20"/>
<path d="M148.832 169.597C148.826 169.503 148.84 169.408 148.872 169.319C148.905 169.23 148.955 169.148 149.021 169.08C149.086 169.011 149.165 168.957 149.253 168.92C149.341 168.883 149.435 168.865 149.53 168.867C149.724 168.867 149.91 168.944 150.047 169.081C150.184 169.218 150.261 169.404 150.261 169.597C150.261 169.791 150.184 169.977 150.047 170.114C149.91 170.251 149.724 170.328 149.53 170.328C149.435 170.33 149.34 170.312 149.252 170.276C149.164 170.239 149.085 170.185 149.019 170.116C148.954 170.048 148.903 169.966 148.871 169.877C148.838 169.787 148.825 169.692 148.832 169.597Z" fill="#231F20"/>
<path d="M155.662 163.515H152.779L152.489 165.451C152.694 165.42 152.9 165.404 153.107 165.404C153.675 165.393 154.236 165.534 154.731 165.812C155.071 166.005 155.351 166.288 155.542 166.629C155.733 166.97 155.827 167.357 155.814 167.747C155.814 169.223 154.641 170.323 153.002 170.323C152.338 170.339 151.681 170.175 151.102 169.849L151.359 169.071C151.854 169.342 152.409 169.486 152.974 169.488C153.2 169.505 153.428 169.476 153.643 169.401C153.858 169.327 154.055 169.209 154.223 169.056C154.391 168.903 154.525 168.717 154.618 168.51C154.712 168.303 154.761 168.079 154.765 167.852C154.765 166.879 154.104 166.182 152.594 166.182C152.244 166.185 151.895 166.212 151.549 166.262L152.024 162.643H155.638V163.501L155.662 163.515Z" fill="#231F20"/>
<path d="M157.021 168.288C157.027 167.837 157.176 167.399 157.445 167.036C157.714 166.673 158.091 166.404 158.522 166.267V166.234C158.177 166.101 157.88 165.869 157.667 165.568C157.454 165.267 157.335 164.909 157.325 164.54C157.325 163.345 158.336 162.533 159.662 162.533C161.125 162.533 161.856 163.449 161.856 164.388C161.853 164.774 161.732 165.149 161.51 165.465C161.287 165.78 160.974 166.02 160.612 166.153V166.186C161.562 166.556 162.136 167.221 162.136 168.136C162.136 169.446 161.011 170.328 159.567 170.328C157.971 170.328 157.021 169.389 157.021 168.288ZM161.087 168.241C161.087 167.325 160.45 166.884 159.424 166.594C158.541 166.851 158.066 167.429 158.066 168.15C158.061 168.346 158.098 168.54 158.173 168.721C158.248 168.901 158.361 169.064 158.503 169.198C158.646 169.332 158.815 169.435 159 169.5C159.185 169.565 159.381 169.59 159.576 169.574C159.765 169.593 159.955 169.574 160.136 169.516C160.316 169.459 160.483 169.364 160.625 169.239C160.767 169.113 160.881 168.96 160.961 168.788C161.04 168.616 161.083 168.43 161.087 168.241ZM158.275 164.469C158.275 165.223 158.845 165.631 159.7 165.859C160.014 165.786 160.297 165.613 160.504 165.366C160.712 165.118 160.833 164.81 160.849 164.488C160.858 164.32 160.831 164.153 160.769 163.996C160.707 163.84 160.613 163.699 160.491 163.582C160.37 163.466 160.225 163.376 160.067 163.321C159.908 163.265 159.739 163.244 159.571 163.259C159.406 163.248 159.24 163.271 159.084 163.327C158.929 163.383 158.786 163.471 158.665 163.584C158.545 163.698 158.449 163.835 158.385 163.987C158.32 164.14 158.287 164.304 158.289 164.469H158.275Z" fill="#231F20"/>
<path d="M97.9069 67.4328V65.3786H94.3967V64.7049L97.7645 59.8896H98.8664V64.5863H99.921V65.3881H98.8664V67.4328H97.9164H97.9069ZM97.9069 64.5863V62.0672C97.9069 61.6719 97.918 61.2765 97.9402 60.8812H97.9069C97.6741 61.3224 97.489 61.645 97.28 61.996L95.4321 64.5626H97.9069V64.5863Z" fill="#231F20"/>
<path d="M100.79 66.8397C100.784 66.745 100.798 66.6502 100.831 66.5611C100.863 66.472 100.914 66.3906 100.979 66.322C101.045 66.2534 101.124 66.1991 101.212 66.1625C101.299 66.1259 101.393 66.1077 101.488 66.1092C101.682 66.1092 101.868 66.1862 102.005 66.3232C102.143 66.4601 102.22 66.6459 102.22 66.8397C102.22 67.0334 102.143 67.2192 102.005 67.3562C101.868 67.4931 101.682 67.5701 101.488 67.5701C101.393 67.5723 101.299 67.5547 101.211 67.5183C101.123 67.4819 101.043 67.4276 100.978 67.3589C100.912 67.2901 100.861 67.2084 100.829 67.119C100.797 67.0296 100.784 66.9345 100.79 66.8397Z" fill="#231F20"/>
<path d="M103.707 66.7211C103.983 66.7368 104.259 66.7256 104.533 66.6879C105.124 66.6153 105.677 66.3598 106.115 65.9573C106.67 65.424 107.023 64.7147 107.112 63.9506H107.079C106.865 64.2122 106.593 64.4214 106.285 64.562C105.977 64.7026 105.641 64.771 105.303 64.7618C105.001 64.7689 104.7 64.7133 104.421 64.5987C104.141 64.484 103.889 64.3127 103.679 64.0956C103.469 63.8785 103.307 63.6202 103.202 63.3373C103.097 63.0543 103.052 62.7526 103.07 62.4514C103.057 62.1048 103.115 61.7591 103.238 61.435C103.362 61.1109 103.55 60.815 103.791 60.5649C104.031 60.3148 104.32 60.1156 104.639 59.9793C104.959 59.8429 105.302 59.772 105.649 59.771C107.193 59.771 108.148 61.0234 108.148 62.9495C108.185 63.597 108.088 64.2451 107.864 64.8538C107.64 65.4625 107.294 66.0189 106.846 66.4887C106.246 67.0568 105.475 67.4118 104.652 67.4991C104.338 67.5498 104.02 67.5689 103.702 67.5561V66.7211H103.707ZM104.077 62.3803C104.056 62.5833 104.077 62.7885 104.141 62.9825C104.204 63.1766 104.308 63.3551 104.445 63.5064C104.582 63.6577 104.75 63.7784 104.937 63.8607C105.124 63.9429 105.326 63.9849 105.531 63.9838C105.826 63.9936 106.118 63.926 106.379 63.7878C106.64 63.6497 106.86 63.4457 107.017 63.1962C107.084 63.0845 107.117 62.9561 107.112 62.8262C107.112 61.5358 106.637 60.5538 105.569 60.5538C104.695 60.549 104.077 61.3128 104.077 62.3803Z" fill="#231F20"/>
<path d="M109.069 67.4328V66.8161L109.872 66.0381C111.801 64.2068 112.675 63.2296 112.684 62.091C112.705 61.8905 112.68 61.688 112.612 61.4984C112.543 61.3088 112.433 61.1368 112.29 60.9953C112.146 60.8537 111.973 60.7461 111.782 60.6804C111.591 60.6147 111.388 60.5925 111.188 60.6155C110.595 60.6378 110.028 60.8641 109.582 61.256L109.259 60.5349C109.86 60.0377 110.617 59.7674 111.397 59.7711C111.697 59.7439 112 59.781 112.285 59.8799C112.57 59.9788 112.831 60.1372 113.05 60.3446C113.269 60.552 113.441 60.8036 113.555 61.0826C113.668 61.3617 113.721 61.6618 113.71 61.9629C113.71 63.3576 112.698 64.482 111.107 66.0143L110.504 66.5694H113.895V67.4328H109.074H109.069Z" fill="#231F20"/>
<path d="M138.757 45.4155V43.3612H135.247V42.6876L138.615 37.8723H139.716V42.5595H140.771V43.3612H139.716V45.4155H138.766H138.757ZM138.757 42.569V40.0499C138.757 39.6545 138.768 39.2592 138.79 38.8638H138.757C138.524 39.305 138.339 39.6276 138.13 39.9787L136.282 42.5453H138.757V42.569Z" fill="#231F20"/>
<path d="M141.636 44.8128C141.63 44.7182 141.643 44.6233 141.676 44.5342C141.709 44.4451 141.759 44.3637 141.825 44.2952C141.89 44.2266 141.969 44.1722 142.057 44.1356C142.144 44.099 142.239 44.0809 142.334 44.0824C142.528 44.0824 142.714 44.1593 142.851 44.2963C142.988 44.4333 143.065 44.6191 143.065 44.8128C143.065 45.0065 142.988 45.1923 142.851 45.3293C142.714 45.4663 142.528 45.5432 142.334 45.5432C142.239 45.5454 142.144 45.5278 142.056 45.4914C141.968 45.4551 141.889 45.4008 141.823 45.332C141.757 45.2633 141.707 45.1816 141.675 45.0922C141.642 45.0028 141.629 44.9076 141.636 44.8128Z" fill="#231F20"/>
<path d="M144.205 44.2436C144.712 44.5431 145.288 44.7066 145.877 44.718C147.188 44.718 147.597 43.8831 147.587 43.2569C147.587 42.1989 146.637 41.7482 145.635 41.7482H145.065V40.9844H145.635C146.381 40.9844 147.321 40.6002 147.321 39.7083C147.321 39.1058 146.937 38.5697 145.996 38.5697C145.455 38.5849 144.93 38.758 144.486 39.0678L144.219 38.323C144.807 37.9415 145.494 37.7403 146.196 37.7442C147.682 37.7442 148.357 38.6266 148.357 39.5422C148.345 39.9483 148.203 40.3399 147.951 40.6592C147.7 40.9786 147.353 41.209 146.96 41.3165C147.427 41.3836 147.854 41.616 148.164 41.9713C148.473 42.3266 148.645 42.7812 148.647 43.2521C148.647 44.4571 147.697 45.5151 145.892 45.5151C145.203 45.523 144.526 45.346 143.93 45.0027L144.205 44.2436Z" fill="#231F20"/>
<path d="M154.822 37.8723V38.546L151.535 45.4155H150.475L153.753 38.7452H150.057V37.896H154.807L154.822 37.8723Z" fill="#231F20"/>
<path d="M58.292 128.404C61.7812 128.404 65.1919 127.371 68.0931 125.435C70.9942 123.499 73.2555 120.747 74.5907 117.527C75.9259 114.308 76.2752 110.765 75.5945 107.347C74.9138 103.929 73.2337 100.79 70.7665 98.3255C68.2992 95.8613 65.1558 94.1832 61.7337 93.5034C58.3116 92.8235 54.7645 93.1724 51.5409 94.506C48.3173 95.8396 45.5621 98.098 43.6236 100.996C41.6851 103.893 40.6506 107.3 40.6506 110.784C40.6506 115.457 42.5092 119.939 45.8176 123.243C49.126 126.548 53.6132 128.404 58.292 128.404Z" fill="white"/>
<path d="M58.292 128.404C68.0351 128.404 75.9335 120.515 75.9335 110.784C75.9335 101.053 68.0351 93.1648 58.292 93.1648C48.5489 93.1648 40.6505 101.053 40.6505 110.784C40.6505 120.515 48.5489 128.404 58.292 128.404Z" stroke="#231F20" stroke-width="2.71738" stroke-miterlimit="10"/>
<path d="M47.8088 114.438V112.156H43.9091V111.406L47.6521 106.055H48.8775V111.273H50.0508V112.165H48.8775V114.447H47.8088V114.438ZM47.8088 111.264V108.465C47.8088 108.025 47.8215 107.587 47.8468 107.151H47.8088C47.5523 107.625 47.3338 108 47.1106 108.389L45.0586 111.235V111.259H47.8088V111.264Z" fill="#231F20"/>
<path d="M51.1907 113.133C51.7541 113.465 52.3938 113.647 53.0479 113.66C54.5062 113.66 54.9479 112.711 54.9479 112.037C54.9479 110.865 53.8744 110.362 52.7819 110.362H52.1502V109.513H52.7819C53.6084 109.513 54.6535 109.086 54.6535 108.09C54.6535 107.421 54.2259 106.828 53.1809 106.828C52.5798 106.846 51.9969 107.039 51.5042 107.383L51.2097 106.558C51.8624 106.133 52.6253 105.909 53.4042 105.912C55.0572 105.912 55.8029 106.894 55.8029 107.91C55.7945 108.362 55.6388 108.799 55.3594 109.155C55.08 109.511 54.6921 109.767 54.2544 109.883V109.907C54.7732 109.982 55.2476 110.241 55.5912 110.636C55.9348 111.032 56.1245 111.537 56.1259 112.061C56.1259 113.403 55.0809 114.575 53.0669 114.575C52.3023 114.584 51.5493 114.387 50.8867 114.006L51.1907 113.133Z" fill="#231F20"/>
<path d="M57.6317 113.769C57.6251 113.664 57.6403 113.558 57.6764 113.459C57.7125 113.361 57.7686 113.27 57.8413 113.194C57.914 113.118 58.0017 113.058 58.0988 113.017C58.1959 112.976 58.3004 112.956 58.4057 112.957C58.5677 112.95 58.7283 112.991 58.8668 113.075C59.0052 113.16 59.1152 113.284 59.1825 113.431C59.2498 113.578 59.2714 113.742 59.2445 113.902C59.2176 114.062 59.1434 114.21 59.0315 114.327C58.9196 114.444 58.7751 114.526 58.6166 114.56C58.4581 114.595 58.293 114.581 58.1424 114.521C57.9918 114.461 57.8626 114.357 57.7716 114.223C57.6806 114.089 57.6318 113.931 57.6317 113.769Z" fill="#231F20"/>
<path d="M65.7874 110.158C65.7874 113.005 64.7282 114.58 62.871 114.58C61.2322 114.58 60.1207 113.048 60.097 110.272C60.0732 107.497 61.3082 105.912 63.0134 105.912C64.7187 105.912 65.7874 107.487 65.7874 110.158ZM61.2322 110.286C61.2322 112.464 61.9019 113.702 62.9374 113.702C64.1012 113.702 64.6522 112.35 64.6522 110.206C64.6522 108.142 64.125 106.79 62.947 106.79C61.9542 106.809 61.2322 108.005 61.2322 110.286Z" fill="#231F20"/>
<path d="M66.8325 114.437V113.74L67.7256 112.877C69.8678 110.841 70.8368 109.755 70.851 108.493C70.874 108.27 70.8465 108.045 70.7704 107.834C70.6943 107.623 70.5716 107.431 70.4115 107.274C70.2514 107.117 70.0579 106.998 69.8453 106.926C69.6328 106.853 69.4067 106.83 69.1837 106.856C68.5255 106.881 67.8961 107.132 67.4025 107.568L67.0415 106.766C67.7083 106.213 68.5494 105.912 69.4165 105.917C71.2215 105.917 71.9863 107.155 71.9863 108.356C71.9863 109.902 70.8605 111.155 69.0935 112.853L68.4238 113.47V113.493H72.1953V114.442H66.8373L66.8325 114.437Z" fill="#231F20"/>
</g>
<defs>
<clipPath id="clip0">
<rect width="190" height="240" fill="white"/>
</clipPath>
</defs>
</svg>
