<svg width="71" height="81" viewBox="0 0 71 81" fill="none" xmlns="http://www.w3.org/2000/svg">
<path d="M35.14 2.528C35.644 2.528 36.084 2.6 36.46 2.744C36.836 2.888 37.204 3.108 37.564 3.404L36.76 4.34C36.272 3.948 35.76 3.752 35.224 3.752C34.608 3.752 34.112 4 33.736 4.496C33.368 4.992 33.184 5.772 33.184 6.836C33.184 7.876 33.368 8.648 33.736 9.152C34.104 9.656 34.6 9.908 35.224 9.908C35.552 9.908 35.844 9.852 36.1 9.74C36.356 9.62 36.628 9.452 36.916 9.236L37.66 10.172C37.38 10.46 37.024 10.7 36.592 10.892C36.168 11.084 35.692 11.18 35.164 11.18C34.444 11.18 33.808 11.012 33.256 10.676C32.704 10.34 32.276 9.848 31.972 9.2C31.668 8.544 31.516 7.756 31.516 6.836C31.516 5.932 31.672 5.156 31.984 4.508C32.304 3.86 32.736 3.368 33.28 3.032C33.832 2.696 34.452 2.528 35.14 2.528Z" fill="#888784"/>
<path d="M35.972 69.528C37.076 69.528 37.936 69.904 38.552 70.656C39.176 71.408 39.488 72.472 39.488 73.848C39.488 74.752 39.348 75.528 39.068 76.176C38.788 76.824 38.384 77.32 37.856 77.664C37.328 78.008 36.7 78.18 35.972 78.18C34.948 78.18 34.136 77.848 33.536 77.184C32.944 76.512 32.604 75.564 32.516 74.34H31.556V78H29.972V69.708H31.556V73.068H32.552C32.688 71.932 33.048 71.06 33.632 70.452C34.224 69.836 35.004 69.528 35.972 69.528ZM35.972 76.968C36.572 76.968 37.028 76.72 37.34 76.224C37.652 75.728 37.808 74.936 37.808 73.848C37.808 72.768 37.652 71.98 37.34 71.484C37.036 70.988 36.58 70.74 35.972 70.74C35.372 70.74 34.916 70.992 34.604 71.496C34.292 72 34.136 72.8 34.136 73.896C34.136 75.944 34.748 76.968 35.972 76.968Z" fill="#888784"/>
<path d="M68.04 39.608C68.608 39.712 69.064 39.916 69.408 40.22C69.76 40.524 69.936 40.988 69.936 41.612C69.936 42.476 69.632 43.092 69.024 43.46C68.416 43.82 67.564 44 66.468 44H63.972V35.708H66.144C68.432 35.708 69.576 36.412 69.576 37.82C69.576 38.308 69.428 38.708 69.132 39.02C68.836 39.324 68.472 39.52 68.04 39.608ZM65.556 36.872V39.116H66.528C66.968 39.116 67.316 39.02 67.572 38.828C67.828 38.628 67.956 38.336 67.956 37.952C67.956 37.552 67.82 37.272 67.548 37.112C67.284 36.952 66.868 36.872 66.3 36.872H65.556ZM66.48 42.812C67.064 42.812 67.508 42.724 67.812 42.548C68.124 42.372 68.28 42.04 68.28 41.552C68.28 41.08 68.132 40.74 67.836 40.532C67.548 40.324 67.152 40.22 66.648 40.22H65.556V42.812H66.48Z" fill="#888784"/>
<path d="M2.808 44.18C1.656 44.18 0.732 43.796 0.036 43.028L0.924 42.176C1.18 42.432 1.452 42.624 1.74 42.752C2.028 42.88 2.352 42.944 2.712 42.944C3.208 42.944 3.592 42.824 3.864 42.584C4.144 42.344 4.284 42.008 4.284 41.576C4.284 41.144 4.144 40.812 3.864 40.58C3.592 40.34 3.184 40.22 2.64 40.22H1.812L2.004 39.032H2.664C3.096 39.032 3.436 38.928 3.684 38.72C3.932 38.504 4.056 38.212 4.056 37.844C4.056 37.516 3.956 37.248 3.756 37.04C3.556 36.832 3.248 36.728 2.832 36.728C2.232 36.728 1.636 36.968 1.044 37.448L0.276 36.596C1.052 35.884 1.964 35.528 3.012 35.528C3.58 35.528 4.064 35.624 4.464 35.816C4.872 36 5.18 36.256 5.388 36.584C5.596 36.904 5.7 37.268 5.7 37.676C5.7 38.172 5.548 38.584 5.244 38.912C4.94 39.24 4.512 39.464 3.96 39.584C4.56 39.648 5.044 39.856 5.412 40.208C5.78 40.552 5.964 41.028 5.964 41.636C5.964 42.14 5.828 42.584 5.556 42.968C5.292 43.352 4.92 43.652 4.44 43.868C3.968 44.076 3.424 44.18 2.808 44.18Z" fill="#888784"/>
<g opacity="0.3" clip-path="url(#clip0)">
<path d="M54.2453 40.1066L53.2026 39.8378C52.9809 35.039 50.9958 30.5589 47.5552 27.1395C44.8924 24.4931 41.5453 22.6883 37.8761 21.9202C37.5199 21.8456 37.1703 22.0721 37.0952 22.4262C37.0201 22.7803 37.2481 23.1277 37.6043 23.2023C41.0228 23.9179 44.1413 25.5997 46.6229 28.0661C49.7316 31.1556 51.565 35.1745 51.862 39.4923L49.4829 38.879C49.1985 36.5103 48.3621 34.2158 47.0502 32.2162C46.8514 31.9131 46.4431 31.8275 46.138 32.0252C45.833 32.2229 45.747 32.6287 45.9458 32.9318C47.0527 34.6189 47.7892 36.5354 48.1021 38.5231L42.2761 37.0213L45.6709 29.8844C45.7899 29.6343 45.738 29.3366 45.5409 29.1411C45.3441 28.9454 45.0447 28.8939 44.793 29.0122L37.6129 32.3893L36.1009 26.596C38.0726 26.9027 39.9765 27.6188 41.6556 28.6931C41.766 28.7636 41.8896 28.7974 42.0119 28.7974C42.2285 28.7974 42.4408 28.6912 42.5667 28.4967C42.7638 28.1925 42.6753 27.7871 42.3692 27.5912C40.3768 26.3167 38.0949 25.5027 35.7428 25.2236L34.5076 20.4906C34.4323 20.2018 34.1698 20 33.8695 20C33.5692 20 33.3068 20.2018 33.2314 20.4906L31.996 25.2242C28.6619 25.6177 25.6511 27.0463 23.2947 29.1761L22.9457 29.0121C22.6939 28.8939 22.3946 28.9456 22.1978 29.1412C22.0009 29.337 21.949 29.6345 22.0681 29.8847L22.2329 30.2307C20.0881 32.5752 18.6522 35.5698 18.2567 38.8788L15.8859 39.4899C16.1764 35.3252 17.9195 31.2428 21.1161 28.066C23.5712 25.626 26.6538 23.9519 30.0307 23.2243C30.3865 23.1477 30.6124 22.7989 30.5353 22.4454C30.4582 22.0918 30.1072 21.867 29.7515 21.9439C26.1267 22.7248 22.8183 24.5214 20.1839 27.1395C16.7432 30.5588 14.7581 35.039 14.5365 39.8378L13.4938 40.1065C13.203 40.1815 13 40.4422 13 40.7407C13 41.0392 13.203 41.2999 13.4937 41.3749L14.5364 41.6436C14.7581 46.4424 16.7432 50.9225 20.1838 54.3419C23.6244 57.7613 28.1323 59.7341 32.9609 59.9543L33.2313 60.9907C33.3067 61.2796 33.5691 61.4813 33.8694 61.4813C34.1698 61.4813 34.4321 61.2795 34.5075 60.9907L34.778 59.9543C39.6066 59.734 44.1145 57.7612 47.5552 54.3419C50.9957 50.9225 52.9808 46.4424 53.2025 41.6435L54.2453 41.3748C54.536 41.2998 54.739 41.0391 54.739 40.7406C54.739 40.4421 54.5361 40.1815 54.2453 40.1066ZM43.691 50.5021L37.949 47.8044L38.1767 46.9321L38.5724 45.4159L38.5734 45.4157L43.6904 50.501L43.691 50.5021ZM30.4399 45.0757L33.8695 41.6672V58.217L30.4399 45.0757ZM24.0475 50.5015L26.7619 44.795L27.9646 45.105L29.1653 45.4145L29.1655 45.4156L24.0486 50.5009L24.0475 50.5015ZM29.4782 34.8723L29.1667 36.0656L29.1656 36.0658L24.0486 30.9804L24.0481 30.9793L29.79 33.677L29.4782 34.8723ZM25.463 44.4602L22.8419 49.9703C21.1855 48.0152 20.0483 45.6096 19.6353 42.958L25.463 44.4602ZM30.1261 49.0921L31.6385 54.887C28.97 54.4765 26.5493 53.3461 24.582 51.6997L30.1261 49.0921ZM37.6122 49.0954L43.1565 51.7002C41.1893 53.3465 38.7687 54.4766 36.1006 54.887L37.6122 49.0954ZM42.2729 44.461L48.1038 42.958C47.6909 45.6099 46.5534 48.0157 44.8968 49.971L42.2729 44.461ZM38.2315 44.1492L34.8019 40.7407H51.4543L38.2315 44.1492ZM40.9772 36.6864L39.3413 36.2647L38.5738 36.0669L38.5735 36.0658L43.6905 30.9804L43.6917 30.9799L40.9772 36.6864ZM37.2993 36.4058L33.8696 39.8143V23.2645L37.2993 36.4058ZM31.6383 26.5952L30.127 32.386L24.5936 29.7863C26.5605 28.1395 28.9778 27.0061 31.6383 26.5952ZM22.8477 31.5215L25.4663 37.0205L19.6355 38.5234C20.0487 35.8821 21.1891 33.4783 22.8477 31.5215ZM29.5077 37.3322L32.9373 40.7407H16.2848L29.5077 37.3322ZM21.1161 53.4154C17.9195 50.2386 16.1764 46.1562 15.8859 41.9915L18.2568 42.6026C18.6427 45.8183 20.0375 48.8487 22.2331 51.2502L22.0681 51.597C21.9491 51.8471 22.0011 52.1447 22.198 52.3403C22.3244 52.4659 22.4931 52.5321 22.6642 52.5321C22.7597 52.5321 22.8559 52.5115 22.9461 52.4692L23.2947 52.3052C25.7111 54.4873 28.7603 55.8735 31.996 56.257L32.611 58.6133C28.4205 58.3247 24.3126 56.5922 21.1161 53.4154ZM46.623 53.4154C43.4264 56.5922 39.3187 58.3246 35.1281 58.6133L35.7431 56.257C38.9787 55.8735 42.028 54.4873 44.4444 52.3053L44.7934 52.4692C44.8834 52.5115 44.9796 52.5321 45.0749 52.5321C45.2461 52.5321 45.4149 52.4658 45.5414 52.3401C45.7382 52.1444 45.7901 51.8469 45.671 51.5967L45.506 51.2502C47.7017 48.8487 49.0965 45.8183 49.4824 42.6026L51.8621 41.9892C51.5651 46.307 49.7317 50.3259 46.623 53.4154Z" fill="black"/>
</g>
<defs>
<clipPath id="clip0">
<rect width="41.7391" height="41.4815" fill="white" transform="translate(13 20)"/>
</clipPath>
</defs>
</svg>
