<svg width="18" height="18" viewBox="0 0 18 18" fill="none" xmlns="http://www.w3.org/2000/svg">
<path d="M12.75 8.25006H5.25C4.42157 8.25006 3.75 8.92163 3.75 9.75006V14.2501C3.75 15.0785 4.42157 15.7501 5.25 15.7501H12.75C13.5784 15.7501 14.25 15.0785 14.25 14.2501V9.75006C14.25 8.92163 13.5784 8.25006 12.75 8.25006Z" stroke="#D4463D" stroke-width="2" stroke-linecap="round" stroke-linejoin="round"/>
<path d="M9 12.75C9.41421 12.75 9.75 12.4142 9.75 12C9.75 11.5858 9.41421 11.25 9 11.25C8.58579 11.25 8.25 11.5858 8.25 12C8.25 12.4142 8.58579 12.75 9 12.75Z" stroke="#D4463D" stroke-width="2" stroke-linecap="round" stroke-linejoin="round"/>
<path d="M6 8.25V5.25C6 4.45435 6.31607 3.69129 6.87868 3.12868C7.44129 2.56607 8.20435 2.25 9 2.25C9.79565 2.25 10.5587 2.56607 11.1213 3.12868C11.6839 3.69129 12 4.45435 12 5.25V8.25" stroke="#D4463D" stroke-width="2" stroke-linecap="round" stroke-linejoin="round"/>
</svg>
